<svg width="34" height="71" viewBox="0 0 34 71" fill="none" xmlns="http://www.w3.org/2000/svg">
<path d="M17.5 71L9 39H24.5L17.5 71Z" fill="#D43535"/>
<path d="M34 0H0V39H34V37V29.1182C33.717 28.8862 33.2124 28.7389 32.9977 29.6716C32.7501 30.747 32.0836 31.1228 31.2934 31.5682C31.1494 31.6494 31.0013 31.7328 30.8509 31.8233C29.8751 32.4101 29.192 31.8233 28.8017 31.2365C28.6042 30.9396 28.7065 30.5425 28.8052 30.1593C28.9016 29.7851 28.9945 29.4242 28.8017 29.1826C28.4586 28.7527 28.7186 28.2473 29.0516 27.6C29.0975 27.5108 29.1447 27.419 29.192 27.3242C29.5043 26.6983 29.3221 25.0421 29.192 24.2923C28.6716 24.3575 27.455 24.4488 26.7525 24.2923C25.5034 28.4392 26.4922 33.4534 27.1428 35.4421C27.1348 35.4608 27.1256 35.4801 27.1153 35.4995C29.6525 36.2924 32.0536 36.8054 34 37C24 37.6667 3.5 32 3.5 20C3.5 4 24 1 34 1.5V0Z" fill="#D43535"/>
<path d="M34 3C33.9081 2.99817 33.8152 2.99649 33.7213 2.995L34 3.83286V3Z" fill="#D43535"/>
<path d="M34 4.3252C33.9312 4.4592 33.8041 4.58914 33.5832 4.63342C32.8395 4.85703 33.5127 5.51263 34 5.85608V4.3252Z" fill="#D43535"/>
<path d="M34 5.91663C33.167 6.05798 31.6315 6.44858 31.6315 6.98074C31.6315 7.99792 30.2003 12.034 29.4847 13.9249C29.7775 13.6315 30.3825 12.9273 30.4606 12.4579C30.5123 12.1466 30.7836 12.138 31.1725 12.1256C31.517 12.1146 31.9539 12.1007 32.4122 11.871C33.2002 11.4761 32.7155 11.2088 32.0887 10.863C31.9393 10.7805 31.7818 10.6937 31.6315 10.5995C31.2464 10.3583 31.455 10.2837 31.7887 10.1643C32.1314 10.0417 32.606 9.87186 32.7049 9.42587C32.8521 8.76199 33.5891 8.39365 34 8.2717V5.91663Z" fill="#D43535"/>
<path d="M34 10.0146L33.5832 10.5995C33.388 10.7625 32.9977 11.3624 32.9977 12.4579C32.9977 13.4847 33.6266 12.6436 34 11.9972V10.0146Z" fill="#D43535"/>
<path d="M34 17.1605C33.8289 16.9346 33.5832 16.5443 33.5832 16.2722C33.0953 14.7074 31.6315 14.7074 30.8509 15.5876C30.1472 16.381 29.3643 16.1414 28.7165 15.9432C28.6456 15.9215 28.5763 15.9003 28.5089 15.881C27.8259 15.6854 28.4113 17.2503 29.192 17.2503C31.2004 17.0673 31.197 17.3409 31.1942 17.5726C31.1924 17.7125 31.1909 17.8371 31.6315 17.8371C32.5197 17.8371 33.5365 18.8335 34 19.4092V17.1605Z" fill="#D43535"/>
<path d="M27.741 3.20935L27.609 3.22214C27.5602 3.47742 27.3969 4.2193 27.0727 4.69836C26.6332 5.34769 25.4839 6.29611 25.4839 6.29611C25.8092 6.52432 26.5183 7.05899 26.7525 7.37195C27.0452 7.76318 26.7525 8.64343 26.0694 8.64343C25.3863 8.64343 25.0936 10.5995 25.0936 11.2842C25.0936 11.8319 24.0527 11.5124 23.5323 11.2842V11.871C22.9142 11.5776 21.7953 11.1668 22.2637 11.871C22.7321 12.5752 25.4514 13.3381 26.7525 13.6315C27.2079 12.2296 28.0601 9.26938 27.8259 8.64343C27.5331 7.86099 27.1428 5.90488 27.8259 5.22025C28.3723 4.67255 28.0536 4.40521 27.8259 4.34L27.741 3.20935Z" fill="#D43535"/>
<path d="M27.4386 3.23923C27.3671 3.39395 27.2019 3.66632 26.85 4.14438C26.3271 4.85498 25.2516 5.41043 24.446 5.82645C23.8927 6.11224 23.4665 6.3324 23.4347 6.4917C23.4045 6.64285 23.3651 6.56042 23.2759 6.37439C23.0767 5.9585 22.6292 5.02463 21.4831 5.02463C20.1559 5.02463 20.2795 4.76382 20.5072 4.63342L20.4794 4.64175C22.7652 3.89734 25.1627 3.47183 27.4386 3.23923Z" fill="#D43535"/>
<path d="M14.156 7.98627C12.6605 9.22705 11.3977 10.7673 10.4962 12.6762C11.5008 14.752 14.0052 16.9782 15.433 18.0327C14.7825 17.3155 13.4423 15.8028 13.2862 15.4898C13.1877 15.2925 13.2134 14.9708 13.2381 14.6627C13.2622 14.3599 13.2853 14.0703 13.1886 13.9249C13.0325 13.6902 12.7983 14.4139 12.7007 14.8052V12.4579C12.0762 10.3452 13.2862 9.42587 13.9693 9.23026C14.262 9.03467 14.7694 8.62387 14.4572 8.54562C14.3301 8.51376 14.231 8.28644 14.156 7.98627Z" fill="#D43535"/>
<path d="M9.33063 16.3124C9.11499 17.4444 9 18.6711 9 20C9 24.2798 12.3827 27.9846 16.8621 30.8401C17.1986 30.1523 17.2596 27.666 16.7991 26.8352C15.5501 25.1139 15.5631 22.4014 15.7257 21.2603C15.7257 21.2603 12.7007 20.7281 10.7738 18.5172C10.5004 18.2034 9.84909 17.1636 9.33063 16.3124Z" fill="#D43535"/>
<path d="M19.2343 32.2234C19.5095 32.3705 19.7871 32.5147 20.0667 32.6558L19.4338 31.8233L19.2343 32.2234Z" fill="#D43535"/>
<path d="M21.5668 33.3768C23.1658 34.1081 24.8006 34.7415 26.3943 35.2678C25.4579 32.6257 24.9028 24.6636 25.0936 23.8033C24.391 23.8033 23.1745 23.412 22.654 23.2164C23.207 23.8685 24.2544 25.3095 24.0202 25.8572C23.9176 26.0971 23.7911 26.2889 23.6573 26.4917C23.4095 26.8675 23.137 27.2808 22.9468 28.1067C22.8041 28.7263 22.4297 28.7885 22.0719 28.8478C21.6957 28.9103 21.3379 28.9696 21.2879 29.6716C21.2194 30.633 20.8141 30.8712 20.545 31.0293C20.4308 31.0964 20.3412 31.1491 20.3121 31.2365C20.2563 31.4043 20.9291 32.4493 21.5668 33.3768Z" fill="#D43535"/>
<path d="M20.8976 20.5757C21.2879 20.4974 23.9226 21.3255 25.1912 21.7494C25.1912 21.4233 25.1521 20.6735 24.996 20.2823C24.8547 19.9283 25.1225 19.7793 25.3551 19.6498C25.4439 19.6004 25.5276 19.5538 25.5815 19.4998C25.7766 19.3042 26.4597 15.0986 26.5573 14.4139C25.2302 14.3357 22.2312 13.2729 20.8976 12.7513C20.4818 14.0013 19.9185 16.3362 19.5919 17.6901C19.4585 18.243 19.3645 18.6323 19.3362 18.7174C19.2387 19.0108 20.4096 20.6735 20.8976 20.5757Z" fill="#D43535"/>
<path d="M16.7991 14.0227C15.3159 13.9445 15.0101 15.0986 15.0427 15.6854C16.8967 14.8052 16.9943 15.9788 16.604 16.1744C16.2137 16.3701 16.1161 16.9569 16.3112 16.9569C16.5064 16.9569 16.7991 17.1525 16.604 17.3481C16.4478 17.5046 16.5389 18.261 16.604 18.6196C17.287 17.1199 18.2824 14.101 16.7991 14.0227Z" fill="#D43535"/>
</svg>
