<?xml version="1.0" encoding="utf-8"?><svg xmlns="http://www.w3.org/2000/svg" xmlns:xlink="http://www.w3.org/1999/xlink"><symbol viewBox="0 0 24 27" fill="none" id="contacts-address"><path fill="#FFAF00" d="M4 5.123h16v16H4z"/><path d="M3.592 18.422a.53.53 0 0 1 .533-.525h.127a.53.53 0 0 1 .534.525.53.53 0 0 1-.534.525h-.127a.529.529 0 0 1-.533-.525zM15.146 7.38a1.75 1.75 0 0 0-1.209 1.655c0 .963.796 1.746 1.775 1.746h4.828c.979 0 1.775-.784 1.775-1.746a1.75 1.75 0 0 0-1.21-1.655.535.535 0 0 0-.675.329.523.523 0 0 0 .334.665.7.7 0 0 1 .484.66.704.704 0 0 1-.708.698h-4.828a.703.703 0 0 1-.708-.697.7.7 0 0 1 .484-.661.523.523 0 0 0 .334-.665.535.535 0 0 0-.676-.33zM7.168 22.722a.535.535 0 0 0-.675.33.523.523 0 0 0 .334.664c.29.096.484.362.484.66a.703.703 0 0 1-.708.698H1.775a.703.703 0 0 1-.709-.697.7.7 0 0 1 .485-.661.523.523 0 0 0 .334-.665.535.535 0 0 0-.676-.33A1.75 1.75 0 0 0 0 24.378c0 .963.796 1.746 1.775 1.746h4.828c.979 0 1.775-.783 1.775-1.746a1.75 1.75 0 0 0-1.21-1.655zm-4.444-.417c-.95-1.838-1.54-3.128-1.54-3.883 0-1.63 1.348-2.956 3.005-2.956 1.656 0 3.004 1.326 3.004 2.956 0 .756-.589 2.046-1.539 3.883L5.297 23c-.137.282-.392.809-1.108.809-.716 0-.972-.526-1.109-.81l-.356-.694zm-.473-3.883c0 .655.997 2.583 1.423 3.407 0 0 .454.893.484.929.019.026.048.012.062 0 .03-.036.08-.14.115-.21.02-.042.369-.72.369-.72.425-.823 1.423-2.75 1.423-3.406 0-1.051-.87-1.906-1.938-1.906-1.069 0-1.938.855-1.938 1.906zM24 .648v3.76a.53.53 0 0 1-.533.525h-4.808V7.35h.422a.53.53 0 0 1 .534.525c0 .29-.239.524-.534.524h-1.91a.529.529 0 0 1-.534-.524.53.53 0 0 1 .533-.525h.423V.649c0-.29.238-.525.533-.525h5.34A.53.53 0 0 1 24 .649zm-1.067.524H18.66v2.712h4.274V1.172zm-3.288 11.426H4.355c-1.813 0-3.288-1.451-3.288-3.236 0-1.784 1.475-3.235 3.288-3.235h10.752a.529.529 0 0 0 .534-.525.529.529 0 0 0-.534-.525H4.355C1.954 5.077 0 7 0 9.362c0 2.363 1.954 4.286 4.355 4.286h15.29c1.813 0 3.288 1.451 3.288 3.236 0 1.784-1.475 3.236-3.288 3.236H8.893a.529.529 0 0 0-.533.524c0 .29.238.525.533.525h10.752c2.401 0 4.355-1.922 4.355-4.285 0-2.363-1.954-4.286-4.355-4.286z" fill="#000"/></symbol><symbol viewBox="0 0 24 17" fill="none" id="contacts-email"><path fill="#FFAF00" d="M4 .123h16v16H4z"/><path d="M0 1.123v15h24v-15H0zm12 9.263l-9.844-8.15h19.688L12 10.386zM8.08 8.62l-6.9 5.712V2.908L8.079 8.62zm.894.74L12 11.868l3.027-2.506 6.823 5.65H2.15l6.823-5.65zm6.948-.74l6.899-5.712v11.424l-6.9-5.711z" fill="#101D2D"/></symbol><symbol viewBox="0 0 24 25" fill="none" id="contacts-tel"><path fill="#FFAF00" d="M3 4.123h17v17H3z"/><path d="M17.834 24.123c1.201 0 2.168-.414 2.954-1.267l.02-.02c.278-.336.595-.638.927-.96.224-.22.459-.444.678-.673 1.03-1.072 1.026-2.432-.01-3.47l-2.894-2.89c-.493-.512-1.084-.785-1.704-.785-.62 0-1.21.268-1.718.775l-1.723 1.72c-.157-.092-.318-.17-.474-.248-.19-.098-.371-.185-.532-.288-1.572-.994-2.997-2.295-4.36-3.967-.688-.868-1.147-1.599-1.469-2.345.45-.409.874-.833 1.28-1.247.146-.151.292-.298.443-.449.523-.521.801-1.126.801-1.74 0-.614-.278-1.213-.8-1.74L7.816 3.096c-.166-.166-.332-.331-.493-.497-.317-.327-.65-.663-.976-.965-.493-.492-1.079-.75-1.694-.75s-1.206.258-1.718.75L1.129 3.433A3.744 3.744 0 0 0 .021 5.806C-.072 6.956.138 8.18.69 9.662c.845 2.286 2.119 4.406 4.008 6.672 2.294 2.74 5.057 4.899 8.21 6.42 1.202.57 2.808 1.237 4.595 1.354.112.01.224.015.331.015zM5.616 15.569c-1.797-2.16-3.008-4.172-3.803-6.327-.493-1.325-.679-2.359-.6-3.338a2.5 2.5 0 0 1 .76-1.628l1.792-1.79c.279-.267.586-.408.884-.408.293 0 .586.136.864.414.322.302.63.614.952.945.166.171.332.342.503.507l1.435 1.433c.298.298.45.6.45.892 0 .293-.152.595-.45.892-.151.151-.303.302-.45.453a28.72 28.72 0 0 1-1.327 1.292l-.024.024c-.4.4-.342.785-.244 1.078.004.014.01.024.014.039.371.892.889 1.74 1.69 2.749 1.45 1.779 2.967 3.163 4.647 4.225.21.132.424.244.64.347.19.097.37.185.531.287l.054.03c.161.077.312.116.469.116.39 0 .64-.248.722-.331l1.801-1.799c.279-.277.581-.424.874-.424.366 0 .66.224.85.424l2.904 2.9c.576.576.571 1.195-.014 1.804-.205.214-.415.419-.64.638-.337.327-.688.663-1.005 1.043-.552.595-1.211.873-2.065.873-.083 0-.171-.005-.254-.01-1.582-.102-3.051-.716-4.15-1.243-2.992-1.443-5.623-3.5-7.81-6.107z" fill="#101D2D"/><path d="M14.505 2.911a.6.6 0 0 0-.6.6v6.092a.6.6 0 0 0 .6.6h6.102a.6.6 0 1 0 0-1.2H15.95l7.874-7.861a.596.596 0 1 0-.845-.843L15.105 8.16V3.51a.6.6 0 0 0-.6-.599z" fill="#101D2D"/></symbol><symbol viewBox="0 0 7 11" id="datapicker-next"><path fill-rule="evenodd" clip-rule="evenodd" d="M.293.293a1 1 0 0 0 0 1.414L4.086 5.5.293 9.293a1 1 0 0 0 1.414 1.414l4.5-4.5a1 1 0 0 0 0-1.414l-4.5-4.5a1 1 0 0 0-1.414 0z"/></symbol><symbol viewBox="0 0 7 11" id="datapicker-prev"><path fill-rule="evenodd" clip-rule="evenodd" d="M6.207.293a1 1 0 0 1 0 1.414L2.414 5.5l3.793 3.793a1 1 0 0 1-1.414 1.414l-4.5-4.5a1 1 0 0 1 0-1.414l4.5-4.5a1 1 0 0 1 1.414 0z"/></symbol><symbol viewBox="0 0 101 29" id="dorohovdesign"><path d="M37.1 11.4V3.1h3.5c2.6 0 4.4 1.5 4.4 4.2 0 2.5-1.9 4.2-4.4 4.2l-3.5-.1zm5.7-4.2c0-1.3-.8-2.3-2.3-2.3h-1.4v4.5h1.4c1.5.1 2.3-.9 2.3-2.2zm3 0c0-2.5 1.9-4.3 4.4-4.3 2.5 0 4.4 1.7 4.4 4.3 0 2.6-1.9 4.3-4.4 4.3-2.5 0-4.4-1.7-4.4-4.3zm6.7 0c0-1.4-.9-2.4-2.3-2.4s-2.3 1-2.3 2.4c0 1.3.9 2.4 2.3 2.4s2.3-1 2.3-2.4zm8 4.2l-1.4-2.8H58v2.8h-2.1V3.1h4.2c1.8 0 2.8 1.2 2.8 2.8 0 1.5-.9 2.2-1.7 2.5l1.7 3.1h-2.4v-.1zm.3-5.5c0-.6-.4-.9-1-.9h-1.7v1.7h1.7c.5 0 1-.3 1-.8zm3 1.3c0-2.5 1.9-4.3 4.4-4.3 2.5 0 4.4 1.7 4.4 4.3 0 2.6-1.9 4.3-4.4 4.3-2.5 0-4.4-1.7-4.4-4.3zm6.6 0c0-1.4-.9-2.4-2.3-2.4s-2.3 1-2.3 2.4c0 1.3.9 2.4 2.3 2.4s2.3-1 2.3-2.4zm9.1 4.2V8h-3.4v3.4h-2.2V3.1h2.2v3.1h3.4V3.1h2.1v8.3h-2.1zm3.3-4.2c0-2.5 1.9-4.3 4.4-4.3 2.5 0 4.4 1.7 4.4 4.3 0 2.6-1.9 4.3-4.4 4.3-2.5 0-4.4-1.7-4.4-4.3zm6.7 0c0-1.4-.9-2.4-2.3-2.4s-2.3 1-2.3 2.4c0 1.3.9 2.4 2.3 2.4 1.5 0 2.3-1 2.3-2.4zm5.3 4.2l-3.1-8.3h2.4l2 6 2-6h2.4l-3.1 8.3h-2.6zM37.1 25.2v-8.4h3.5c2.6 0 4.5 1.5 4.5 4.2 0 2.6-1.9 4.2-4.5 4.2h-3.5zM43 21c0-1.3-.8-2.3-2.3-2.3h-1.4v4.6h1.4c1.4 0 2.3-1 2.3-2.3zm3.4 4.2v-8.4h6.1v1.9h-3.9V20h3.8v1.8h-3.8v1.4h3.9v1.9h-6.1v.1zm7.1-1.2l1.1-1.6c.6.6 1.5 1.1 2.6 1.1.7 0 1.2-.3 1.2-.7 0-1.1-4.7-.2-4.7-3.5 0-1.4 1.2-2.6 3.3-2.6 1.3 0 2.5.4 3.4 1.2l-1.2 1.5c-.7-.6-1.6-.9-2.4-.9-.6 0-.9.2-.9.6 0 1 4.7.3 4.7 3.4 0 1.7-1.3 2.8-3.5 2.8-1.6 0-2.7-.5-3.6-1.3zm8.4-7.2H64v8.3h-2.1v-8.3zm3.5 4.2c0-2.6 2.1-4.3 4.5-4.3 1.8 0 3 1 3.5 2.1l-1.8 1c-.3-.5-1-1-1.8-1-1.4 0-2.4 1-2.4 2.4s1 2.4 2.4 2.4c.6 0 1.3-.2 1.5-.5v-.7h-1.9v-1.9h4v3.3c-.9 1-2.1 1.6-3.7 1.6-2.3-.1-4.3-1.8-4.3-4.4zm15.4 4.2l-3.5-4.9v4.9h-2.1v-8.4h2.2l3.4 4.6v-4.6h2.1v8.4h-2.1zM11.3 0H0v28.6h11.4c9.6 0 15.7-5.6 15.7-14.3C27.1 5.6 20.9 0 11.3 0zm-.2 22.9H6V6.1h5.1c6 0 10 2.4 10 8.1.1 4.8-3.7 8.7-10 8.7zm1.1-12h-1.3v6.8h1.3c2.6 0 4.1-1.5 4.1-3.5 0-2.3-1.7-3.3-4.1-3.3z"/></symbol><symbol viewBox="0 0 96.124 96.123" id="fb"><path d="M72.089.02L59.624 0C45.62 0 36.57 9.285 36.57 23.656v10.907H24.037a1.96 1.96 0 0 0-1.96 1.961v15.803a1.96 1.96 0 0 0 1.96 1.96H36.57v39.876a1.96 1.96 0 0 0 1.96 1.96h16.352a1.96 1.96 0 0 0 1.96-1.96V54.287h14.654a1.96 1.96 0 0 0 1.96-1.96l.006-15.803a1.963 1.963 0 0 0-1.961-1.961H56.842v-9.246c0-4.444 1.059-6.7 6.848-6.7l8.397-.003a1.96 1.96 0 0 0 1.959-1.96V1.98A1.96 1.96 0 0 0 72.089.02z"/></symbol><symbol viewBox="0 0 58 57" id="icon-calendar"><path d="M22 40a1 1 0 1 0 0-2 1 1 0 0 0 0 2zm7 0a1 1 0 1 0 0-2 1 1 0 0 0 0 2zm7 0a1 1 0 1 0 0-2 1 1 0 0 0 0 2zm7 0a1 1 0 1 0 0-2 1 1 0 0 0 0 2z" fill="#F28E19"/><path d="M42.899 4A5.009 5.009 0 0 0 38 0a1 1 0 1 0 0 2c1.654 0 3 1.346 3 3s-1.346 3-3 3a1 1 0 1 0 0 2 5.01 5.01 0 0 0 4.899-4H56v9H2V6h17a1 1 0 1 0 0-2h-1.816A2.995 2.995 0 0 1 20 2c1.654 0 3 1.346 3 3s-1.346 3-3 3a1 1 0 1 0 0 2c2.757 0 5-2.243 5-5s-2.243-5-5-5a5.01 5.01 0 0 0-4.899 4H0v53h58V4H42.899zM56 55H2V17h54v38z"/><path d="M26 2c1.654 0 3 1.346 3 3s-1.346 3-3 3a1 1 0 1 0 0 2c2.757 0 5-2.243 5-5s-2.243-5-5-5a1 1 0 1 0 0 2z"/><path d="M32 2c1.654 0 3 1.346 3 3s-1.346 3-3 3a1 1 0 1 0 0 2c2.757 0 5-2.243 5-5s-2.243-5-5-5a1 1 0 1 0 0 2zM22 25a1 1 0 1 0 0-2 1 1 0 0 0 0 2zm7 0a1 1 0 1 0 0-2 1 1 0 0 0 0 2zm7 0a1 1 0 1 0 0-2 1 1 0 0 0 0 2zm7 0a1 1 0 1 0 0-2 1 1 0 0 0 0 2zm7 0a1 1 0 1 0 0-2 1 1 0 0 0 0 2zM8 33a1 1 0 1 0 0-2 1 1 0 0 0 0 2zm7 0a1 1 0 1 0 0-2 1 1 0 0 0 0 2zm7 0a1 1 0 1 0 0-2 1 1 0 0 0 0 2zm7 0a1 1 0 1 0 0-2 1 1 0 0 0 0 2zm7 0a1 1 0 1 0 0-2 1 1 0 0 0 0 2zm7 0a1 1 0 1 0 0-2 1 1 0 0 0 0 2zm7 0a1 1 0 1 0 0-2 1 1 0 0 0 0 2zM8 40a1 1 0 1 0 0-2 1 1 0 0 0 0 2zm7 0a1 1 0 1 0 0-2 1 1 0 0 0 0 2zm35 0a1 1 0 1 0 0-2 1 1 0 0 0 0 2zM8 48a1 1 0 1 0 0-2 1 1 0 0 0 0 2zm7 0a1 1 0 1 0 0-2 1 1 0 0 0 0 2zm7 0a1 1 0 1 0 0-2 1 1 0 0 0 0 2zm7 0a1 1 0 1 0 0-2 1 1 0 0 0 0 2zm7 0a1 1 0 1 0 0-2 1 1 0 0 0 0 2z"/></symbol><symbol viewBox="0 0 20 23" id="icon-delete"><path d="M14.014 10.426l.28-4.202h1.036V1.848h-4.865V0h-5.6v1.848H0v4.376h1.036l.99 14.831h6.95A6.435 6.435 0 0 0 13.6 23c3.53 0 6.4-2.823 6.4-6.294 0-3.333-2.65-6.069-5.986-6.28zM6.349 1.46H8.98v.389H6.35v-.39zM1.484 3.307h12.363v1.458H1.484V3.307zm1.93 16.29l-.89-13.374h10.284l-.285 4.278c-3.018.506-5.323 3.095-5.323 6.204a6.17 6.17 0 0 0 .716 2.89h-4.5zM13.6 21.54c-2.71 0-4.917-2.169-4.917-4.835s2.206-4.835 4.917-4.835c2.712 0 4.917 2.17 4.917 4.835 0 2.666-2.205 4.835-4.917 4.835z"/><path d="M15.23 14.072l-1.631 1.603-1.63-1.603-1.05 1.032 1.631 1.602-1.63 1.603 1.049 1.032 1.63-1.603 1.63 1.603 1.05-1.032-1.63-1.603 1.63-1.602-1.05-1.032z"/></symbol><symbol viewBox="0 0 469.331 469.331" id="icon-edit"><path d="M438.931 30.403c-40.4-40.5-106.1-40.5-146.5 0l-268.6 268.5c-2.1 2.1-3.4 4.8-3.8 7.7l-19.9 147.4c-.6 4.2.9 8.4 3.8 11.3 2.5 2.5 6 4 9.5 4 .6 0 1.2 0 1.8-.1l88.8-12c7.4-1 12.6-7.8 11.6-15.2-1-7.4-7.8-12.6-15.2-11.6l-71.2 9.6 13.9-102.8 108.2 108.2c2.5 2.5 6 4 9.5 4s7-1.4 9.5-4l268.6-268.5c19.6-19.6 30.4-45.6 30.4-73.3s-10.8-53.7-30.4-73.2zm-141.3 33l45.1 45.1-245.1 245.1-45.1-45.1 245.1-245.1zm-136.7 353.4l-44.1-44.1 245.1-245.1 44.1 44.1-245.1 245.1zm263.9-264.4l-107.9-107.9c13.7-11.3 30.8-17.5 48.8-17.5 20.5 0 39.7 8 54.2 22.4s22.4 33.7 22.4 54.2c0 18.1-6.2 35.1-17.5 48.8z"/></symbol><symbol viewBox="0 0 19 24" id="icon-lock"><path d="M2.096 22.002H16.9v-10.56H2.1v10.56h-.005zM14.148 6.426c0-2.44-2.086-4.423-4.65-4.423-2.566 0-4.651 1.984-4.651 4.423v3.017h9.301V6.426zM1.046 9.443H2.74V6.426C2.74 2.88 5.774 0 9.497 0c3.724 0 6.758 2.88 6.758 6.426v3.017h1.694c.582 0 1.051.446 1.051 1V23c0 .553-.469.999-1.05.999H1.05C.47 24 0 23.554 0 23V10.443c-.005-.553.469-.999 1.046-.999z"/><path d="M9.496 20.033c-.582 0-1.05-.446-1.05-1v-1.797c0-.554.468-1 1.05-1 .582 0 1.05.446 1.05 1v1.797c0 .549-.468 1-1.05 1z"/></symbol><symbol viewBox="0 0 24 27" id="icon-manager"><path d="M24 23.409V25s-7.314 2-12 2-12-2-12-2v-1.592c0-1.696 1.433-3.783 3.185-4.632l3.896-1.888 2.705 5.75 1.385-3.83c.273.052.544.122.829.122.285 0 .555-.07.829-.122l1.314 3.64 2.652-5.623 4.023 1.95c1.748.85 3.182 2.938 3.182 4.635zM3.54 10.823V8.229c0-.44.224-.825.563-1.047C4.558 3.146 7.924 0 12.002 0c4.077 0 7.444 3.146 7.9 7.182.337.222.562.607.562 1.047v2.594c0 .688-.547 1.247-1.223 1.247a1.235 1.235 0 0 1-1.223-1.247v-.545c-.662 3.395-3.1 6.547-6.016 6.547s-5.353-3.152-6.015-6.547v.545c0 .558-.364 1.026-.861 1.185a7.264 7.264 0 0 0 3.058 4.106c.275-.092.623-.075.96.104.541.287.818.846.613 1.245-.205.399-.809.488-1.353.2-.398-.211-.65-.566-.676-.898a8.077 8.077 0 0 1-3.42-4.787 1.245 1.245 0 0 1-.768-1.155zM4.937 6.89c.036.002.072.003.107.017a.39.39 0 0 1 .197.174c.265.114.477.324.606.585C6.208 4.218 8.822 2.394 12 2.394c3.178 0 5.792 1.824 6.153 5.273.179-.359.52-.615.927-.668C18.55 3.493 15.582.797 12 .797 8.455.798 5.51 3.44 4.937 6.891z"/></symbol><symbol viewBox="0 0 218 219" id="icon-news-weekend"><path fill-rule="evenodd" clip-rule="evenodd" d="M218 0v4.943h-2V0h2zm0 14.83v9.886h-2v-9.887h2zm0 19.772v9.887h-2v-9.887h2zm0 19.773v9.886h-2v-9.886h2zm0 19.773v9.886h-2v-9.886h2zm0 19.772v9.887h-2V93.92h2zm0 19.773v9.887h-2v-9.887h2zm0 19.773v9.886h-2v-9.886h2zm0 19.773v9.886h-2v-9.886h2zm0 19.772v9.887h-2v-9.887h2zm0 19.773v9.886h-2v-9.886h2zm0 19.773v5.943h-5.932v-2H216v-3.943h2zM4.932 218.5H0v-2h4.932v2zm19.727 0h-9.863v-2h9.863v2zm19.727 0h-9.863v-2h9.863v2zm19.728 0H54.25v-2h9.864v2zm19.727 0h-9.864v-2h9.864v2zm19.727 0h-9.864v-2h9.864v2zm19.727 0h-9.863v-2h9.863v2zm19.728 0h-9.864v-2h9.864v2zm19.727 0h-9.864v-2h9.864v2zm19.727 0h-9.863v-2h9.863v2zm19.728 0h-9.864v-2h9.864v2z"/></symbol><symbol viewBox="0 0 16 12" id="icon-ready"><path fill-rule="evenodd" clip-rule="evenodd" d="M15.482.366a1.5 1.5 0 0 1 .152 2.116l-7.8 9a1.5 1.5 0 0 1-2.268 0l-5.2-6a1.5 1.5 0 1 1 2.268-1.964L6.7 8.21 13.367.518a1.5 1.5 0 0 1 2.115-.152z"/></symbol><symbol viewBox="0 0 27 44" id="icon-scroll"><path fill-rule="evenodd" clip-rule="evenodd" d="M13.5 0C8.814 0 5.17 1.423 2.76 4.306.353 7.187 0 10.55 0 12.283v19.435c0 1.732.352 5.095 2.76 7.976C5.17 42.577 8.815 44 13.5 44s8.33-1.423 10.74-4.306C26.648 36.813 27 33.45 27 31.718V12.282c0-1.731-.352-5.095-2.76-7.976C21.83 1.423 18.185 0 13.5 0zM2.36 12.283c0-.813.131-3.212 1.498-5.437 1.298-2.113 3.75-4.133 8.462-4.422v4.094a3.645 3.645 0 0 0-2.402 3.44v3.766a3.645 3.645 0 0 0 2.402 3.44v5.325c0 .65.519 1.193 1.18 1.193.661 0 1.18-.543 1.18-1.193v-5.325a3.645 3.645 0 0 0 2.402-3.44V9.959a3.645 3.645 0 0 0-2.402-3.44V2.423c4.713.29 7.163 2.309 8.462 4.422 1.367 2.225 1.498 4.624 1.498 5.437v19.435c0 .83-.137 3.315-1.586 5.579-1.425 2.225-4.17 4.316-9.554 4.316-5.385 0-8.129-2.091-9.554-4.316-1.45-2.264-1.586-4.749-1.586-5.58V12.284zm9.918-2.324c0-.703.558-1.257 1.222-1.257.664 0 1.222.554 1.222 1.257v3.765c0 .702-.558 1.257-1.222 1.257-.664 0-1.222-.555-1.222-1.257V9.959z"/></symbol><symbol viewBox="0 0 12 12" id="icon-search"><path d="M11.853 11.148L8.968 8.263A5.059 5.059 0 0 0 5.057 0 5.057 5.057 0 1 0 8.26 8.97l2.885 2.883a.5.5 0 0 0 .708-.705zm-6.796-2.04a4.056 4.056 0 0 1-4.053-4.05 4.058 4.058 0 0 1 4.053-4.054A4.06 4.06 0 0 1 9.11 5.057c0 2.234-1.82 4.05-4.053 4.05z"/></symbol><symbol viewBox="0 0 25 27" id="icon-security"><path d="M15.083 24.79c-1.51-1.632-2.243-3.018-2.243-4.236v-.072l.01-.07c.008-.063.096-.692.214-1.507l-1.455-.41-.112-1.357c2.123-1.287 3.176-4.015 2.916-6.64-1.357 1.153-3.44 1.613-5.247 1.613-1.808 0-3.893-.46-5.248-1.613-.27 2.731.87 5.4 2.916 6.64l-.112 1.356-5.535 1.563c-.784.222-1.283.97-1.172 1.757l.547 3.874c.102.725.738 1.266 1.49 1.266h14.227c.303 0 .587-.09.825-.241a24.572 24.572 0 0 1-2.021-1.924z"/><path d="M2.506 7.045l1.312.86c-.26 1.718 2.242 3.152 5.347 3.152 3.11 0 5.608-1.436 5.347-3.153l1.313-.86a.748.748 0 0 0 .318-.82l-.758-2.8a1.313 1.313 0 0 0-.686-.83L9.776.143a1.374 1.374 0 0 0-1.221 0l-4.923 2.45c-.34.168-.59.47-.687.83l-.757 2.8a.748.748 0 0 0 .318.82zm5.069-3.98a.317.317 0 0 1 .317-.266h2.568c.16 0 .296.116.317.271l.189 1.387c0 .694-1.131 1.651-1.6 2.019a.327.327 0 0 1-.401 0c-.47-.368-1.6-1.325-1.6-2.019l.21-1.391zm16.652 12.388c-.173-.924-2.13-1.159-4.766-1.164-2.637.005-4.593.24-4.766 1.164-.238 1.268-.773 5.1-.773 5.1 0 2.165 3.579 5.164 4.983 6.257a.904.904 0 0 0 1.112 0C21.422 25.715 25 22.717 25 20.553c0 0-.535-3.833-.773-5.101zm-1.83 3.6a.438.438 0 0 1-.185-.042l-1.008 1.098.153 1.465c.21.03.37.204.37.416 0 .232-.193.42-.431.42a.426.426 0 0 1-.43-.463l-1.405-.605-1.388.597a.426.426 0 0 1-.428.471.426.426 0 0 1-.432-.42c0-.205.151-.376.351-.413l.153-1.468-1.008-1.098a.438.438 0 0 1-.185.041.426.426 0 0 1-.431-.42c0-.232.193-.42.431-.42.161 0 .302.086.376.213l1.483-.312.758-1.268a.412.412 0 0 1-.112-.281c0-.232.194-.42.432-.42s.431.188.431.42a.412.412 0 0 1-.111.281l.757 1.268 1.484.312a.433.433 0 0 1 .375-.213c.239 0 .432.188.432.42 0 .232-.193.42-.432.42z"/></symbol><symbol viewBox="0 0 48 48" id="icon-services-dostavka"><path d="M47.25 29.245h-18a.75.75 0 0 0-.75.75h-5.056A2.446 2.446 0 0 0 21 32.438v.556c0 .414.336.75.75.75h.123l-.338 4.054a2.438 2.438 0 0 0-1.285 2.138v4.306c0 .414.336.75.75.75h.788a3.355 3.355 0 0 0 6.675 0h.037c0 .414.336.75.75.75h10.677a3.27 3.27 0 0 0 6.179 0h1.144a.75.75 0 0 0 .75-.75V29.995a.75.75 0 0 0-.75-.75zM25.125 46.492a1.875 1.875 0 1 1 0-3.75 1.875 1.875 0 0 1 0 3.75zm3.375-3h-.207a3.37 3.37 0 0 0-3.168-2.25 3.37 3.37 0 0 0-3.168 2.25h-.207v-3.556c0-.52.423-.943.943-.943H28.5v4.5zm0-5.999h-5.434l.312-3.749H28.5v3.75zm0-5.249h-5.98a.946.946 0 0 1 .924-.75H28.5v.75zM44.806 44.65a1.792 1.792 0 1 1-3.583-.001 1.792 1.792 0 0 1 3.584 0v.001zm1.694-.407h-.235a3.272 3.272 0 0 0-6.498 0H30V30.745h16.5v13.497z"/><path d="M7.5 20.246a.75.75 0 0 0 .58-.276C8.79 19.103 15 11.381 15 7.5A7.5 7.5 0 0 0 7.5 0 7.5 7.5 0 0 0 0 7.499C0 11.38 6.21 19.103 6.92 19.97a.75.75 0 0 0 .58.276zM7.5 1.5a6.006 6.006 0 0 1 6 5.999c0 2.572-3.907 8.11-6 10.798-2.093-2.687-6-8.226-6-10.798a6.006 6.006 0 0 1 6-6z" fill="#F28E19"/><path d="M11.625 6.824a4.125 4.125 0 1 0-8.25 0 4.125 4.125 0 0 0 8.25 0zm-6.75 0a2.625 2.625 0 1 1 5.25 0 2.625 2.625 0 0 1-5.25 0z" fill="#F28E19"/><path d="M20.25 23.246a.75.75 0 1 0 0 1.5h1.5a.75.75 0 1 0 0-1.5h-1.5zm4.5 0a.75.75 0 1 0 0 1.5h1.5a.75.75 0 1 0 0-1.5h-1.5zM24 16.497h1.5a.75.75 0 1 0 0-1.5H24a.75.75 0 1 0 0 1.5zm-4.5 0H21a.75.75 0 1 0 0-1.5h-1.5a.75.75 0 1 0 0 1.5zm-3 2.999a.75.75 0 0 0-1.5 0v1.5a.75.75 0 0 0 1.5 0v-1.5zM15 16.497a.75.75 0 0 0 1.5 0 .75.75 0 1 0 0-1.5h-.75a.75.75 0 0 0-.75.75v.75zm27 0h1.5a.75.75 0 1 0 0-1.5H42a.75.75 0 1 0 0 1.5zm-26.25 6.749h-1.5a.75.75 0 1 0 0 1.5h1.5a.75.75 0 1 0 0-1.5zm27 0a.75.75 0 1 0 0 1.5h1.5a.75.75 0 1 0 0-1.5h-1.5zm3-4.499a.75.75 0 0 0 .75-.75v-1.5a.75.75 0 0 0-1.5 0v1.5c0 .414.336.75.75.75zm-7.5 4.499a.75.75 0 1 0 0 1.5h1.5a.75.75 0 1 0 0-1.5h-1.5zm-9.75-6.749H30a.75.75 0 1 0 0-1.5h-1.5a.75.75 0 1 0 0 1.5zm17.25 6.749a.75.75 0 0 0 .75-.75v-1.5a.75.75 0 0 0-1.5 0v1.5c0 .414.336.75.75.75zM33 16.497h1.5a.75.75 0 1 0 0-1.5H33a.75.75 0 1 0 0 1.5zm-3.75 6.749a.75.75 0 1 0 0 1.5h1.5a.75.75 0 1 0 0-1.5h-1.5zm4.5 0a.75.75 0 1 0 0 1.5h1.5a.75.75 0 1 0 0-1.5h-1.5zm3.75-6.749H39a.75.75 0 1 0 0-1.5h-1.5a.75.75 0 1 0 0 1.5zM.75 32.244a.75.75 0 0 0 1.5 0v-1.5a.75.75 0 0 0-1.5 0v1.5zm9 10.498a.75.75 0 0 0-1.5 0v.75c0 .414.336.75.75.75h.75a.75.75 0 1 0 0-1.5zm4.5 0h-1.5a.75.75 0 1 0 0 1.5h1.5a.75.75 0 1 0 0-1.5zm.75-3.749h-1.5a.75.75 0 1 0 0 1.5H15a.75.75 0 1 0 0-1.5zm-4.5 0H9a.75.75 0 1 0 0 1.5h1.5a.75.75 0 1 0 0-1.5zm4.5-4.499a.75.75 0 0 0-.75.75v1.5a.75.75 0 0 0 1.5 0v-1.5a.75.75 0 0 0-.75-.75zm5.25-8.249a.75.75 0 0 0-1.5 0v1.5a.75.75 0 0 0 1.5 0v-1.5zm-1.5 16.497h-1.5a.75.75 0 1 0 0 1.5h1.5a.75.75 0 1 0 0-1.5zM18 28.495a.75.75 0 0 0-.75-.75h-1.5a.75.75 0 1 0 0 1.5h1.5a.75.75 0 0 0 .75-.75zM7.5 34.494H6a.75.75 0 1 0 0 1.5h1.5a.75.75 0 1 0 0-1.5zm6-5.999a.75.75 0 0 0-.75-.75h-1.5a.75.75 0 1 0 0 1.5h1.5a.75.75 0 0 0 .75-.75zm-3 7.499H12a.75.75 0 1 0 0-1.5h-1.5a.75.75 0 1 0 0 1.5zM6 28.495c0 .414.336.75.75.75h1.5a.75.75 0 1 0 0-1.5h-1.5a.75.75 0 0 0-.75.75zm6-4.5a.75.75 0 0 0-.75-.75h-1.5a.75.75 0 1 0 0 1.5h1.5a.75.75 0 0 0 .75-.75zm-3.75-.749v-1.5a.75.75 0 0 0-1.5 0v1.5a.75.75 0 0 0 1.5 0zm-4.5 4.499h-1.5a.75.75 0 1 0 0 1.5h1.5a.75.75 0 1 0 0-1.5zM3 34.494H1.5a.75.75 0 1 0 0 1.5H3a.75.75 0 1 0 0-1.5z"/></symbol><symbol viewBox="0 0 48 48" id="icon-services-hranenie"><path d="M31.56 29.222h-9.01V21.07c0-.436-.29-.728-.726-.728s-.727.292-.727.728v12.737l-.145-.073-4.723-8.66c-.581-1.383-1.89-2.257-3.342-2.257H3.223c-.436 0-.726.291-.726.728v6.696c-1.454.291-2.47 1.601-2.47 3.13v10.335c0 .436.29.728.726.728h1.816C2.715 46.399 4.386 48 6.493 48c2.034 0 3.705-1.601 3.923-3.566h2.543C13.177 46.472 14.85 48 16.883 48s3.706-1.601 3.924-3.566h1.017a.729.729 0 0 0 .726-.728V30.678h9.01c.436 0 .727-.291.727-.728s-.29-.728-.727-.728zM3.95 24.2h8.937v.146c.872 0 1.67.51 2.034 1.382 0 0 0 .073.073.073l3.633 6.696-.073-.073c-.363-.145-.799-.145-1.09.073-.363.219-.508.582-.508.946v1.674h-5.74v-3.566c0-.8-.654-1.456-1.453-1.456H3.95V24.2zm2.543 22.344a2.452 2.452 0 0 1-2.47-2.474 2.452 2.452 0 0 1 2.47-2.475c1.38 0 2.47 1.092 2.47 2.475 0 1.382-1.162 2.474-2.47 2.474zm10.39 0a2.452 2.452 0 0 1-2.47-2.474 2.452 2.452 0 0 1 2.47-2.475c1.38 0 2.47 1.092 2.47 2.475a2.452 2.452 0 0 1-2.47 2.474zm4.214-3.566h-.508c-.509-1.674-1.962-2.839-3.779-2.839-1.816 0-3.342 1.238-3.778 2.839h-2.834c-.508-1.674-1.961-2.839-3.778-2.839-1.816 0-3.342 1.238-3.778 2.839H1.48v-3.785h19.618v3.785zm.073-5.24H1.48v-4.295c0-1.019.799-1.82 1.743-1.82H9.69v4.295c0 .437.29.728.726.728h7.194c.436 0 .726-.291.726-.728v-1.892l2.834 1.528v2.183z"/><path d="M47.69 15.976L24.44.109a.786.786 0 0 0-.8 0L.317 15.976c-.29.145-.363.51-.29.8.072.291.363.51.726.51h.436v4.148c0 .437.29.728.726.728s.727-.29.727-.728v-4.148h42.724v29.258h-22.67c-.436 0-.727.291-.727.728s.29.728.727.728h23.396c.436 0 .727-.291.727-.728V17.286h.435c.291 0 .582-.219.727-.51.073-.29-.073-.655-.29-.8zM3.078 15.83L24.004 1.565 44.929 15.83H3.078z"/><path d="M32.36 35.773h-7.557c-.436 0-.727.29-.727.727v7.57c0 .436.29.728.727.728h7.556c.436 0 .727-.292.727-.728V36.5a.729.729 0 0 0-.727-.727zm-.727 7.569h-6.104v-6.114h6.104v6.114zm11.335-7.569H35.41c-.436 0-.727.29-.727.727v7.57c0 .436.291.728.727.728h7.557c.436 0 .726-.292.726-.728V36.5c0-.436-.29-.727-.726-.727zm-.727 7.569h-6.103v-6.114h6.103v6.114zm.727-18.196H35.41c-.436 0-.727.292-.727.728v7.57c0 .364.291.727.727.727h7.557c.436 0 .726-.29.726-.727v-7.57c0-.436-.29-.728-.726-.728zm-.727 7.57h-6.103v-6.114h6.103v6.114zM32.36 19.251h-7.557c-.436 0-.727.291-.727.728v7.57c0 .436.29.727.727.727h7.556c.436 0 .727-.291.727-.728v-7.57c0-.436-.29-.727-.727-.727zm-.727 7.497h-6.104v-6.114h6.104v6.114z" fill="#F28E19"/><path d="M24.149 5.204c-2.47 0-4.505 2.038-4.505 4.512 0 2.475 2.035 4.513 4.505 4.513 2.47 0 4.505-2.038 4.505-4.513 0-2.474-2.035-4.512-4.505-4.512zm0 7.57c-1.671 0-3.052-1.383-3.052-3.058 0-1.673 1.38-3.056 3.052-3.056 1.671 0 3.052 1.382 3.052 3.056 0 1.675-1.38 3.057-3.052 3.057z"/></symbol><symbol viewBox="0 0 50 48" id="icon-services-komplektaciya"><path d="M46.094 35.071v-8.748a.778.778 0 0 0-.782-.775h-9.374a.778.778 0 0 0-.782.775v8.516h-.781v-8.516a.778.778 0 0 0-.781-.775h-9.375a.778.778 0 0 0-.782.775v8.516h-.78V8.516h17.187v3.871h-3.907a.778.778 0 0 0-.78.774v4.646c0 .427.35.774.78.774a.778.778 0 0 0 .782-.774v-3.871h7.812v3.87c0 .428.35.775.782.775a.778.778 0 0 0 .78-.774V13.16a.778.778 0 0 0-.78-.774h-3.907v-3.87h1.563a.778.778 0 0 0 .781-.775V4.645a.778.778 0 0 0-.781-.774H22.656V.774A.778.778 0 0 0 21.875 0H3.906C1.75.003.003 1.734 0 3.871v43.355c0 .427.35.774.781.774h43.75c3.019-.004 5.465-2.428 5.469-5.42v-2.322a5.434 5.434 0 0 0-3.906-5.187zM22.656 5.419h19.532v1.549H22.655V5.419zm-1.562 41.033H1.562V3.87a2.333 2.333 0 0 1 2.344-2.323h17.188v44.904zm15.625-19.355h7.812v7.742H36.72v-7.742zm-11.719 0h7.813v7.742H25v-7.742zM48.438 42.58c-.003 2.136-1.75 3.868-3.907 3.87H22.656V36.388h21.875c2.157.003 3.904 1.734 3.907 3.871v2.323z"/><path d="M40.234 37.161c-2.373 0-4.296 1.907-4.296 4.258 0 2.352 1.923 4.258 4.296 4.258 2.374 0 4.297-1.906 4.297-4.258-.003-2.35-1.925-4.255-4.297-4.258zm0 6.968c-1.51 0-2.734-1.213-2.734-2.71 0-1.496 1.224-2.71 2.734-2.71s2.735 1.214 2.735 2.71c0 1.497-1.224 2.71-2.735 2.71zm-10.937-6.968c-2.373 0-4.297 1.907-4.297 4.258 0 2.352 1.924 4.258 4.297 4.258 2.373 0 4.297-1.906 4.297-4.258-.003-2.35-1.925-4.255-4.297-4.258zm0 6.968c-1.51 0-2.734-1.213-2.734-2.71 0-1.496 1.224-2.71 2.734-2.71s2.734 1.214 2.734 2.71c0 1.497-1.224 2.71-2.734 2.71z" fill="#F28E19"/><path d="M2.344 10.064v16.259c0 .427.35.774.781.774h16.406a.778.778 0 0 0 .782-.774V10.064a.778.778 0 0 0-.782-.774H3.125a.778.778 0 0 0-.781.774zm1.562.775H18.75v14.71H3.906v-14.71z"/><path d="M17.188 12.387H5.467a.778.778 0 0 0-.78.774c0 .428.35.775.78.775h11.72a.778.778 0 0 0 .78-.775.778.778 0 0 0-.78-.774zm0 10.065H5.467a.778.778 0 0 0-.78.774c0 .427.35.774.78.774h11.72a.778.778 0 0 0 .78-.774.778.778 0 0 0-.78-.774z"/><path d="M7.813 28.645a2.333 2.333 0 0 0-2.344 2.323 2.333 2.333 0 0 0 2.343 2.322 2.333 2.333 0 0 0 2.344-2.322 2.333 2.333 0 0 0-2.344-2.323zm0 3.097a.778.778 0 0 1-.782-.774c0-.428.35-.775.782-.775.431 0 .78.347.78.775 0 .427-.35.774-.78.774zm6.25-3.097a2.333 2.333 0 0 0-2.344 2.323 2.333 2.333 0 0 0 2.344 2.322 2.333 2.333 0 0 0 2.343-2.322 2.333 2.333 0 0 0-2.343-2.323zm0 3.097a.778.778 0 0 1-.782-.774c0-.428.35-.775.782-.775.431 0 .78.347.78.775a.777.777 0 0 1-.78.774z" fill="#F28E19"/></symbol><symbol viewBox="0 0 49 48" id="icon-services-ofis"><path d="M40.833 22.78H27.767a3.26 3.26 0 0 0-3.267 3.254 3.26 3.26 0 0 0 3.267 3.254h13.066a3.26 3.26 0 0 0 3.267-3.254 3.26 3.26 0 0 0-3.267-3.254zm1.155 4.404a1.649 1.649 0 0 1-1.155.477H27.767a1.649 1.649 0 0 1-1.155-.477 1.623 1.623 0 0 1 0-2.3 1.649 1.649 0 0 1 1.155-.477h13.066c.433.001.848.172 1.155.477a1.623 1.623 0 0 1 0 2.3zm4.562-4.404a.815.815 0 0 0-.817.813v23.593c0 .45.366.814.817.814a.815.815 0 0 0 .817-.814V23.593a.815.815 0 0 0-.817-.813zm-29.4 0H2.45a.815.815 0 0 0-.817.813V43.12c0 .449.366.813.817.813v3.254c0 .45.366.814.817.814a.815.815 0 0 0 .816-.814v-3.254H17.15a.815.815 0 0 0 .817-.813V23.593a.815.815 0 0 0-.817-.813zm-.817 19.525H3.267v-4.881h13.066v4.881zm0-6.508H3.267v-4.882h13.066v4.882zm0-6.509H3.267v-4.881h13.066v4.881z"/><path d="M8.983 0h-4.9a.815.815 0 0 0-.816.814v16.27c0 .45.365.814.816.814h4.9a.815.815 0 0 0 .817-.813V.814A.815.815 0 0 0 8.983 0zm-.816 16.271H4.9v-1.627h3.267v1.627zm0-3.254H4.9V11.39h3.267v1.627zm0-3.254H4.9V1.627h3.267v8.136zM17.15 0h-4.9a.815.815 0 0 0-.817.814v16.27c0 .45.366.814.817.814h4.9a.815.815 0 0 0 .817-.813V.814A.815.815 0 0 0 17.15 0zm-.817 16.271h-3.266v-1.627h3.266v1.627zm0-3.254h-3.266V11.39h3.266v1.627zm0-3.254h-3.266V1.627h3.266v8.136z" fill="#F28E19"/><path d="M48.183 19.525h-6.629l-.494-3.933a2.95 2.95 0 0 0-2.927-2.575h-3.016V11.39h1.622a2.945 2.945 0 0 0 2.92-3.357L39.456 6.6a2.972 2.972 0 0 0-2.931-2.532h-4.448a2.972 2.972 0 0 0-2.93 2.532l-.206 1.433a2.941 2.941 0 0 0 2.921 3.357h1.622v1.627h-3.016a2.95 2.95 0 0 0-2.927 2.575l-.494 3.933H.816A.815.815 0 0 0 0 20.34c0 .45.366.814.817.814h47.366A.815.815 0 0 0 49 20.34a.815.815 0 0 0-.817-.814zM31.861 9.763a1.317 1.317 0 0 1-1.306-1.5l.205-1.432a1.335 1.335 0 0 1 1.315-1.14h4.447c.66.005 1.22.489 1.315 1.14l.205 1.432a1.316 1.316 0 0 1-1.303 1.5H31.86zm-3.17 9.762l.469-3.731a1.318 1.318 0 0 1 1.307-1.15h7.666a1.318 1.318 0 0 1 1.306 1.15l.47 3.731H28.691zm14.374 22.789a1.63 1.63 0 0 0-.598-.595v-.002a3.51 3.51 0 0 0-3.512-3.48h-3.838V31.73a.815.815 0 0 0-.817-.814.815.815 0 0 0-.817.814v6.508h-3.838a3.51 3.51 0 0 0-3.512 3.48 1.624 1.624 0 0 0-.597 2.223 1.637 1.637 0 0 0 2.23.595 1.624 1.624 0 0 0 0-2.818 1.875 1.875 0 0 1 1.879-1.853h3.838v1.854a1.624 1.624 0 0 0-.597 2.222 1.637 1.637 0 0 0 2.23.596 1.624 1.624 0 0 0 0-2.818v-1.854h3.839c1.03 0 1.869.828 1.878 1.855a1.624 1.624 0 0 0-.598 2.222 1.637 1.637 0 0 0 2.232.596 1.624 1.624 0 0 0 .597-2.223z"/></symbol><symbol viewBox="0 0 43 48" id="icon-services-price"><path d="M34.467 39.252a.762.762 0 0 0 .289-.597V3.83a.77.77 0 0 0-.773-.766H11.62A4.383 4.383 0 0 0 7.435 0 4.4 4.4 0 0 0 3.25 3.064H.773A.77.77 0 0 0 0 3.83v43.404A.77.77 0 0 0 .773 48h24.546c.25 0 .467-.111.609-.285l8.54-8.463zM26.1 45.378v-5.957h6.01l-6.01 5.957zM7.435 1.532a2.84 2.84 0 0 1 2.523 1.532H4.912a2.853 2.853 0 0 1 2.523-1.532zm-5.89 3.064h8.724v5.361c0 .704-.578 1.277-1.288 1.277-.71 0-1.288-.573-1.288-1.277V6.894a.77.77 0 0 0-.773-.766.77.77 0 0 0-.773.766v3.063c0 1.549 1.271 2.809 2.834 2.809 1.563 0 2.834-1.26 2.834-2.809V4.596H33.21v33.293h-7.884a.77.77 0 0 0-.773.766v7.813H1.546V4.596z"/><path d="M27.8 35.285a.77.77 0 0 0 .772-.766.77.77 0 0 0-.773-.766H6.956a.77.77 0 0 0-.773.766.77.77 0 0 0 .773.766H27.8zM6.956 30.69H27.8a.77.77 0 0 0 .773-.767.77.77 0 0 0-.773-.766H6.956a.77.77 0 0 0-.773.766.77.77 0 0 0 .773.766zm0-4.596H27.8a.77.77 0 0 0 .773-.766.77.77 0 0 0-.773-.766H6.956a.77.77 0 0 0-.773.766.77.77 0 0 0 .773.766zm0-4.596H27.8a.77.77 0 0 0 .773-.766.77.77 0 0 0-.773-.766H6.956a.77.77 0 0 0-.773.766.77.77 0 0 0 .773.766zm0-4.596H27.8a.77.77 0 0 0 .773-.766.77.77 0 0 0-.773-.766H6.956a.77.77 0 0 0-.773.766.77.77 0 0 0 .773.766z" fill="#F28E19"/><path d="M38.105 3.064h-1.03a.77.77 0 0 0-.774.766.77.77 0 0 0 .773.766h.258v41.872H29.08a.77.77 0 0 0-.773.766.77.77 0 0 0 .773.766h9.025a.77.77 0 0 0 .773-.766V3.83a.77.77 0 0 0-.773-.766zm4.122 0h-1.03a.77.77 0 0 0-.773.766.77.77 0 0 0 .773.766h.257v41.872h-.257a.77.77 0 0 0-.773.766.77.77 0 0 0 .773.766h1.03a.77.77 0 0 0 .773-.766V3.83a.77.77 0 0 0-.773-.766z"/></symbol><symbol viewBox="0 0 48 48" id="icon-services-sklad"><path d="M19.99 21.973h-4.346a.758.758 0 1 0 0 1.516h4.346a.758.758 0 1 0 0-1.516zm18.41 23.04h4.345a.758.758 0 1 0 0-1.516H38.4a.758.758 0 1 0 0 1.516zM14.248 7.422h4.346a.758.758 0 1 0 0-1.516h-4.346a.758.758 0 1 0 0 1.516zM19.99 24.5h-4.346a.758.758 0 1 0 0 1.515h4.346a.758.758 0 1 0 0-1.515zm-4.346 17.583h4.346a.758.758 0 1 0 0-1.516h-4.346a.758.758 0 1 0 0 1.516zm0 2.526h4.346a.758.758 0 1 0 0-1.516h-4.346a.758.758 0 1 0 0 1.516z" fill="#F28E19"/><path d="M46.668 37.592h-5.3v-8.034a.758.758 0 1 0-1.516 0v8.034h-5.867c-.734 0-1.332.597-1.332 1.332v7.56h-8.61a.12.12 0 0 1-.12-.12V18.616a.12.12 0 0 1 .12-.12h4.46v8.64a.758.758 0 0 0 1.227.594l2.158-1.705 2.157 1.705a.757.757 0 0 0 1.228-.594v-8.64h4.459a.12.12 0 0 1 .12.12v8.416a.758.758 0 1 0 1.516 0v-8.416c0-.902-.734-1.636-1.636-1.636H24.044c-.04 0-.08.003-.12.006v-6.123c0-.36-.1-.697-.269-.988.168-.223.268-.499.268-.799V1.332A1.332 1.332 0 0 0 22.593 0H9.908c-.734 0-1.332.597-1.332 1.332v7.56H1.971A1.973 1.973 0 0 0 0 10.862v16.371c0 .458.158.878.42 1.213-.262.335-.42.755-.42 1.213v16.37C0 47.116.884 48 1.97 48h15.327a.758.758 0 1 0 0-1.515H1.97a.455.455 0 0 1-.455-.455V29.66c0-.251.204-.455.455-.455h6.605v8.64a.758.758 0 0 0 1.228.595l2.158-1.706 2.157 1.706a.758.758 0 0 0 1.228-.595v-8.64h6.606c.25 0 .455.204.455.455v16.37a.455.455 0 0 1-.455.455H19.89a.758.758 0 1 0 0 1.516h2.062a1.96 1.96 0 0 0 1.1-.337c.276.21.618.337.99.337h22.625c.735 0 1.332-.597 1.332-1.332v-7.744c0-.735-.597-1.332-1.332-1.332zm-16.65-19.097h3.74v7.075l-1.4-1.106a.757.757 0 0 0-.94 0l-1.4 1.107v-7.076zm-19.926-8.087h3.74v7.075l-1.4-1.106a.756.756 0 0 0-.94 0l-1.4 1.106v-7.075zm3.74 25.87l-1.4-1.105a.756.756 0 0 0-.94 0l-1.4 1.106v-7.075h3.74v7.075zm8.575-17.662v8.617a.455.455 0 0 1-.454.455H1.97a.455.455 0 0 1-.455-.455v-16.37c0-.251.204-.455.455-.455h6.605v8.64a.758.758 0 0 0 1.228.595l2.158-1.706 2.157 1.705a.758.758 0 0 0 1.228-.594v-8.64h6.606c.25 0 .455.204.455.455v7.753zm0-9.724H10.092v-4.25h12.315v4.25zm0-5.765H10.092V1.516h12.315v1.61zm24.077 43.357H34.17v-4.249h12.315v4.25zm0-5.765H34.17v-1.611h12.315v1.611z"/></symbol><symbol viewBox="0 0 502 503" id="icon-setting"><path d="M206.33 159.763c-51.586 26.285-72.17 89.638-45.886 141.225 26.284 51.587 89.638 72.171 141.224 45.887 51.587-26.285 72.172-89.638 45.887-141.225-26.285-51.587-89.638-72.17-141.225-45.887zm81.72 160.381c-36.849 18.775-82.1 4.072-100.876-32.776-18.775-36.847-4.07-82.1 32.776-100.875 36.848-18.774 82.1-4.07 100.875 32.777 18.775 36.847 4.071 82.1-32.776 100.874z"/><path d="M451.691 102.573l-58.829 13.781a193.672 193.672 0 0 0-26.715-22.581l3.673-53.02a15 15 0 0 0-10.329-15.302L302.428 6.91a15 15 0 0 0-17.35 6.309c-.236.375-19.04 30.426-28.235 45.087a194.038 194.038 0 0 0-34.657 2.582c-12.107-14.007-39.52-45.729-39.52-45.729a15 15 0 0 0-18.158-3.557l-53.46 27.24a15 15 0 0 0-7.796 16.782c3.932 16.806 10.507 44.903 13.765 58.844a193.766 193.766 0 0 0-23.72 28.34l-28.933-2.005-26.132-1.81A15.002 15.002 0 0 0 22.93 149.32L4.387 206.385a15 15 0 0 0 6.309 17.351c.33.208 29.304 18.34 48.266 30.254.029 10.434.9 20.85 2.6 31.132C46 298.636 16.2 324.34 15.851 324.642a14.999 14.999 0 0 0-3.569 18.168l27.24 53.461a14.999 14.999 0 0 0 16.797 7.791c.444-.104 38.47-9.039 58.844-13.78a192.403 192.403 0 0 0 27.174 22.943l-3.518 50.793a15 15 0 0 0 10.33 15.303l57.063 18.541a15 15 0 0 0 17.351-6.308c.228-.366 18.226-29.128 27.071-43.229 11.802.212 23.59-.649 35.216-2.577l39.476 45.722a14.996 14.996 0 0 0 18.165 3.566l53.46-27.239a15.003 15.003 0 0 0 7.795-16.787l-13.78-58.824a190.95 190.95 0 0 0 23.217-27.686l51.707 3.583a14.998 14.998 0 0 0 15.302-10.329l18.541-57.064a15.001 15.001 0 0 0-6.309-17.35l-44.418-27.796a192.913 192.913 0 0 0-2.579-34.05 77295.407 77295.407 0 0 1 45.727-39.502 15.002 15.002 0 0 0 3.563-18.165l-27.24-53.46a14.999 14.999 0 0 0-16.786-7.794zm11.956 64.396c-13.499 11.656-37.974 32.793-42.636 36.852l-.879.766a15 15 0 0 0-4.715 14.358 162.916 162.916 0 0 1 3.313 43.82 15.004 15.004 0 0 0 7.013 13.612l41.84 26.181-11.303 34.785-48.795-3.38a14.998 14.998 0 0 0-13.796 7.068c-8.003 12.928-17.848 24.685-29.262 34.948a14.997 14.997 0 0 0-4.646 14.26c.661 3.121 1.414 6.396 1.427 6.453l11.646 49.713-32.503 16.561-29.629-34.333-7.894-9.068a14.997 14.997 0 0 0-14.449-4.82 163.962 163.962 0 0 1-44.852 3.271 15 15 0 0 0-13.627 6.923c-2.012 3.167-16.878 26.908-25.557 40.775l-34.788-11.304 3.312-47.819a14.998 14.998 0 0 0-6.969-13.727c-12.866-8.106-24.485-17.91-34.53-29.144a14.999 14.999 0 0 0-14.545-4.619c-10.785 2.483-39.686 9.26-55.913 13.068l-16.56-32.498c12.738-10.997 35.49-30.652 43.426-37.599a15.002 15.002 0 0 0 4.789-14.416 163.97 163.97 0 0 1-3.455-41.209 14.997 14.997 0 0 0-6.992-13.332c-11.983-7.549-33.135-20.8-45.582-28.595l11.303-34.789 14.45 1.001c17.414 1.207 37.205 2.578 37.74 2.614a14.996 14.996 0 0 0 13.763-7.068 163.964 163.964 0 0 1 29.82-35.655 14.997 14.997 0 0 0 4.595-14.504c-.257-1.127-8.63-36.92-13.067-55.884l32.513-16.566c13.44 15.551 37.247 43.1 37.525 43.418a15 15 0 0 0 14.444 4.812 164.052 164.052 0 0 1 44.388-3.304 14.999 14.999 0 0 0 13.602-6.954c2.615-4.136 17.882-28.52 26.682-42.582l34.787 11.303-3.466 50.016a15.002 15.002 0 0 0 6.938 13.712 163.523 163.523 0 0 1 34.1 28.8 15 15 0 0 0 14.232 4.648c3.14-.658 6.43-1.417 6.486-1.429l49.713-11.646 16.562 32.506z"/></symbol><symbol viewBox="0 0 22 27" id="icon-user"><path d="M19.848 17.7c-2.754-.728-4.987-2.36-4.987-2.36l-1.748 5.729-.331 1.078-.007-.014-.283.91-.918-2.71c2.26-3.277-.459-3.242-.607-3.235-.155-.007-2.875-.035-.608 3.235l-.917 2.71-.284-.91-.007.014-.33-1.078-1.748-5.728s-2.234 1.631-4.987 2.36C.034 18.24-.067 20.697.02 21.916c-.007 0 .115 1.652.236 2.374 0 0 4.002 2.702 10.71 2.702 6.707 0 10.71-2.702 10.71-2.702.12-.729.236-2.374.236-2.374.08-1.219-.014-3.676-2.066-4.215z"/><path d="M16.081 7.639c.088-.252.149-.505.196-.757.762-4.761-1.498-4.929-1.498-4.929s-.378-.75-1.363-1.316c-.662-.407-1.58-.722-2.794-.617a4.145 4.145 0 0 0-1.114.217A4.84 4.84 0 0 0 8.28.89a6.91 6.91 0 0 0-1.262 1.078c-.6.637-1.133 1.456-1.363 2.479-.196.763-.148 1.561.014 2.422.047.252.108.505.195.757-.452-.042-.985.23-.479 2.065.358 1.359.695 1.737.958 1.758.237 1.603 1.424 3.634 3.381 4.348.803.294 1.68.294 2.484-.007 1.923-.721 3.151-2.745 3.387-4.341.257-.021.601-.4.965-1.744.5-1.841-.033-2.114-.479-2.065z"/></symbol><symbol viewBox="0 0 97.395 97.395" id="inst"><path d="M12.501 0h72.393c6.875 0 12.5 5.09 12.5 12.5v72.395c0 7.41-5.625 12.5-12.5 12.5H12.501C5.624 97.395 0 92.305 0 84.895V12.5C0 5.09 5.624 0 12.501 0zm58.447 10.821a4.395 4.395 0 0 0-4.383 4.385v10.495a4.396 4.396 0 0 0 4.383 4.385h11.008a4.398 4.398 0 0 0 4.385-4.385V15.206a4.397 4.397 0 0 0-4.385-4.385H70.948zm15.439 30.367h-8.572a28.486 28.486 0 0 1 1.25 8.355c0 16.2-13.556 29.332-30.275 29.332-16.718 0-30.272-13.132-30.272-29.332 0-2.904.438-5.708 1.25-8.355h-8.945v41.141a3.884 3.884 0 0 0 3.872 3.872h67.822a3.883 3.883 0 0 0 3.872-3.872V41.188h-.002zM48.789 29.533c-10.802 0-19.56 8.485-19.56 18.953s8.758 18.953 19.56 18.953c10.803 0 19.562-8.485 19.562-18.953s-8.758-18.953-19.562-18.953z"/></symbol><symbol viewBox="0 0 231 40" id="logotip"><path fill="#6E7A9C" d="M0 0h34.447v39.938H0z"/><path d="M3.546 20.48c0-16.384 20.77-19.456 30.901-18.944v1.536c-8.443-.17-25.329 1.024-25.329 17.409 0 9.728 16.886 16.555 25.33 17.408-10.132.683-30.902-5.12-30.902-17.408z" fill="#F2F2F2"/><path fill-rule="evenodd" clip-rule="evenodd" d="M8.716 15.462s1.706 2.928 2.2 3.5c1.952 2.264 5.017 2.81 5.017 2.81-.165 1.168-.178 3.946 1.087 5.708.495.902.396 3.706 0 4.207-.316.4.857 1.636 1.483 2.203l.791-.5.395-.802 1.582 2.104 1.286.5c-.692-.968-2.057-2.964-1.978-3.205.03-.09.12-.143.236-.212.273-.162.684-.406.753-1.39.05-.719.413-.78.795-.844.362-.06.741-.124.886-.759.192-.845.469-1.269.72-1.654a4.03 4.03 0 0 0 .367-.65c.237-.56-.824-2.036-1.384-2.703.528.2 1.76.6 2.472.6-.198.902.395 9.415 1.384 11.92.316.56.593.233.692 0-.66-2.037-1.66-7.172-.395-11.419.711.16 1.944.067 2.471 0 .132.768.317 2.464 0 3.105l-.142.283c-.338.662-.601 1.18-.253 1.62.195.248.1.617.003 1-.1.393-.204.8-.003 1.103.395.601 1.087 1.202 2.076.601.152-.092.302-.178.448-.26.8-.457 1.476-.842 1.727-1.943.237-1.042.824-.768 1.087-.5v-9.916c-.428-.568-1.522-1.703-2.471-1.703-.447 0-.445-.128-.443-.271.002-.237.006-.517-2.029-.33-.79 0-1.384-1.602-.692-1.402.068.02.138.041.21.064.657.203 1.45.448 2.163-.365.79-.901 2.274-.901 2.768.701 0 .32.33.802.494 1.002v-5.509c-.362.668-1.087 1.723-1.087.601 0-1.121.395-1.736.593-1.903l.494-.7V8.45c-.395.1-1.226.48-1.384 1.201-.1.457-.58.631-.928.757-.338.122-.55.198-.16.445.153.097.313.186.464.27.635.354 1.126.628.328 1.032-.465.236-.907.25-1.256.261-.394.013-.67.022-.722.34-.079.481-.692 1.202-.988 1.503.725-1.937 2.175-6.07 2.175-7.111 0-.561 1.648-.969 2.471-1.102-.494-.334-1.285-1.062-.494-1.302.396-.08.494-.434.494-.601l-.494-1.502-5.932.471.099 1.331c.23.067.554.34 0 .902-.692.7-.296 2.704 0 3.505.237.641-.626 3.673-1.087 5.108-1.319-.3-4.074-1.081-4.548-1.803-.475-.72.659-.3 1.285 0v-.6c.527.233 1.582.56 1.582 0 0-.702.296-2.705.988-2.705.693 0 .99-.901.693-1.302-.238-.32-.956-.868-1.286-1.102 0 0 1.165-.97 1.61-1.636.402-.6.56-1.603.56-1.603l-.143-.073c-.01-.033-.044-.022-.044-.022l.044.022c.02.065-.053.299-.643 1.109-.53.728-1.62 1.296-2.435 1.722-.561.293-.993.519-1.025.682-.03.155-.07.07-.16-.12-.203-.426-.656-1.383-1.817-1.383-1.345 0-1.22-.267-.989-.4l-6.624 2.003c.033.634.178 1.923.494 2.003.317.08-.197.5-.494.701-.692.2-1.918 1.142-1.285 3.305v2.404c.099-.4.336-1.142.494-.901.098.149.075.445.05.755-.025.316-.05.645.049.847.158.32 1.516 1.87 2.175 2.604-1.878-1.402-5.596-4.827-5.438-7.311.159-2.484-1.384.434-2.175 2.203l.693 2.104zm16.807 6.81c-1.286-.434-3.955-1.282-4.35-1.202-.495.1-1.681-1.602-1.582-1.903.027-.083.116-.456.244-.988l.014-.06v-.003c.331-1.387.902-3.778 1.324-5.058 1.35.534 4.389 1.622 5.734 1.702-.1.702-.791 5.008-.99 5.209a1.037 1.037 0 0 1-.228.153c-.236.133-.507.285-.364.648.158.4.198 1.168.198 1.502zm-10.283-6.21c-.032-.6.277-1.782 1.78-1.702 1.503.08.494 3.171-.197 4.707-.066-.367-.159-1.142 0-1.302.197-.2-.1-.4-.297-.4-.198 0-.099-.601.297-.802.395-.2.296-1.402-1.583-.5z" fill="#F2F2F2"/><path d="M47.953 7.5v22.904h-2.839V7.5H38.5V4.292h16.366V7.5h-6.913zm21.902 13.689H58.897c0 2.234.487 3.95 1.462 5.15.861 1.046 1.968 1.57 3.321 1.57 1.543 0 2.83-.565 3.861-1.694l1.136 2.442c-.417.523-1.055.974-1.917 1.354-1.078.5-2.28.75-3.605.75-1.911 0-3.534-.815-4.868-2.443-1.486-1.794-2.229-4.206-2.229-7.236 0-3.149.762-5.674 2.285-7.575 1.363-1.7 2.976-2.549 4.84-2.549 2.167 0 3.866.767 5.096 2.3 1.193 1.473 1.789 3.427 1.789 5.863 0 .749-.071 1.438-.213 2.068zm-6.544-7.38c-1.201 0-2.21.488-3.023 1.462-.776.927-1.216 2.08-1.32 3.458h8.417c0-1.366-.34-2.507-1.022-3.422-.748-.998-1.765-1.497-3.052-1.497zm17.871.767c-.587-.51-1.178-.766-1.775-.766-.955 0-1.793.552-2.512 1.658-.71 1.105-1.065 2.435-1.065 3.992v10.944h-2.697v-19.09h2.697v3.048c.985-2.269 2.447-3.404 4.386-3.404.483 0 1.178.107 2.087.321l-1.121 3.297zm11.298 0c-.587-.51-1.178-.766-1.774-.766-.956 0-1.793.552-2.513 1.658-.71 1.105-1.064 2.435-1.064 3.992v10.944h-2.697v-19.09h2.697v3.048c.984-2.269 2.446-3.404 4.386-3.404.483 0 1.178.107 2.086.321l-1.12 3.297zm11.625 13.635c-1.079 1.7-2.73 2.55-4.954 2.55-1.192 0-2.228-.542-3.108-1.623-.87-1.093-1.306-2.448-1.306-4.064 0-1.936.672-3.57 2.015-4.901 1.354-1.343 3.076-2.014 5.167-2.014.568 0 1.211.154 1.93.463 0-3.09-1.097-4.634-3.293-4.634-1.684 0-2.98.57-3.889 1.711l-1.135-2.834c.51-.523 1.216-.968 2.115-1.336.908-.38 1.774-.57 2.597-.57 2.205 0 3.804.629 4.798 1.888 1.003 1.26 1.504 3.262 1.504 6.007v6.844c0 1.676.398 2.793 1.193 3.351v1.693c-1.098 0-1.921-.196-2.47-.588-.54-.392-.927-1.04-1.164-1.943zm-.255-7.183c-.852-.237-1.448-.356-1.789-.356-1.363 0-2.474.44-3.336 1.319-.86.88-1.291 1.919-1.291 3.12 0 1.983.932 2.976 2.796 2.976 1.363 0 2.57-.814 3.62-2.442v-4.617zm15.925 9.376V4.292h2.84v22.903h9.395v3.209h-12.235zm13.527-9.589c0-2.947.63-5.324 1.888-7.13 1.268-1.818 2.934-2.727 4.996-2.727 2.177 0 3.866.874 5.068 2.62 1.201 1.735 1.802 4.147 1.802 7.237 0 3.077-.615 5.507-1.845 7.29-1.23 1.77-2.905 2.655-5.025 2.655-2.167 0-3.856-.897-5.067-2.691-1.211-1.795-1.817-4.213-1.817-7.254zm2.839 0c0 4.788 1.349 7.182 4.045 7.182 1.259 0 2.243-.641 2.953-1.925.719-1.283 1.078-3.035 1.078-5.257 0-4.73-1.343-7.094-4.031-7.094-1.23 0-2.214.63-2.952 1.89-.729 1.259-1.093 2.993-1.093 5.204zm13.215 14.811l1.462-2.71c1.57 1.32 3.018 1.98 4.343 1.98 1.221 0 2.181-.268 2.881-.803.71-.523 1.065-1.176 1.065-1.96 0-1.545-.889-2.318-2.668-2.318-.303 0-.852.095-1.647.286-.795.19-1.415.285-1.859.285-2.158 0-3.237-1.022-3.237-3.066 0-.63.251-1.2.753-1.71a4.43 4.43 0 0 1 1.887-1.106c-2.138-1.26-3.207-3.446-3.207-6.559 0-1.996.553-3.66 1.66-4.99 1.107-1.331 2.475-1.997 4.102-1.997 1.495 0 2.664.386 3.506 1.159l1.349-2.032 1.76 2.085-1.618 1.533c.69 1.129 1.036 2.602 1.036 4.42 0 1.925-.478 3.541-1.434 4.848-.955 1.307-2.209 2.056-3.761 2.246l-2.229.285c-.265.036-.619.166-1.064.392-.445.214-.667.5-.667.856 0 .487.463.73 1.391.73.407 0 1.041-.089 1.902-.267.861-.19 1.5-.285 1.916-.285 1.495 0 2.659.452 3.492 1.355.842.89 1.263 2.132 1.263 3.725 0 1.758-.629 3.178-1.888 4.26-1.249 1.08-2.834 1.621-4.755 1.621-.984 0-2.02-.22-3.108-.659-1.089-.44-1.964-.974-2.626-1.604zm5.72-21.94c-.937 0-1.703.415-2.3 1.247-.586.832-.88 1.842-.88 3.03 0 1.33.284 2.436.852 3.315.577.867 1.353 1.301 2.328 1.301.956 0 1.703-.422 2.243-1.265.539-.856.809-1.973.809-3.351 0-1.188-.294-2.198-.88-3.03-.578-.832-1.302-1.248-2.172-1.248zm12.207-9.59c.463 0 .856.208 1.178.624.331.404.497.891.497 1.462 0 .582-.166 1.08-.497 1.497-.322.404-.715.606-1.178.606-.454 0-.847-.202-1.178-.606-.322-.416-.483-.915-.483-1.498 0-.582.161-1.075.483-1.479.321-.404.714-.606 1.178-.606zm-1.476 26.308V14.166h-2.087v-2.851h4.784v19.089h-2.697zm5.99-1.141l.951-3.208c1.504 1.235 2.715 1.853 3.633 1.853 1.666 0 2.498-.879 2.498-2.638 0-1.26-.804-2.34-2.413-3.243-1.239-.713-2.077-1.254-2.512-1.622a6.65 6.65 0 0 1-1.121-1.248 5.831 5.831 0 0 1-.71-1.497 6.27 6.27 0 0 1-.227-1.711c0-1.569.454-2.793 1.363-3.672.908-.88 2.096-1.319 3.562-1.319 1.107 0 2.503.44 4.187 1.32l-.766 3.136c-1.069-1.07-2.143-1.604-3.222-1.604-.644 0-1.188.19-1.632.57-.436.38-.653.862-.653 1.444 0 1.224.553 2.15 1.66 2.78l1.931 1.105c1.183.678 2.044 1.45 2.583 2.318.54.867.809 1.954.809 3.261 0 1.711-.478 3.054-1.433 4.028-.956.963-2.281 1.444-3.975 1.444-1.599 0-3.104-.499-4.513-1.497zm13.739-15.275h-1.76v-2.673h1.76V7.322l2.697-1.3v5.293h4.173v2.673h-4.173v9.482c0 1.604.213 2.745.639 3.422.435.678 1.131 1.016 2.087 1.016.69 0 1.405-.22 2.143-.66l.397 2.977c-1.116.357-2.342.535-3.676.535-1.202 0-2.219-.558-3.052-1.675-.823-1.13-1.235-2.55-1.235-4.26V13.988zm13.343-9.892c.463 0 .856.208 1.178.624.331.404.497.891.497 1.462 0 .582-.166 1.08-.497 1.497-.322.404-.715.606-1.178.606-.454 0-.847-.202-1.178-.606-.322-.416-.483-.915-.483-1.498 0-.582.161-1.075.483-1.479.321-.404.714-.606 1.178-.606zm-1.476 26.308V14.166h-2.087v-2.851h4.784v19.089h-2.697zm18.452-17.539l-1.334 2.389c-.275-.345-.762-.672-1.462-.98-.691-.31-1.372-.464-2.044-.464-1.467 0-2.631.648-3.492 1.943-.861 1.283-1.292 3.047-1.292 5.293 0 2.234.44 3.94 1.32 5.116.88 1.164 2.101 1.746 3.662 1.746 1.212 0 2.432-.588 3.663-1.764l1.064 2.852c-1.448 1.176-3.241 1.764-5.379 1.764-2.073 0-3.786-.873-5.139-2.62-1.353-1.747-2.029-4.111-2.029-7.094 0-3.042.7-5.483 2.1-7.325 1.41-1.842 3.336-2.763 5.777-2.763.786 0 1.637.208 2.555.624.918.416 1.595.844 2.03 1.283zm11.511 15.346c-1.078 1.7-2.73 2.55-4.953 2.55-1.193 0-2.229-.542-3.109-1.623-.87-1.093-1.306-2.448-1.306-4.064 0-1.936.672-3.57 2.016-4.901 1.353-1.343 3.075-2.014 5.166-2.014.568 0 1.212.154 1.931.463 0-3.09-1.098-4.634-3.293-4.634-1.685 0-2.981.57-3.889 1.711l-1.136-2.834c.511-.523 1.216-.968 2.115-1.336.908-.38 1.774-.57 2.598-.57 2.204 0 3.804.629 4.797 1.888 1.003 1.26 1.505 3.262 1.505 6.007v6.844c0 1.676.397 2.793 1.192 3.351v1.693c-1.098 0-1.921-.196-2.47-.588-.539-.392-.927-1.04-1.164-1.943zm-.255-7.183c-.852-.237-1.448-.356-1.789-.356-1.362 0-2.474.44-3.335 1.319-.861.88-1.292 1.919-1.292 3.12 0 1.983.932 2.976 2.796 2.976 1.363 0 2.569-.814 3.62-2.442v-4.617z" fill="#101D2D"/><path d="M46.6 39.938h-.496v-3.22h-.802c-.05.48-.117.924-.198 1.332a4.72 4.72 0 0 1-.306 1.03c-.126.277-.243.474-.352.593a.832.832 0 0 1-.343.24c-.12.04-.274.06-.46.06v-.47c.113 0 .21-.02.291-.06a.775.775 0 0 0 .258-.25c.09-.127.189-.344.294-.65.107-.307.194-.648.26-1.023.066-.377.125-.79.178-1.243H46.6v3.66zm2.087-1.863c0-.532.131-.975.393-1.33a1.26 1.26 0 0 1 1.067-.535c.506 0 .892.166 1.157.497.267.332.4.788.4 1.368 0 .597-.134 1.067-.402 1.41-.268.343-.653.515-1.156.515-.461 0-.82-.18-1.075-.54-.256-.36-.384-.822-.384-1.385zm.522 0c0 .423.08.775.242 1.055.164.278.395.418.695.418.34 0 .598-.128.775-.383.176-.257.264-.62.264-1.09 0-.943-.346-1.415-1.038-1.415-.3 0-.532.124-.696.372-.161.247-.242.595-.242 1.043zm6.697-1.348h-1.613v3.21h-.5v-3.66h2.113v.45zm4.708 3.211h-.497V37.31l-2.036 2.678h-.131v-3.71h.495v2.624l2.038-2.677h.131v3.713zm4.572-3.528l-.166.43c-.156-.12-.404-.18-.744-.18a.878.878 0 0 0-.777.43c-.185.285-.277.637-.277 1.055 0 .397.094.73.282 1a.897.897 0 0 0 .777.403c.336 0 .596-.121.779-.363l.275.385c-.29.287-.66.43-1.111.43-.478 0-.852-.174-1.12-.522-.27-.349-.404-.801-.404-1.358 0-.533.142-.985.426-1.355.285-.37.663-.555 1.135-.555.388 0 .696.067.925.2zm3.607.317v3.21h-.497v-3.21h-1.15v-.45h2.852v.45h-1.204zm5.903 3.211H74.2V37.31l-2.036 2.678h-.13v-3.71h.494v2.624l2.038-2.677h.131v3.713zm4.543 0h-.493v-1.476a2.903 2.903 0 0 1-.663.083c-.38 0-.676-.1-.888-.303-.21-.203-.316-.491-.316-.865v-1.1h.502v1.043c0 .267.063.468.188.605.127.137.31.205.552.205.206 0 .414-.028.625-.083v-1.77h.493v3.66zm2.759-3.211v1.013h1.197v.425h-1.197v1.323h1.642v.45h-2.137v-3.66h2.162v.45h-1.667zm6.088-.317l-.166.43c-.156-.12-.405-.18-.744-.18a.878.878 0 0 0-.777.43c-.185.285-.277.637-.277 1.055 0 .397.094.73.282 1a.897.897 0 0 0 .777.403c.336 0 .596-.121.779-.363l.274.385c-.288.287-.658.43-1.11.43-.478 0-.852-.174-1.12-.522-.27-.349-.404-.801-.404-1.358 0-.533.142-.985.425-1.355.286-.37.664-.555 1.136-.555.387 0 .696.067.925.2zm4.691 3.543a.965.965 0 0 1-.183.01c-.206 0-.357-.054-.453-.16-.095-.109-.166-.294-.21-.555-.06-.359-.181-.62-.366-.783-.185-.165-.443-.248-.774-.248h-.02v1.72h-.495v-3.66h.495v1.515h.047c.308 0 .556-.071.742-.215.188-.145.305-.355.351-.63.041-.245.108-.421.2-.53.094-.108.24-.162.438-.162.064 0 .122.004.173.012v.43a.558.558 0 0 0-.101-.005.176.176 0 0 0-.146.065c-.033.042-.064.136-.094.283a1.285 1.285 0 0 1-.294.61c-.15.17-.34.287-.567.352.498.175.8.55.908 1.126.031.166.065.273.101.32.038.046.085.07.141.07.035 0 .07-.004.107-.01v.445zm4.186-.015l-.247-.773h-1.348l-.27.773h-.552l1.47-3.713h.13l1.369 3.713h-.552zm-.9-2.756l-.564 1.613h1.073l-.51-1.613zm5.655 2.756h-.49V38.35l-.212-.005c-.302 0-.535.072-.698.217-.163.145-.275.39-.336.736-.047.26-.114.435-.203.527-.09.092-.231.138-.426.138a.696.696 0 0 1-.148-.01v-.445a.54.54 0 0 0 .082.01.156.156 0 0 0 .13-.063c.034-.042.064-.135.092-.28.096-.497.34-.82.735-.968-.317-.085-.533-.202-.648-.352a.86.86 0 0 1-.173-.54c0-.323.115-.584.346-.783.23-.198.579-.297 1.044-.297.24 0 .542.016.905.047v3.656zm-.49-1.993v-1.243a4.28 4.28 0 0 0-.526-.032c-.286 0-.486.06-.602.18a.591.591 0 0 0-.17.42c0 .44.302.663.907.67l.391.005zm8.304 2.008a.965.965 0 0 1-.183.01c-.207 0-.358-.054-.453-.16-.096-.109-.166-.294-.21-.555-.06-.359-.182-.62-.367-.783-.184-.165-.442-.248-.774-.248h-.02v1.72h-.494v-3.66h.494v1.515h.047c.309 0 .556-.071.742-.215.188-.145.306-.355.352-.63.041-.245.108-.421.2-.53.094-.108.24-.162.438-.162.064 0 .122.004.173.012v.43a.558.558 0 0 0-.101-.005.176.176 0 0 0-.146.065c-.033.042-.065.136-.094.283a1.285 1.285 0 0 1-.295.61c-.15.17-.339.287-.566.352.498.175.8.55.908 1.126.031.166.065.273.101.32.038.046.085.07.141.07.035 0 .07-.004.106-.01v.445zm1.948-1.878c0-.532.13-.975.392-1.33a1.26 1.26 0 0 1 1.067-.535c.506 0 .892.166 1.157.497.267.332.4.788.4 1.368 0 .597-.133 1.067-.402 1.41-.267.343-.652.515-1.155.515-.462 0-.82-.18-1.076-.54-.256-.36-.384-.822-.384-1.385zm.521 0c0 .423.08.775.242 1.055.164.278.395.418.696.418.34 0 .597-.128.774-.383.176-.257.264-.62.264-1.09 0-.943-.346-1.415-1.038-1.415-.3 0-.532.124-.695.372-.162.247-.243.595-.243 1.043zm7.385 1.863l-.436-2.366-.801 2.416h-.126l-.79-2.416-.425 2.366h-.472l.705-3.66h.217l.841 2.667.836-2.668h.213l.71 3.66h-.472zm4.96 0h-.497v-3.21h-1.484v3.21h-.495v-3.66h2.476v3.66zm4.324 0l-.247-.773h-1.348l-.27.773h-.551l1.47-3.713h.13l1.368 3.713h-.551zm-.9-2.756l-.564 1.613h1.074l-.51-1.613zm5.443 2.756v-1.773h-1.58v1.773h-.495v-3.66h.494v1.462h1.581v-1.463h.497v3.66h-.497zm5.423 0h-.497V37.31l-2.036 2.678h-.131v-3.71h.495v2.624l2.038-2.677h.131v3.713zm4.547 0h-.49V38.35l-.212-.005c-.302 0-.534.072-.698.217-.163.145-.275.39-.336.736-.046.26-.114.435-.203.527-.089.092-.23.138-.425.138a.696.696 0 0 1-.149-.01v-.445a.54.54 0 0 0 .082.01.159.159 0 0 0 .131-.063c.033-.042.064-.135.092-.28.095-.497.34-.82.734-.968-.316-.085-.532-.202-.648-.352a.86.86 0 0 1-.173-.54c0-.323.115-.584.346-.783.231-.198.579-.297 1.044-.297.24 0 .543.016.905.047v3.656zm-.49-1.993v-1.243a4.279 4.279 0 0 0-.526-.032c-.286 0-.486.06-.601.18a.591.591 0 0 0-.171.42c0 .44.303.663.908.67l.39.005z" fill="#6E7A9C"/></symbol><symbol viewBox="0 0 12 12" id="modal-close"><path d="M11.58 2.45A1.435 1.435 0 1 0 9.55.42L6 3.971 2.45.421A1.435 1.435 0 1 0 .42 2.448L3.971 6 .421 9.55a1.435 1.435 0 0 0 2.028 2.03L6 8.029l3.55 3.55a1.435 1.435 0 0 0 2.03-2.028L8.029 6l3.55-3.55z"/></symbol><symbol viewBox="0 0 12 8" id="navbar-dropdown"><path fill-rule="evenodd" clip-rule="evenodd" d="M.293.793a1 1 0 0 1 1.414 0L6 5.086 10.293.793a1 1 0 1 1 1.414 1.414l-5 5a1 1 0 0 1-1.414 0l-5-5a1 1 0 0 1 0-1.414z"/></symbol><symbol viewBox="0 0 42 14" id="pagin-next"><path fill-rule="evenodd" clip-rule="evenodd" d="M0 7a1 1 0 0 0 1 1h2.833a1 1 0 1 0 0-2H1a1 1 0 0 0-1 1zm8.5 0a1 1 0 0 0 1 1h5.667a1 1 0 1 0 0-2H9.5a1 1 0 0 0-1 1zm11.333 0a1 1 0 0 0 1 1H26.5a1 1 0 1 0 0-2h-5.667a1 1 0 0 0-1 1zm11.334 0a1 1 0 0 0 1 1H35a1 1 0 1 0 0-2h-2.833a1 1 0 0 0-1 1z"/><path fill-rule="evenodd" clip-rule="evenodd" d="M34.293.293a1 1 0 0 0 0 1.414L39.586 7l-5.293 5.293a1 1 0 0 0 1.414 1.414l6-6a1 1 0 0 0 0-1.414l-6-6a1 1 0 0 0-1.414 0z"/></symbol><symbol viewBox="0 0 42 14" id="pagin-prev"><path fill-rule="evenodd" clip-rule="evenodd" d="M42 7a1 1 0 0 1-1 1h-2.833a1 1 0 1 1 0-2H41a1 1 0 0 1 1 1zm-8.5 0a1 1 0 0 1-1 1h-5.667a1 1 0 1 1 0-2H32.5a1 1 0 0 1 1 1zM22.167 7a1 1 0 0 1-1 1H15.5a1 1 0 1 1 0-2h5.667a1 1 0 0 1 1 1zM10.833 7a1 1 0 0 1-1 1H7a1 1 0 0 1 0-2h2.833a1 1 0 0 1 1 1z"/><path fill-rule="evenodd" clip-rule="evenodd" d="M7.707.293a1 1 0 0 1 0 1.414L2.414 7l5.293 5.293a1 1 0 1 1-1.414 1.414l-6-6a1 1 0 0 1 0-1.414l6-6a1 1 0 0 1 1.414 0z"/></symbol><symbol viewBox="0 0 60 50" id="pass-hide"><path d="M11.285 37.116a1 1 0 0 0 1.247-1.564 27.366 27.366 0 0 1-2.305-2.06l-7.398-7.398 7.629-7.629c7.334-7.333 18.003-9.836 27.839-6.534a1.004 1.004 0 0 0 1.267-.63 1.002 1.002 0 0 0-.63-1.267C28.372 6.49 16.918 9.177 9.044 17.05L0 26.094l8.812 8.812a29.52 29.52 0 0 0 2.473 2.21zm38.952-20.065a29.374 29.374 0 0 0-4.394-3.616 1.002 1.002 0 0 0-1.115 1.661 27.343 27.343 0 0 1 4.094 3.37l7.398 7.397-7.629 7.63c-7.385 7.384-18.513 9.881-28.352 6.355a1 1 0 1 0-.675 1.883 28.97 28.97 0 0 0 9.776 1.693c7.621 0 15.124-2.977 20.665-8.518l9.043-9.043-8.81-8.812z" fill="#216EB4"/><path d="M30.539 37.5c-2.153 0-4.251-.598-6.07-1.73a1 1 0 1 0-1.056 1.698 13.463 13.463 0 0 0 7.126 2.032c7.444 0 13.5-6.056 13.5-13.5a13.44 13.44 0 0 0-2.275-7.502 1 1 0 0 0-1.662 1.112A11.447 11.447 0 0 1 42.04 26c0 6.342-5.159 11.5-11.5 11.5zm.001-23c2.064 0 4.088.553 5.854 1.6a1 1 0 0 0 1.02-1.72 13.49 13.49 0 0 0-6.876-1.88c-7.444 0-13.5 6.056-13.5 13.5 0 2.084.462 4.083 1.374 5.941a1 1 0 0 0 1.796-.88 11.392 11.392 0 0 1-1.17-5.06c.001-6.342 5.16-11.5 11.501-11.5z" fill="#216EB4"/><path d="M54.62 1.293a.999.999 0 0 0-1.413 0l-46.5 46.5a.999.999 0 1 0 1.414 1.414l46.5-46.5a.999.999 0 0 0 0-1.414z" fill="#F28E19"/></symbol><symbol viewBox="0 0 60 50" id="pass-view"><path d="M28.875 17C24.533 17 21 20.14 21 24c0 .552.504 1 1.125 1s1.125-.448 1.125-1c0-2.757 2.523-5 5.625-5 .621 0 1.125-.448 1.125-1s-.503-1-1.125-1z" fill="#F28E19"/><path d="M50.889 17.203c-11.849-12.27-31.126-12.27-42.975 0L0 25.398l8.11 8.399C14.034 39.932 21.816 43 29.598 43c7.783 0 15.563-3.067 21.488-9.203L59 25.6l-8.111-8.398zm-1.213 15.134c-11.072 11.465-29.085 11.465-40.156 0l-6.702-6.94 6.505-6.736c11.072-11.464 29.085-11.464 40.156 0l6.702 6.94-6.505 6.736z" fill="#216EB4"/><path d="M29.5 12C22.056 12 16 18.056 16 25.5S22.056 39 29.5 39 43 32.944 43 25.5 36.945 12 29.5 12zm0 24.923c-6.298 0-11.423-5.125-11.423-11.423S23.202 14.077 29.5 14.077 40.923 19.202 40.923 25.5 35.8 36.923 29.5 36.923z" fill="#216EB4"/></symbol><symbol viewBox="0 0 459.325 459.325" id="plus"><path d="M459.319 229.668c0 22.201-17.992 40.193-40.205 40.193H269.85v149.271c0 22.207-17.998 40.199-40.196 40.193-11.101 0-21.149-4.492-28.416-11.763-7.276-7.281-11.774-17.324-11.769-28.419l-.006-149.288H40.181c-11.094 0-21.134-4.492-28.416-11.774C4.501 250.817.006 240.769.006 229.668 0 207.471 17.992 189.475 40.202 189.475h149.267V40.202C189.469 17.998 207.471 0 229.671 0c22.192.006 40.178 17.986 40.19 40.187v149.288h149.282c22.196.012 40.165 17.996 40.176 40.193z"/></symbol><symbol viewBox="0 0 30 42" id="ruble"><path fill-rule="evenodd" clip-rule="evenodd" d="M7.246 27.231v-1.673h9.343c4.259-.077 7.553-1.202 9.884-3.375C28.825 19.99 30 16.875 30 12.836c0-3.884-1.229-6.99-3.686-9.317C23.856 1.173 20.477 0 16.176 0H1.43v27.231H0v3.693h1.43V42h5.816V30.924h9.026V27.23H7.246zm8.93-6.202h-8.93V4.558h8.962c2.479 0 4.428.76 5.847 2.279 1.42 1.519 2.13 3.538 2.13 6.057 0 2.616-.689 4.625-2.066 6.03-1.377 1.403-3.358 2.105-5.943 2.105z"/></symbol><symbol viewBox="0 0 27 27" id="signin"><path d="M8.504.043L.54 3.207a.79.79 0 0 0-.541.75v19.088c0 .34.218.642.54.75l7.964 3.163a.791.791 0 0 0 1.04-.75V.793a.79.79 0 0 0-1.04-.75zM7.172 14.292a.791.791 0 1 1 0-1.582.791.791 0 0 1 0 1.582zm19.037-2.373h-6.38V9.548a.791.791 0 0 0-1.275-.627l-4.617 3.872a.79.79 0 0 0 0 1.415l4.617 3.872a.791.791 0 0 0 1.274-.626v-2.371h6.381a.791.791 0 0 0 .791-.791V12.71a.79.79 0 0 0-.791-.791z"/><path d="M13.026 11.493l4.512-3.784c.47-.364.97-.536 1.496-.536h.003V3.958a.79.79 0 0 0-.79-.791h-7.12v20.67h7.12a.79.79 0 0 0 .79-.791v-3.217h-.003a2.351 2.351 0 0 1-1.446-.495l-4.562-3.824a2.358 2.358 0 0 1-1.108-2.008c0-.827.42-1.577 1.108-2.008z"/></symbol><symbol viewBox="0 0 48 16" id="slick-next"><path fill-rule="evenodd" clip-rule="evenodd" d="M41.343.929l6.364 6.364a1 1 0 0 1 0 1.414l-6.364 6.364a1 1 0 1 1-1.414-1.414L44.586 9H0V7h44.586l-4.657-4.657A1 1 0 0 1 41.343.93z"/></symbol><symbol viewBox="0 0 48 15" id="slick-prev"><path fill-rule="evenodd" clip-rule="evenodd" d="M6.657 14.435L.293 8.071a1 1 0 0 1 0-1.414L6.657.293A1 1 0 1 1 8.07 1.707L3.414 6.364H48v2H3.414l4.657 4.657a1 1 0 0 1-1.414 1.414z"/></symbol><symbol viewBox="0 0 480.56 480.56" id="tel"><path d="M365.354 317.9c-15.7-15.5-35.3-15.5-50.9 0-11.9 11.8-23.8 23.6-35.5 35.6-3.2 3.3-5.9 4-9.8 1.8-7.7-4.2-15.9-7.6-23.3-12.2-34.5-21.7-63.4-49.6-89-81-12.7-15.6-24-32.3-31.9-51.1-1.6-3.8-1.3-6.3 1.8-9.4 11.9-11.5 23.5-23.3 35.2-35.1 16.3-16.4 16.3-35.6-.1-52.1-9.3-9.4-18.6-18.6-27.9-28-9.6-9.6-19.1-19.3-28.8-28.8-15.7-15.3-35.3-15.3-50.9.1-12 11.8-23.5 23.9-35.7 35.5-11.3 10.7-17 23.8-18.2 39.1-1.9 24.9 4.2 48.4 12.8 71.3 17.6 47.4 44.4 89.5 76.9 128.1 43.9 52.2 96.3 93.5 157.6 123.3 27.6 13.4 56.2 23.7 87.3 25.4 21.4 1.2 40-4.2 54.9-20.9 10.2-11.4 21.7-21.8 32.5-32.7 16-16.2 16.1-35.8.2-51.8-19-19.1-38.1-38.1-57.2-57.1zm-19.1-79.7l36.9-6.3c-5.8-33.9-21.8-64.6-46.1-89-25.7-25.7-58.2-41.9-94-46.9l-5.2 37.1c27.7 3.9 52.9 16.4 72.8 36.3 18.8 18.8 31.1 42.6 35.6 68.8zm57.7-160.4c-42.6-42.6-96.5-69.5-156-77.8l-5.2 37.1c51.4 7.2 98 30.5 134.8 67.2 34.9 34.9 57.8 79 66.1 127.5l36.9-6.3c-9.7-56.2-36.2-107.2-76.6-147.7z"/></symbol><symbol viewBox="0 0 40 40" id="view"><path fill-rule="evenodd" clip-rule="evenodd" d="M0 1.667V0h1.667v1.29H1.29v.377H0zM8.333 0H5v1.29h3.333V0zm3.334 0v1.29H15V0h-3.333zm6.666 0v1.29h3.334V0h-3.334zM25 0v1.29h3.333V0H25zm6.667 0v1.29H35V0h-3.333zm6.666 0v1.29h.377v.377H40V0h-1.667zM40 5h-1.29v3.333H40V5zm0 6.667h-1.29V15H40v-3.333zm0 6.666h-1.29v3.334H40v-3.334zM40 25h-1.29v3.333H40V25zm0 6.667h-1.29V35H40v-3.333zm0 6.666h-1.29v.377h-.377V40H40v-1.667zM35 40v-1.29h-3.333V40H35zm-6.667 0v-1.29H25V40h3.333zm-6.666 0v-1.29h-3.334V40h3.334zM15 40v-1.29h-3.333V40H15zm-6.667 0v-1.29H5V40h3.333zm-6.666 0v-1.29H1.29v-.377H0V40h1.667zM0 35h1.29v-3.333H0V35zm0-6.667h1.29V25H0v3.333zm0-6.666h1.29v-3.334H0v3.334zM0 15h1.29v-3.333H0V15zm0-6.667h1.29V5H0v3.333zm33.913-2.246H6.087v27.826h27.826V6.087zM20.87 20.87h5.217a.87.87 0 0 0 0-1.74H20.87v-5.217a.87.87 0 1 0-1.74 0v5.217h-5.217a.87.87 0 1 0 0 1.74h5.217v5.217a.87.87 0 1 0 1.74 0V20.87z"/></symbol><symbol viewBox="0 0 304.36 304.36" id="vk"><path d="M261.945 175.576c10.096 9.857 20.752 19.131 29.807 29.982 4 4.822 7.787 9.798 10.684 15.394 4.105 7.955.387 16.709-6.746 17.184l-44.34-.02c-11.436.949-20.559-3.655-28.23-11.474-6.139-6.253-11.824-12.908-17.727-19.372-2.42-2.642-4.953-5.128-7.979-7.093-6.053-3.929-11.307-2.726-14.766 3.587-3.523 6.421-4.322 13.531-4.668 20.687-.475 10.441-3.631 13.186-14.119 13.664-22.414 1.057-43.686-2.334-63.447-13.641-17.422-9.968-30.932-24.04-42.691-39.971-22.895-31.021-40.428-65.108-56.186-100.15C-2.01 76.458.584 72.22 9.295 72.07c14.465-.281 28.928-.261 43.41-.02 5.879.086 9.771 3.458 12.041 9.012 7.826 19.243 17.402 37.551 29.422 54.521 3.201 4.518 6.465 9.036 11.113 12.216 5.142 3.521 9.057 2.354 11.476-3.374 1.535-3.632 2.207-7.544 2.553-11.434 1.146-13.383 1.297-26.743-.713-40.079-1.234-8.323-5.922-13.711-14.227-15.286-4.238-.803-3.607-2.38-1.555-4.799 3.564-4.172 6.916-6.769 13.598-6.769h50.111c7.889 1.557 9.641 5.101 10.721 13.039l.043 55.663c-.086 3.073 1.535 12.192 7.07 14.226 4.43 1.448 7.35-2.096 10.008-4.905 11.998-12.734 20.561-27.783 28.211-43.366 3.395-6.852 6.314-13.968 9.143-21.078 2.096-5.276 5.385-7.872 11.328-7.757l48.229.043c1.43 0 2.877.021 4.262.258 8.127 1.385 10.354 4.881 7.844 12.817-3.955 12.451-11.65 22.827-19.174 33.251-8.043 11.129-16.645 21.877-24.621 33.072-7.328 10.223-6.746 15.376 2.357 24.255zm0 0" fill-rule="evenodd" clip-rule="evenodd"/></symbol></svg>