<svg width="24" height="27" viewBox="0 0 24 27" fill="none" xmlns="http://www.w3.org/2000/svg">
<rect width="16" height="16" transform="translate(4 5.12305)" fill="#FFAF00"/>
<path d="M3.59194 18.2991C3.59194 18.0093 3.83066 17.7744 4.1252 17.7744H4.25241C4.54694 17.7744 4.78566 18.0093 4.78566 18.2991C4.78566 18.5888 4.54694 18.8237 4.25241 18.8237H4.1252C3.83066 18.8237 3.59194 18.5888 3.59194 18.2991ZM15.1464 7.25557C14.423 7.49604 13.937 8.16106 13.937 8.91055C13.937 9.87346 14.7332 10.6568 15.7118 10.6568H20.5399C21.5186 10.6568 22.3148 9.8734 22.3148 8.91055C22.3148 8.16118 21.8288 7.49609 21.1055 7.25563C20.8266 7.16288 20.5239 7.31025 20.4296 7.58476C20.3354 7.85927 20.4851 8.15698 20.7642 8.24973C21.0538 8.34597 21.2483 8.61156 21.2483 8.91055C21.2483 9.29483 20.9305 9.60746 20.5399 9.60746H15.7118C15.3212 9.60746 15.0035 9.29483 15.0035 8.91055C15.0035 8.61156 15.1981 8.34591 15.4877 8.24967C15.7667 8.15692 15.9165 7.85921 15.8222 7.5847C15.728 7.31013 15.4254 7.16294 15.1464 7.25557ZM7.16842 22.5989C6.88935 22.5059 6.58682 22.6535 6.49255 22.9281C6.39828 23.2026 6.54807 23.5002 6.82708 23.593C7.11669 23.6892 7.31127 23.9547 7.31127 24.2537C7.31127 24.6381 6.99357 24.9507 6.60299 24.9507H1.77479C1.38421 24.9507 1.06645 24.6381 1.06645 24.2537C1.06645 23.9548 1.26109 23.6892 1.55076 23.5929C1.82977 23.5002 1.97956 23.2024 1.88529 22.9279C1.79102 22.6534 1.48849 22.5062 1.20942 22.5988C0.486032 22.8393 -9.945e-09 23.5044 -9.945e-09 24.2537C-9.945e-09 25.2166 0.796208 26 1.77485 26H6.60305C7.58169 26 8.37784 25.2166 8.37784 24.2537C8.37778 23.5044 7.89175 22.8393 7.16842 22.5989ZM2.72374 22.1816C1.77354 20.3443 1.18465 19.054 1.18465 18.299C1.18465 16.6693 2.53237 15.3434 4.18889 15.3434C5.84536 15.3434 7.19301 16.6693 7.19301 18.299C7.19301 19.0545 6.60418 20.3447 5.65404 22.1815C5.65404 22.1815 5.31423 22.8415 5.29723 22.8766C5.16012 23.1594 4.90493 23.6858 4.18883 23.6858C3.47273 23.6858 3.21748 23.1595 3.08037 22.8766C3.06349 22.8415 2.72374 22.1816 2.72374 22.1816ZM2.25116 18.299C2.25116 18.954 3.24841 20.8822 3.67424 21.7056C3.67424 21.7056 4.12751 22.599 4.15802 22.6347C4.17692 22.6614 4.20566 22.6469 4.2197 22.6348C4.25022 22.5991 4.30052 22.4952 4.33465 22.4248C4.35503 22.3828 4.7036 21.7056 4.7036 21.7056C5.12943 20.8824 6.12656 18.9546 6.12656 18.2989C6.12656 17.2478 5.25735 16.3926 4.18895 16.3926C3.12043 16.3927 2.25116 17.2478 2.25116 18.299ZM24 0.524651V4.28523C24 4.57501 23.7613 4.80988 23.4667 4.80988H18.6591V7.22811H19.0814C19.376 7.22811 19.6147 7.46298 19.6147 7.75276C19.6147 8.04255 19.376 8.27741 19.0814 8.27741H17.1703C16.8758 8.27741 16.6371 8.04255 16.6371 7.75276C16.6371 7.46298 16.8758 7.22811 17.1703 7.22811H17.5926V4.29636C17.5925 4.29263 17.5925 4.28896 17.5925 4.28523C17.5925 4.2815 17.5925 4.27777 17.5926 4.2741V0.535785C17.5925 0.532054 17.5925 0.528382 17.5925 0.524651C17.5925 0.234869 17.8312 0 18.1257 0H23.4667C23.7613 0 24 0.234869 24 0.524651ZM22.9335 1.0493H18.6591V3.76058H22.9335V1.0493ZM19.6446 12.4754H4.35544C2.54191 12.4754 1.06651 11.0238 1.06651 9.23945C1.06651 7.45511 2.54191 6.00352 4.35544 6.00352H15.1072C15.4017 6.00352 15.6405 5.76865 15.6405 5.47887C15.6405 5.18909 15.4017 4.95422 15.1072 4.95422H4.35544C1.95384 4.95422 -9.945e-09 6.8766 -9.945e-09 9.23945C-9.945e-09 11.6024 1.95384 13.5247 4.35544 13.5247H19.6446C21.4581 13.5247 22.9335 14.9763 22.9335 16.7607C22.9335 18.545 21.4581 19.9966 19.6446 19.9966H8.89279C8.59825 19.9966 8.35953 20.2315 8.35953 20.5212C8.35953 20.811 8.59825 21.0459 8.89279 21.0459H19.6446C22.0462 21.0459 24 19.1235 24 16.7607C24 14.3978 22.0462 12.4754 19.6446 12.4754Z" transform="translate(0 0.123047)" fill="black"/>
</svg>
