<svg width="24" height="25" viewBox="0 0 24 25" fill="none" xmlns="http://www.w3.org/2000/svg">
<rect width="17" height="17" transform="translate(3 4.12305)" fill="#FFAF00"/>
<path d="M17.8344 23.2396C19.0353 23.2396 20.0019 22.8253 20.7879 21.9724C20.7927 21.9675 20.8025 21.9578 20.8074 21.9529C21.0856 21.6166 21.4029 21.3144 21.7349 20.9927C21.9595 20.7734 22.1938 20.5491 22.4135 20.3201C23.4435 19.2478 23.4386 17.8879 22.4037 16.8497L19.5089 13.9594C19.0158 13.4476 18.4251 13.1747 17.8051 13.1747C17.1852 13.1747 16.5945 13.4427 16.0868 13.9496L14.3636 15.6702C14.2073 15.5776 14.0462 15.4996 13.89 15.4216C13.6996 15.3241 13.519 15.2364 13.3579 15.134C11.786 14.1397 10.3606 12.8383 8.99859 11.1665C8.31027 10.2989 7.8514 9.56783 7.52921 8.8221C7.97832 8.41267 8.40303 7.98863 8.80821 7.57433C8.95466 7.42323 9.10111 7.27701 9.25244 7.12591C9.77478 6.60439 10.053 6 10.053 5.38587C10.053 4.77173 9.77478 4.17222 9.25244 3.64582L7.81722 2.21284C7.65125 2.04712 7.48527 1.8814 7.32417 1.71568C7.00687 1.38911 6.67491 1.0528 6.34784 0.750609C5.85479 0.258327 5.26899 1.85932e-08 4.6539 1.85932e-08C4.0388 1.85932e-08 3.44812 0.258327 2.93554 0.750609L1.12932 2.54915C0.475176 3.20227 0.104168 4.00163 0.0211795 4.92283C-0.0715724 6.07311 0.13834 7.29651 0.68997 8.77823C1.5345 11.0642 2.80862 13.1844 4.69783 15.4509C6.99222 18.1901 9.75525 20.3493 12.9088 21.87C14.1097 22.4403 15.7158 23.108 17.5025 23.225C17.6148 23.2348 17.727 23.2396 17.8344 23.2396ZM5.61559 14.6856C3.81913 12.5264 2.60847 10.5134 1.81276 8.35906C1.31971 7.03331 1.1342 6 1.21231 5.02031C1.26601 4.3818 1.51497 3.84565 1.97385 3.39236L3.76543 1.60357C4.04368 1.3355 4.35123 1.19415 4.64901 1.19415C4.94191 1.19415 5.23482 1.33063 5.51307 1.60845C5.83526 1.91064 6.14281 2.22258 6.465 2.55402C6.63098 2.72461 6.79695 2.89521 6.96781 3.06093L8.40303 4.49391C8.70081 4.79123 8.85214 5.09342 8.85214 5.38587C8.85214 5.67831 8.70081 5.9805 8.40303 6.27782C8.25169 6.42892 8.10036 6.58002 7.95391 6.73111C7.50968 7.1844 7.08497 7.60845 6.62609 8.02275C6.61633 8.03249 6.61145 8.03737 6.60169 8.04712C6.20139 8.44679 6.25997 8.83184 6.3576 9.12429C6.36248 9.13891 6.36737 9.14866 6.37225 9.16328C6.74325 10.0552 7.26071 10.9033 8.06131 11.9123C9.51117 13.6913 11.0294 15.0755 12.7087 16.1381C12.9186 16.2697 13.1334 16.3818 13.3482 16.4842C13.5386 16.5816 13.7192 16.6694 13.8803 16.7717C13.8998 16.7815 13.9144 16.7912 13.934 16.801C14.0951 16.879 14.2464 16.918 14.4026 16.918C14.7931 16.918 15.0421 16.6694 15.1251 16.5865L16.9264 14.788C17.2047 14.5102 17.5074 14.3639 17.8003 14.3639C18.1664 14.3639 18.4593 14.5881 18.6497 14.788L21.5543 17.6881C22.1303 18.2632 22.1254 18.8822 21.5396 19.4915C21.3346 19.7059 21.1247 19.9106 20.9001 20.13C20.5633 20.4565 20.2118 20.7929 19.8945 21.173C19.3429 21.7677 18.6838 22.0455 17.8296 22.0455C17.7466 22.0455 17.6587 22.0406 17.5757 22.0357C15.994 21.9334 14.5247 21.3193 13.4263 20.7929C10.4338 19.3501 7.80258 17.2933 5.61559 14.6856Z" transform="translate(0 0.883362)" fill="#101D2D"/>
<path d="M0.600447 2.78798C0.268492 2.78798 5.12481e-07 3.05605 5.12481e-07 3.38749V9.4801C5.12481e-07 9.81153 0.268492 10.0796 0.600447 10.0796H6.70255C7.0345 10.0796 7.303 9.81153 7.303 9.4801C7.303 9.14866 7.0345 8.88058 6.70255 8.88058H2.04542L9.91958 1.01868C10.1539 0.784728 10.1539 0.409423 9.91958 0.175467C9.68526 -0.058489 9.30937 -0.058489 9.07505 0.175467L1.20089 8.03737V3.38749C1.20089 3.05605 0.932401 2.78798 0.600447 2.78798Z" transform="translate(13.9043 0.123047)" fill="#101D2D"/>
</svg>
