<svg width="101" height="29" viewBox="0 0 101 29" xmlns="http://www.w3.org/2000/svg">
<path d="M37.1001 11.3999V3.09991H40.6001C43.2001 3.09991 45.0001 4.59991 45.0001 7.29991C45.0001 9.79991 43.1001 11.4999 40.6001 11.4999L37.1001 11.3999ZM42.8001 7.19991C42.8001 5.89991 42.0001 4.89991 40.5001 4.89991H39.1001V9.39991H40.5001C42.0001 9.49991 42.8001 8.49991 42.8001 7.19991ZM45.8001 7.19991C45.8001 4.69991 47.7001 2.89991 50.2001 2.89991C52.7001 2.89991 54.6001 4.59991 54.6001 7.19991C54.6001 9.79991 52.7001 11.4999 50.2001 11.4999C47.7001 11.4999 45.8001 9.79991 45.8001 7.19991ZM52.5001 7.19991C52.5001 5.79991 51.6001 4.79991 50.2001 4.79991C48.8001 4.79991 47.9001 5.79991 47.9001 7.19991C47.9001 8.49991 48.8001 9.59991 50.2001 9.59991C51.6001 9.59991 52.5001 8.59991 52.5001 7.19991ZM60.5001 11.3999L59.1001 8.59991H58.0001V11.3999H55.9001V3.09991H60.1001C61.9001 3.09991 62.9001 4.29991 62.9001 5.89991C62.9001 7.39991 62.0001 8.09991 61.2001 8.39991L62.9001 11.4999H60.5001V11.3999ZM60.8001 5.89991C60.8001 5.29991 60.4001 4.9999 59.8001 4.9999H58.1001V6.69991H59.8001C60.3001 6.69991 60.8001 6.39991 60.8001 5.89991ZM63.8001 7.19991C63.8001 4.69991 65.7001 2.89991 68.2001 2.89991C70.7001 2.89991 72.6001 4.59991 72.6001 7.19991C72.6001 9.79991 70.7001 11.4999 68.2001 11.4999C65.7001 11.4999 63.8001 9.79991 63.8001 7.19991ZM70.4001 7.19991C70.4001 5.79991 69.5001 4.79991 68.1001 4.79991C66.7001 4.79991 65.8001 5.79991 65.8001 7.19991C65.8001 8.49991 66.7001 9.59991 68.1001 9.59991C69.5001 9.59991 70.4001 8.59991 70.4001 7.19991ZM79.5001 11.3999V7.9999H76.1001V11.3999H73.9001V3.09991H76.1001V6.19991H79.5001V3.09991H81.6001V11.3999H79.5001ZM82.8001 7.19991C82.8001 4.69991 84.7001 2.89991 87.2001 2.89991C89.7001 2.89991 91.6001 4.59991 91.6001 7.19991C91.6001 9.79991 89.7001 11.4999 87.2001 11.4999C84.7001 11.4999 82.8001 9.79991 82.8001 7.19991ZM89.5001 7.19991C89.5001 5.79991 88.6001 4.79991 87.2001 4.79991C85.8001 4.79991 84.9001 5.79991 84.9001 7.19991C84.9001 8.49991 85.8001 9.59991 87.2001 9.59991C88.7001 9.59991 89.5001 8.59991 89.5001 7.19991ZM94.8001 11.3999L91.7001 3.09991H94.1001L96.1001 9.09991L98.1001 3.09991H100.5L97.4001 11.3999H94.8001ZM37.1001 25.1999V16.7999H40.6001C43.2001 16.7999 45.1001 18.2999 45.1001 20.9999C45.1001 23.5999 43.2001 25.1999 40.6001 25.1999H37.1001ZM43.0001 20.9999C43.0001 19.6999 42.2001 18.6999 40.7001 18.6999H39.3001V23.2999H40.7001C42.1001 23.2999 43.0001 22.2999 43.0001 20.9999ZM46.4001 25.1999V16.7999H52.5001V18.6999H48.6001V19.9999H52.4001V21.7999H48.6001V23.1999H52.5001V25.0999H46.4001V25.1999ZM53.5001 23.9999L54.6001 22.3999C55.2001 22.9999 56.1001 23.4999 57.2001 23.4999C57.9001 23.4999 58.4001 23.1999 58.4001 22.7999C58.4001 21.6999 53.7001 22.5999 53.7001 19.2999C53.7001 17.8999 54.9001 16.6999 57.0001 16.6999C58.3001 16.6999 59.5001 17.0999 60.4001 17.8999L59.2001 19.3999C58.5001 18.7999 57.6001 18.4999 56.8001 18.4999C56.2001 18.4999 55.9001 18.6999 55.9001 19.0999C55.9001 20.0999 60.6001 19.3999 60.6001 22.4999C60.6001 24.1999 59.3001 25.2999 57.1001 25.2999C55.5001 25.2999 54.4001 24.7999 53.5001 23.9999ZM61.9001 16.7999H64.0001V25.0999H61.9001V16.7999ZM65.4001 20.9999C65.4001 18.3999 67.5001 16.6999 69.9001 16.6999C71.7001 16.6999 72.9001 17.6999 73.4001 18.7999L71.6001 19.7999C71.3001 19.2999 70.6001 18.7999 69.8001 18.7999C68.4001 18.7999 67.4001 19.7999 67.4001 21.1999C67.4001 22.5999 68.4001 23.5999 69.8001 23.5999C70.4001 23.5999 71.1001 23.3999 71.3001 23.0999V22.3999H69.4001V20.4999H73.4001V23.7999C72.5001 24.7999 71.3001 25.3999 69.7001 25.3999C67.4001 25.2999 65.4001 23.5999 65.4001 20.9999ZM80.8001 25.1999L77.3001 20.2999V25.1999H75.2001V16.7999H77.4001L80.8001 21.3999V16.7999H82.9001V25.1999H80.8001Z"/>
<path d="M11.3 0H0V28.6H11.4C21 28.6 27.1 23 27.1 14.3C27.1 5.6 20.9 0 11.3 0ZM11.1 22.9H6V6.10001H11.1C17.1 6.10001 21.1 8.50001 21.1 14.2C21.2 19 17.4 22.9 11.1 22.9ZM12.2 10.9H10.9V17.7H12.2C14.8 17.7 16.3 16.2 16.3 14.2C16.3 11.9 14.6 10.9 12.2 10.9Z"/>
</svg>
