<svg width="48" height="48" viewBox="0 0 48 48" xmlns="http://www.w3.org/2000/svg">
<path d="M5.1031 3.54766e-07H0.757876C0.339188 3.54766e-07 -6.29426e-07 0.339375 -6.29426e-07 0.757874C-6.29426e-07 1.17647 0.339188 1.51575 0.757876 1.51575H5.1031C5.52179 1.51575 5.86098 1.17637 5.86098 0.757874C5.86098 0.339281 5.5217 3.54766e-07 5.1031 3.54766e-07Z" transform="translate(14.8865 21.9733)" fill="#F28E19"/>
<path d="M0.757877 1.51575H5.1031C5.52179 1.51575 5.86098 1.17656 5.86098 0.757875C5.86098 0.339282 5.5217 -9.15526e-08 5.1031 -9.15526e-08H0.757877C0.339189 -9.15526e-08 -8.23976e-07 0.339376 -8.23976e-07 0.757875C-8.23976e-07 1.17647 0.339189 1.51575 0.757877 1.51575Z" transform="translate(37.6421 43.4974)" fill="#F28E19"/>
<path d="M0.757877 1.51575H5.1031C5.52179 1.51575 5.86098 1.17637 5.86098 0.757874C5.86098 0.339281 5.5217 1.54495e-07 5.1031 1.54495e-07H0.757877C0.339188 1.54495e-07 1.9455e-07 0.339374 1.9455e-07 0.757874C1.9455e-07 1.17637 0.339188 1.51575 0.757877 1.51575Z" transform="translate(13.4905 5.90604)" fill="#F28E19"/>
<path d="M5.1031 9.38414e-07H0.757876C0.339188 9.38414e-07 -6.29426e-07 0.33928 -6.29426e-07 0.757873C-6.29426e-07 1.17647 0.339188 1.51575 0.757876 1.51575H5.1031C5.52179 1.51575 5.86098 1.17647 5.86098 0.757873C5.86098 0.339374 5.5217 9.38414e-07 5.1031 9.38414e-07Z" transform="translate(14.8865 24.4996)" fill="#F28E19"/>
<path d="M0.757877 1.51575H5.1031C5.52179 1.51575 5.86098 1.17647 5.86098 0.757875C5.86098 0.339282 5.52179 -3.43322e-07 5.1031 -3.43322e-07H0.757877C0.339188 -3.43322e-07 1.37329e-07 0.339375 1.37329e-07 0.757875C1.37329e-07 1.17647 0.339376 1.51575 0.757877 1.51575Z" transform="translate(14.8865 40.567)" fill="#F28E19"/>
<path d="M0.757877 1.51575H5.1031C5.52179 1.51575 5.86098 1.17656 5.86098 0.757874C5.86098 0.339281 5.52179 -1.19018e-06 5.1031 -1.19018e-06H0.757877C0.339188 -1.19018e-06 1.37329e-07 0.339375 1.37329e-07 0.757874C1.37329e-07 1.17656 0.339376 1.51575 0.757877 1.51575Z" transform="translate(14.8865 43.0933)" fill="#F28E19"/>
<path d="M46.6684 37.592H41.3683V29.5578C41.3683 29.1391 41.0291 28.7999 40.6104 28.7999C40.1917 28.7999 39.8525 29.1391 39.8525 29.5578V37.592H33.9848C33.2505 37.592 32.6531 38.1893 32.6531 38.9237V41.4771V46.4842H24.0439C23.9775 46.4842 23.9234 46.43 23.9234 46.3635V46.0294V29.6586V27.2333V18.6162C23.9234 18.5496 23.9775 18.4955 24.0439 18.4955H28.5027V27.1356C28.5027 27.4261 28.6688 27.6911 28.9303 27.8177C29.1916 27.9444 29.5026 27.9104 29.7305 27.7303L31.888 26.025L34.0455 27.7303C34.1819 27.8381 34.348 27.8936 34.5154 27.8936C34.6278 27.8936 34.7407 27.8686 34.8457 27.8178C35.1073 27.6912 35.2733 27.4262 35.2733 27.1357V18.4956H39.7319C39.7985 18.4956 39.8526 18.5498 39.8526 18.6163V27.0316C39.8526 27.4503 40.1918 27.7895 40.6105 27.7895C41.0292 27.7895 41.3684 27.4502 41.3684 27.0316V18.6163C41.3684 17.7138 40.6341 16.9799 39.7319 16.9799H34.5154H29.2607H24.0441C24.0034 16.9799 23.9635 16.983 23.9235 16.986V10.8627C23.9235 10.5024 23.8247 10.1656 23.6552 9.87458C23.8229 9.65183 23.9235 9.37601 23.9235 9.07639V3.8849V1.33153C23.9233 0.59728 23.3259 0 22.5916 0H9.90789C9.17364 0 8.57645 0.59728 8.57645 1.33153V3.88499V8.89217H1.97054C0.88397 8.89208 0 9.77614 0 10.8626V27.2334C0 27.6908 0.158063 28.1113 0.420563 28.446C0.158063 28.7807 0 29.2012 0 29.6586V46.0294C0 47.1159 0.88397 47.9999 1.97054 47.9999H17.2969C17.7156 47.9999 18.0548 47.6607 18.0548 47.242C18.0548 46.8233 17.7156 46.4842 17.2969 46.4842H1.97054C1.71985 46.4842 1.51575 46.2802 1.51575 46.0294V29.6586C1.51575 29.4078 1.71975 29.2038 1.97054 29.2038H8.57645V37.8439C8.57645 38.1344 8.74258 38.3994 9.00405 38.526C9.26533 38.6527 9.57639 38.6186 9.8043 38.4386L11.9618 36.7333L14.1192 38.4386C14.2557 38.5464 14.4218 38.6019 14.5892 38.6019C14.7015 38.6019 14.8145 38.5769 14.9195 38.5261C15.1811 38.3995 15.3471 38.1345 15.3471 37.844V29.2039H21.9528C22.2035 29.2039 22.4076 29.4078 22.4076 29.6587V46.0295C22.4076 46.2802 22.2036 46.4843 21.9528 46.4843H19.8908C19.4721 46.4843 19.1329 46.8235 19.1329 47.2421C19.1329 47.6608 19.4721 48 19.8908 48H21.9528C22.3602 48 22.739 47.8757 23.0535 47.6632C23.3288 47.8735 23.6714 48 24.0438 48L33.9684 47.9999C33.9738 47.9999 33.979 47.9999 33.9844 47.9999L33.9846 47.9998H46.6684C47.4027 47.9998 48 47.4026 48 46.6684V41.477V38.9236C48.0001 38.1894 47.4028 37.592 46.6684 37.592ZM30.0184 18.4954H33.7574V25.5705L32.3578 24.4643C32.2202 24.3555 32.0539 24.301 31.8879 24.301C31.7219 24.301 31.5557 24.3555 31.418 24.4643L30.0184 25.5705V18.4954ZM10.0922 10.4078H13.8312V17.4828L12.4316 16.3766C12.2939 16.2677 12.1277 16.2133 11.9617 16.2133C11.7956 16.2133 11.6294 16.2678 11.4918 16.3766L10.0922 17.4828V10.4078ZM13.8312 36.2788L12.4317 35.1727C12.294 35.0638 12.1278 35.0094 11.9618 35.0094C11.7957 35.0094 11.6295 35.0638 11.4919 35.1727L10.0923 36.2788V29.2038H13.8312V36.2788ZM22.4074 18.6162V27.2333C22.4074 27.484 22.2034 27.6881 21.9526 27.6881H14.589H9.33433H1.97054C1.71985 27.6881 1.51575 27.4841 1.51575 27.2333V10.8625C1.51575 10.6118 1.71975 10.4077 1.97054 10.4077H8.57645V19.0478C8.57645 19.3383 8.74258 19.6033 9.00405 19.7299C9.26533 19.8567 9.57639 19.8226 9.8043 19.6425L11.9618 17.9372L14.1192 19.6425C14.2557 19.7503 14.4218 19.8058 14.5892 19.8058C14.7015 19.8058 14.8145 19.7808 14.9195 19.73C15.1811 19.6034 15.3471 19.3384 15.3471 19.0479V10.4078H21.9528C22.2035 10.4078 22.4076 10.6118 22.4076 10.8626V18.6162H22.4074ZM22.4074 8.89198H21.9526H14.589H10.0922V4.64277H22.4074V8.89198ZM22.4074 3.12693H10.0922V1.51575H22.4074V3.12693ZM46.4843 46.4841H34.1688V42.235H46.4842V46.4841H46.4843ZM46.4843 40.7191H34.1688V39.1078H40.6103H46.4842V40.7191H46.4843Z"/>
</svg>
