<svg width="58" height="57" viewBox="0 0 58 57" xmlns="http://www.w3.org/2000/svg">
<path d="M1 2C1.55228 2 2 1.55228 2 1C2 0.447715 1.55228 0 1 0C0.447715 0 0 0.447715 0 1C0 1.55228 0.447715 2 1 2Z" transform="translate(21 38)" fill="#F28E19"/>
<path d="M8 2C8.55228 2 9 1.55228 9 1C9 0.447715 8.55228 0 8 0C7.44772 0 7 0.447715 7 1C7 1.55228 7.44772 2 8 2Z" transform="translate(21 38)" fill="#F28E19"/>
<path d="M15 2C15.5523 2 16 1.55228 16 1C16 0.447715 15.5523 0 15 0C14.4477 0 14 0.447715 14 1C14 1.55228 14.4477 2 15 2Z" transform="translate(21 38)" fill="#F28E19"/>
<path d="M22 2C22.5523 2 23 1.55228 23 1C23 0.447715 22.5523 0 22 0C21.4477 0 21 0.447715 21 1C21 1.55228 21.4477 2 22 2Z" transform="translate(21 38)" fill="#F28E19"/>
<path d="M42.899 4C42.434 1.721 40.415 0 38 0C37.447 0 37 0.447 37 1C37 1.553 37.447 2 38 2C39.654 2 41 3.346 41 5C41 6.654 39.654 8 38 8C37.447 8 37 8.447 37 9C37 9.553 37.447 10 38 10C40.414 10 42.434 8.279 42.899 6H56V15H2V6H19C19.553 6 20 5.553 20 5C20 4.447 19.553 4 19 4H17.184C17.598 2.838 18.698 2 20 2C21.654 2 23 3.346 23 5C23 6.654 21.654 8 20 8C19.447 8 19 8.447 19 9C19 9.553 19.447 10 20 10C22.757 10 25 7.757 25 5C25 2.243 22.757 0 20 0C17.586 0 15.566 1.721 15.101 4H0V57H58V4H42.899ZM56 55H2V17H56V55Z"/>
<path d="M26 2C27.654 2 29 3.346 29 5C29 6.654 27.654 8 26 8C25.447 8 25 8.447 25 9C25 9.553 25.447 10 26 10C28.757 10 31 7.757 31 5C31 2.243 28.757 0 26 0C25.447 0 25 0.447 25 1C25 1.553 25.447 2 26 2Z"/>
<path d="M32 2C33.654 2 35 3.346 35 5C35 6.654 33.654 8 32 8C31.447 8 31 8.447 31 9C31 9.553 31.447 10 32 10C34.757 10 37 7.757 37 5C37 2.243 34.757 0 32 0C31.447 0 31 0.447 31 1C31 1.553 31.447 2 32 2Z"/>
<path d="M22 25C22.5523 25 23 24.5523 23 24C23 23.4477 22.5523 23 22 23C21.4477 23 21 23.4477 21 24C21 24.5523 21.4477 25 22 25Z"/>
<path d="M29 25C29.5523 25 30 24.5523 30 24C30 23.4477 29.5523 23 29 23C28.4477 23 28 23.4477 28 24C28 24.5523 28.4477 25 29 25Z"/>
<path d="M36 25C36.5523 25 37 24.5523 37 24C37 23.4477 36.5523 23 36 23C35.4477 23 35 23.4477 35 24C35 24.5523 35.4477 25 36 25Z"/>
<path d="M43 25C43.5523 25 44 24.5523 44 24C44 23.4477 43.5523 23 43 23C42.4477 23 42 23.4477 42 24C42 24.5523 42.4477 25 43 25Z"/>
<path d="M50 25C50.5523 25 51 24.5523 51 24C51 23.4477 50.5523 23 50 23C49.4477 23 49 23.4477 49 24C49 24.5523 49.4477 25 50 25Z"/>
<path d="M8 33C8.55228 33 9 32.5523 9 32C9 31.4477 8.55228 31 8 31C7.44772 31 7 31.4477 7 32C7 32.5523 7.44772 33 8 33Z"/>
<path d="M15 33C15.5523 33 16 32.5523 16 32C16 31.4477 15.5523 31 15 31C14.4477 31 14 31.4477 14 32C14 32.5523 14.4477 33 15 33Z"/>
<path d="M22 33C22.5523 33 23 32.5523 23 32C23 31.4477 22.5523 31 22 31C21.4477 31 21 31.4477 21 32C21 32.5523 21.4477 33 22 33Z"/>
<path d="M29 33C29.5523 33 30 32.5523 30 32C30 31.4477 29.5523 31 29 31C28.4477 31 28 31.4477 28 32C28 32.5523 28.4477 33 29 33Z"/>
<path d="M36 33C36.5523 33 37 32.5523 37 32C37 31.4477 36.5523 31 36 31C35.4477 31 35 31.4477 35 32C35 32.5523 35.4477 33 36 33Z"/>
<path d="M43 33C43.5523 33 44 32.5523 44 32C44 31.4477 43.5523 31 43 31C42.4477 31 42 31.4477 42 32C42 32.5523 42.4477 33 43 33Z"/>
<path d="M50 33C50.5523 33 51 32.5523 51 32C51 31.4477 50.5523 31 50 31C49.4477 31 49 31.4477 49 32C49 32.5523 49.4477 33 50 33Z"/>
<path d="M8 40C8.55228 40 9 39.5523 9 39C9 38.4477 8.55228 38 8 38C7.44772 38 7 38.4477 7 39C7 39.5523 7.44772 40 8 40Z"/>
<path d="M15 40C15.5523 40 16 39.5523 16 39C16 38.4477 15.5523 38 15 38C14.4477 38 14 38.4477 14 39C14 39.5523 14.4477 40 15 40Z"/>
<path d="M50 40C50.5523 40 51 39.5523 51 39C51 38.4477 50.5523 38 50 38C49.4477 38 49 38.4477 49 39C49 39.5523 49.4477 40 50 40Z"/>
<path d="M8 48C8.55228 48 9 47.5523 9 47C9 46.4477 8.55228 46 8 46C7.44772 46 7 46.4477 7 47C7 47.5523 7.44772 48 8 48Z"/>
<path d="M15 48C15.5523 48 16 47.5523 16 47C16 46.4477 15.5523 46 15 46C14.4477 46 14 46.4477 14 47C14 47.5523 14.4477 48 15 48Z"/>
<path d="M22 48C22.5523 48 23 47.5523 23 47C23 46.4477 22.5523 46 22 46C21.4477 46 21 46.4477 21 47C21 47.5523 21.4477 48 22 48Z"/>
<path d="M29 48C29.5523 48 30 47.5523 30 47C30 46.4477 29.5523 46 29 46C28.4477 46 28 46.4477 28 47C28 47.5523 28.4477 48 29 48Z"/>
<path d="M36 48C36.5523 48 37 47.5523 37 47C37 46.4477 36.5523 46 36 46C35.4477 46 35 46.4477 35 47C35 47.5523 35.4477 48 36 48Z"/>
</svg>
