<svg width="502" height="503" viewBox="0 0 502 503" xmlns="http://www.w3.org/2000/svg">
<path d="M202.679 153.589C151.093 179.874 130.508 243.227 156.793 294.814C183.077 346.401 246.431 366.985 298.017 340.701C349.604 314.416 370.189 251.063 343.904 199.476C317.619 147.889 254.266 127.305 202.679 153.589ZM284.398 313.97C247.55 332.745 202.298 318.042 183.523 281.194C164.748 244.347 179.452 199.094 216.299 180.319C253.147 161.545 298.399 176.248 317.174 213.096C335.949 249.943 321.245 295.196 284.398 313.97Z" transform="translate(3.65137 6.17432)"/>
<path d="M448.04 96.3984L389.211 110.18C381.011 101.867 372.068 94.3078 362.496 87.5983C363.675 70.5733 366.169 34.579 366.169 34.579C366.645 27.7127 362.386 21.4034 355.84 19.2764L298.777 0.735586C292.231 -1.39137 285.077 1.2099 281.426 7.0444C281.191 7.42007 262.387 37.4702 253.192 52.1316C241.577 51.9546 229.979 52.8182 218.535 54.7132C206.428 40.7067 179.015 8.98464 179.015 8.98464C174.502 3.7622 167.007 2.29406 160.857 5.4275L107.396 32.6669C101.246 35.8008 98.0278 42.7277 99.6007 49.4492C103.533 66.2557 110.108 94.3524 113.366 108.294C104.579 116.957 96.6396 126.443 89.6454 136.633C82.1675 136.116 71.023 135.343 60.713 134.629L34.5808 132.818C27.7118 132.344 21.4056 136.602 19.2782 143.147L0.735586 200.211C-1.39137 206.757 1.20989 213.911 7.0444 217.562C7.37468 217.77 36.349 235.901 55.3111 247.816C55.3393 258.25 56.21 268.666 57.911 278.948C42.3482 292.462 12.5487 318.166 12.1995 318.468C6.96766 322.98 5.49464 330.481 8.63081 336.636L35.8702 390.097C39.0069 396.253 45.9418 399.469 52.6673 397.888C53.1115 397.784 91.1375 388.849 111.512 384.107C119.819 392.559 128.915 400.237 138.686 407.051L135.168 457.844C134.692 464.711 138.951 471.021 145.497 473.147L202.561 491.688C209.108 493.816 216.26 491.214 219.912 485.38C220.14 485.014 238.138 456.252 246.983 442.151C258.785 442.363 270.573 441.502 282.199 439.574L321.675 485.296C326.186 490.526 333.685 491.998 339.84 488.862L393.3 461.623C399.451 458.488 402.669 451.559 401.095 444.836L387.314 386.012C395.933 377.512 403.705 368.244 410.532 358.326C427.317 359.489 462.239 361.909 462.239 361.909C469.104 362.385 475.415 358.127 477.541 351.58L496.082 294.516C498.209 287.97 495.607 280.816 489.773 277.165C489.773 277.165 459.668 258.327 445.355 249.37C445.504 237.972 444.641 226.576 442.776 215.319C456.66 203.307 488.124 176.144 488.503 175.818C493.73 171.305 495.201 163.807 492.066 157.653L464.826 104.193C461.691 98.0407 454.763 94.8236 448.04 96.3984ZM459.996 160.795C446.497 172.451 422.022 193.588 417.36 197.647L416.481 198.413C412.437 201.999 410.636 207.485 411.766 212.771C414.845 227.172 415.96 241.916 415.079 256.591C414.751 262.069 417.441 267.29 422.092 270.203C423.378 271.008 449.261 287.205 463.931 296.384L452.629 331.169C435.125 329.957 404.097 327.807 403.834 327.789C398.278 327.403 392.966 330.124 390.038 334.857C382.035 347.785 372.19 359.542 360.776 369.805C356.792 373.387 355.019 378.823 356.13 384.065C356.791 387.186 357.544 390.461 357.557 390.518L369.203 440.231L336.7 456.792L307.071 422.459L299.177 413.391C295.597 409.276 290.062 407.429 284.728 408.57C270.019 411.714 254.928 412.815 239.876 411.842C234.41 411.488 229.186 414.144 226.249 418.765C224.237 421.932 209.371 445.673 200.692 459.54L165.904 448.236L169.216 400.417C169.597 394.907 166.921 389.634 162.247 386.69C149.381 378.584 137.762 368.78 127.717 357.546C124.073 353.47 118.499 351.701 113.172 352.927C102.387 355.41 73.4861 362.186 57.2583 365.995L40.6999 333.497C53.438 322.5 76.1895 302.845 84.1255 295.898C88.2164 292.317 90.0489 286.8 88.9146 281.482C86.0307 267.971 84.8678 254.107 85.4595 240.273C85.6897 234.896 83.0214 229.809 78.4679 226.941C66.4848 219.392 45.3328 206.14 32.8859 198.346L44.1889 163.557L58.6384 164.558C76.0522 165.765 95.8439 167.136 96.3786 167.172C101.921 167.547 107.218 164.828 110.142 160.104C118.357 146.841 128.389 134.845 139.961 124.449C144.014 120.808 145.773 115.256 144.557 109.945C144.3 108.818 135.926 73.0245 131.49 54.0605L164.003 37.4944C177.443 53.0457 201.25 80.5939 201.528 80.9124C205.11 85.0221 210.64 86.8643 215.972 85.7245C230.528 82.6131 245.462 81.502 260.36 82.4206C265.823 82.7584 271.037 80.0927 273.962 75.4668C276.577 71.3306 291.844 46.9469 300.644 32.885L335.431 44.188C334.217 61.7111 332.056 92.8983 331.965 94.204C331.583 99.7015 334.247 104.966 338.903 107.916C351.544 115.922 363.016 125.611 373.002 136.715C376.58 140.691 382.001 142.463 387.235 141.364C390.375 140.706 393.665 139.947 393.721 139.935L443.434 128.289L459.996 160.795Z" transform="translate(3.65137 6.17432)"/>
</svg>
