<svg width="49" height="48" viewBox="0 0 49 48" xmlns="http://www.w3.org/2000/svg">
<path d="M16.3333 0H3.26667C1.46255 0 0 1.45698 0 3.25424C0 5.05149 1.46255 6.50847 3.26667 6.50847H16.3333C18.1375 6.50847 19.6 5.05149 19.6 3.25424C19.6 1.45698 18.1375 0 16.3333 0ZM17.4881 4.40461C17.1811 4.70868 16.7663 4.87993 16.3333 4.88136H3.26667C2.83383 4.87993 2.41886 4.70868 2.1119 4.40461C1.47429 3.76922 1.47429 2.73925 2.1119 2.10386C2.41886 1.7998 2.83383 1.62854 3.26667 1.62712H16.3333C16.7663 1.62854 17.1811 1.7998 17.4881 2.10386C18.1257 2.73925 18.1257 3.76922 17.4881 4.40461Z" transform="translate(24.5 22.7797)"/>
<path d="M0.816667 0C0.365662 0 0 0.364271 0 0.813559V24.4068C0 24.8561 0.365662 25.2203 0.816667 25.2203C1.26767 25.2203 1.63333 24.8561 1.63333 24.4068V0.813559C1.63333 0.364271 1.26767 0 0.816667 0Z" transform="translate(45.7333 22.7797)"/>
<path d="M15.5167 0H0.816667C0.365662 0 0 0.364271 0 0.813559V20.339C0 20.7883 0.365662 21.1525 0.816667 21.1525V24.4068C0.816667 24.8561 1.18233 25.2203 1.63333 25.2203C2.08434 25.2203 2.45 24.8561 2.45 24.4068V21.1525H15.5167C15.9677 21.1525 16.3333 20.7883 16.3333 20.339V0.813559C16.3333 0.364271 15.9677 0 15.5167 0ZM14.7 19.5254H1.63333V14.6441H14.7V19.5254ZM14.7 13.0169H1.63333V8.13559H14.7V13.0169ZM14.7 6.50847H1.63333V1.62712H14.7V6.50847Z" transform="translate(1.63335 22.7797)"/>
<path d="M5.71667 0H0.816667C0.365662 0 0 0.364271 0 0.813559V17.0847C0 17.534 0.365662 17.8983 0.816667 17.8983H5.71667C6.16767 17.8983 6.53333 17.534 6.53333 17.0847V0.813559C6.53333 0.364271 6.16767 0 5.71667 0ZM4.9 16.2712H1.63333V14.6441H4.9V16.2712ZM4.9 13.0169H1.63333V11.3898H4.9V13.0169ZM4.9 9.76271H1.63333V1.62712H4.9V9.76271Z" transform="translate(3.2667)" fill="#F28E19"/>
<path d="M5.71667 0H0.816667C0.365662 0 0 0.364271 0 0.813559V17.0847C0 17.534 0.365662 17.8983 0.816667 17.8983H5.71667C6.16767 17.8983 6.53333 17.534 6.53333 17.0847V0.813559C6.53333 0.364271 6.16767 0 5.71667 0ZM4.9 16.2712H1.63333V14.6441H4.9V16.2712ZM4.9 13.0169H1.63333V11.3898H4.9V13.0169ZM4.9 9.76271H1.63333V1.62712H4.9V9.76271Z" transform="translate(11.4333)" fill="#F28E19"/>
<path d="M48.1833 15.4576H41.5545L41.0604 11.5241C40.8742 10.054 39.62 8.95098 38.1326 8.94915H35.1167V7.32203H36.7386C38.3681 7.32234 39.6894 6.00651 39.6897 4.38315C39.6897 4.24332 39.6797 4.10369 39.6598 3.96529L39.4548 2.53261C39.2404 1.08275 37.9948 0.00650847 36.5238 0H32.0762C30.6051 0.00650847 29.3596 1.08275 29.1452 2.53261L28.9402 3.96529C28.7088 5.57227 29.829 7.0618 31.442 7.29224C31.5809 7.31207 31.7211 7.32203 31.8614 7.32203H33.4833V8.94915H30.4674C28.98 8.95098 27.7258 10.054 27.5396 11.5241L27.0456 15.4576H0.816667C0.365662 15.4576 0 15.8219 0 16.2712C0 16.7205 0.365662 17.0847 0.816667 17.0847H48.1833C48.6343 17.0847 49 16.7205 49 16.2712C49 15.8219 48.6343 15.4576 48.1833 15.4576ZM31.8614 5.69492C31.1326 5.69492 30.5417 5.1063 30.5417 4.3802C30.5417 4.31837 30.5461 4.25664 30.5548 4.19553L30.7598 2.76285C30.8554 2.11169 31.414 1.62783 32.0746 1.62386H36.5222C37.1827 1.62783 37.7413 2.11169 37.837 2.76285L38.042 4.19553C38.1444 4.91441 37.6423 5.5799 36.9207 5.6819C36.8604 5.69044 36.7995 5.69481 36.7386 5.69492H31.8614ZM28.6919 15.4576L29.1599 11.7258C29.2433 11.0695 29.8033 10.5772 30.4674 10.5763H38.1326C38.7964 10.5776 39.3559 11.0698 39.4393 11.7258L39.9081 15.4576H28.6919Z" transform="translate(0 4.06781)"/>
<path d="M17.7481 11.3988C17.6048 11.1515 17.3985 10.946 17.1503 10.8033V10.8016C17.1377 8.87776 15.5698 7.32427 13.6386 7.32203H9.80028V0.813559C9.80028 0.364271 9.43462 0 8.98361 0C8.53261 0 8.16695 0.364271 8.16695 0.813559V7.32203H4.32861C2.3974 7.32427 0.829505 8.87776 0.816948 10.8016C0.0357046 11.2509 -0.231958 12.2461 0.219148 13.0243C0.670152 13.8025 1.66914 14.0692 2.45028 13.6198C3.23153 13.1705 3.49919 12.1753 3.04808 11.3972C2.90476 11.1498 2.69855 10.9444 2.45028 10.8016C2.46059 9.77553 3.29849 8.94915 4.32861 8.94915H8.16695V10.8024C7.3857 11.2517 7.11804 12.2469 7.56915 13.0251C8.02015 13.8034 9.01914 14.07 9.80028 13.6206C10.5815 13.1713 10.8492 12.1761 10.3981 11.398C10.2548 11.1506 10.0485 10.9452 9.80028 10.8024V8.94915H13.6386C14.6694 8.94915 15.5076 9.77654 15.5169 10.8033C14.7357 11.2525 14.468 12.2477 14.9191 13.0259C15.3702 13.8042 16.3691 14.0708 17.1503 13.6214C17.9315 13.1721 18.1992 12.1771 17.7481 11.3988Z" transform="translate(25.3164 30.9153)"/>
</svg>
