<svg width="48" height="48" viewBox="0 0 48 48" xmlns="http://www.w3.org/2000/svg">
<path d="M27 0H9C8.58581 0 8.25 0.335752 8.25 0.749864H3.1935C1.84472 0.751551 0.751688 1.84438 0.750001 3.19292V3.74932C0.750001 4.16343 1.08581 4.49919 1.5 4.49919H1.623L1.28475 8.5537C0.496688 8.97681 0.00365674 9.79726 4.92096e-07 10.6916V14.9973C4.92096e-07 15.4114 0.335813 15.7471 0.750001 15.7471H1.53825C1.72997 17.59 3.37959 18.9286 5.22281 18.737C6.80138 18.5729 8.049 17.3254 8.21325 15.7471H8.25C8.25 16.1613 8.58581 16.497 9 16.497H19.677C20.2691 18.2029 22.1322 19.1058 23.8384 18.5138C24.784 18.1856 25.5273 17.4425 25.8555 16.497H27C27.4142 16.497 27.75 16.1613 27.75 15.7471V0.749864C27.75 0.335752 27.4143 0 27 0ZM4.875 17.2469C3.83944 17.2469 3 16.4076 3 15.3722C3 14.3368 3.83944 13.4976 4.875 13.4976C5.91056 13.4976 6.75 14.3368 6.75 15.3722C6.75 16.4076 5.91056 17.2469 4.875 17.2469ZM8.25 14.2474H8.043C7.5691 12.9032 6.30056 12.0024 4.875 11.9978C3.44944 12.0024 2.18091 12.9032 1.707 14.2474H1.5V10.6916C1.50038 10.1708 1.92263 9.74861 2.4435 9.74823H8.25V14.2474ZM8.25 8.24851H2.8155L3.1275 4.49919H8.25V8.24851ZM8.25 2.99946H2.2695C2.36194 2.56275 2.74706 2.25015 3.1935 2.24959H8.25V2.99946ZM24.5565 15.4045C24.5557 16.393 23.7542 17.194 22.7655 17.1944C21.7763 17.1944 20.9745 16.3927 20.9745 15.4037C20.9745 14.4147 21.7763 13.613 22.7655 13.613C23.7547 13.613 24.5565 14.4147 24.5565 15.4037C24.5565 15.404 24.5565 15.4042 24.5565 15.4045ZM26.25 14.9973H26.0153C25.8002 13.2032 24.1713 11.9232 22.3768 12.1381C20.8782 12.3177 19.6968 13.4989 19.5172 14.9973H9.75V1.49973H26.25V14.9973Z" transform="translate(20.25 29.2448)"/>
<path d="M7.5 20.2463C7.72509 20.2461 7.93819 20.1448 8.0805 19.9704C8.78925 19.1028 15 11.3814 15 7.49864C15 3.35724 11.6422 0 7.5 0C3.35784 0 0 3.35724 0 7.49864C0 11.3814 6.21075 19.1028 6.9195 19.9704C7.06181 20.1448 7.27491 20.2461 7.5 20.2463ZM7.5 1.49973C10.8122 1.50348 13.4963 4.18705 13.5 7.49864C13.5 10.0714 9.59325 15.6099 7.5 18.2967C5.40675 15.6099 1.5 10.0714 1.5 7.49864C1.50375 4.18705 4.18781 1.50348 7.5 1.49973Z" fill="#F28E19"/>
<path d="M8.25 4.12425C8.25 1.84645 6.40322 -7.15126e-08 4.125 -7.15126e-08C1.84678 -7.15126e-08 1.34468e-07 1.84645 1.34468e-07 4.12425C1.34468e-07 6.40206 1.84678 8.24851 4.125 8.24851C6.40219 8.24607 8.24756 6.40103 8.25 4.12425ZM1.5 4.12425C1.5 2.67477 2.67525 1.49973 4.125 1.49973C5.57475 1.49973 6.75 2.67477 6.75 4.12425C6.75 5.57374 5.57475 6.74878 4.125 6.74878C2.67525 6.74878 1.5 5.57374 1.5 4.12425Z" transform="translate(3.375 2.69962)" fill="#F28E19"/>
<path d="M0.750001 0C0.335813 0 4.92096e-07 0.335752 4.92096e-07 0.749864C4.92096e-07 1.16398 0.335813 1.49973 0.750001 1.49973H2.25C2.66419 1.49973 3 1.16398 3 0.749864C3 0.335752 2.66419 0 2.25 0H0.750001Z" transform="translate(19.5 23.2456)"/>
<path d="M0.749999 0C0.335812 0 -9.38416e-07 0.335752 -9.38416e-07 0.749864C-9.38416e-07 1.16398 0.335812 1.49973 0.749999 1.49973H2.25C2.66419 1.49973 3 1.16398 3 0.749864C3 0.335752 2.66419 0 2.25 0H0.749999Z" transform="translate(24 23.2456)"/>
<path d="M0.749999 1.49973H2.25C2.66419 1.49973 3 1.16398 3 0.749864C3 0.335752 2.66419 0 2.25 0H0.749999C0.335812 0 4.92096e-07 0.335752 4.92096e-07 0.749864C4.92096e-07 1.16398 0.335812 1.49973 0.749999 1.49973Z" transform="translate(23.25 14.9973)"/>
<path d="M0.750001 1.49973H2.25C2.66419 1.49973 3 1.16398 3 0.749864C3 0.335752 2.66419 0 2.25 0H0.750001C0.335813 0 4.92096e-07 0.335752 4.92096e-07 0.749864C4.92096e-07 1.16398 0.335813 1.49973 0.750001 1.49973Z" transform="translate(18.75 14.9973)"/>
<path d="M1.5 0.749864C1.5 0.335752 1.16419 0 0.750001 0C0.335813 0 4.92096e-07 0.335752 4.92096e-07 0.749864V2.24959C4.92096e-07 2.66371 0.335813 2.99946 0.750001 2.99946C1.16419 2.99946 1.5 2.66371 1.5 2.24959V0.749864Z" transform="translate(15 18.7466)"/>
<path d="M4.92096e-07 1.49973C4.92096e-07 1.91384 0.335813 2.24959 0.750001 2.24959C1.16419 2.24959 1.5 1.91384 1.5 1.49973C1.91419 1.49973 2.25 1.16398 2.25 0.749864C2.25 0.335752 1.91419 0 1.5 0H0.750001C0.335813 0 4.92096e-07 0.335752 4.92096e-07 0.749864V1.49973Z" transform="translate(15 14.9973)"/>
<path d="M0.749999 1.49973H2.25C2.66419 1.49973 3 1.16398 3 0.749864C3 0.335752 2.66419 0 2.25 0H0.749999C0.335812 0 -9.38416e-07 0.335752 -9.38416e-07 0.749864C-9.38416e-07 1.16398 0.335812 1.49973 0.749999 1.49973Z" transform="translate(41.25 14.9973)"/>
<path d="M2.25 0H0.750001C0.335813 0 4.92096e-07 0.335752 4.92096e-07 0.749864C4.92096e-07 1.16398 0.335813 1.49973 0.750001 1.49973H2.25C2.66419 1.49973 3 1.16398 3 0.749864C3 0.335752 2.66428 0 2.25 0Z" transform="translate(13.5 23.2456)"/>
<path d="M0.749999 0C0.335812 0 -9.38416e-07 0.335752 -9.38416e-07 0.749864C-9.38416e-07 1.16398 0.335812 1.49973 0.749999 1.49973H2.25C2.66419 1.49973 3 1.16398 3 0.749864C3 0.335752 2.66419 0 2.25 0H0.749999Z" transform="translate(42 23.2456)"/>
<path d="M0.749999 2.99946C1.16419 2.99946 1.5 2.66371 1.5 2.24959V0.749864C1.5 0.335752 1.16419 0 0.749999 0C0.335812 0 -9.38416e-07 0.335752 -9.38416e-07 0.749864V2.24959C-9.38416e-07 2.66371 0.335812 2.99946 0.749999 2.99946Z" transform="translate(45 15.7473)"/>
<path d="M0.749999 0C0.335812 0 -9.38416e-07 0.335752 -9.38416e-07 0.749864C-9.38416e-07 1.16398 0.335812 1.49973 0.749999 1.49973H2.25C2.66419 1.49973 3 1.16398 3 0.749864C3 0.335752 2.66419 0 2.25 0H0.749999Z" transform="translate(37.5 23.2456)"/>
<path d="M0.749999 1.49973H2.25C2.66419 1.49973 3 1.16398 3 0.749864C3 0.335752 2.66419 0 2.25 0H0.749999C0.335812 0 -9.38416e-07 0.335752 -9.38416e-07 0.749864C-9.38416e-07 1.16398 0.335812 1.49973 0.749999 1.49973Z" transform="translate(27.75 14.9973)"/>
<path d="M0.749999 2.99946C1.16419 2.99946 1.5 2.66371 1.5 2.24959V0.749864C1.5 0.335752 1.16419 0 0.749999 0C0.335812 0 -9.38416e-07 0.335752 -9.38416e-07 0.749864V2.24959C-9.38416e-07 2.66371 0.335812 2.99946 0.749999 2.99946Z" transform="translate(45 20.2463)"/>
<path d="M0.749999 1.49973H2.25C2.66419 1.49973 3 1.16398 3 0.749864C3 0.335752 2.66419 0 2.25 0H0.749999C0.335812 0 -9.38416e-07 0.335752 -9.38416e-07 0.749864C-9.38416e-07 1.16398 0.335812 1.49973 0.749999 1.49973Z" transform="translate(32.25 14.9973)"/>
<path d="M0.749999 0C0.335812 0 -9.38416e-07 0.335752 -9.38416e-07 0.749864C-9.38416e-07 1.16398 0.335812 1.49973 0.749999 1.49973H2.25C2.66419 1.49973 3 1.16398 3 0.749864C3 0.335752 2.66419 0 2.25 0H0.749999Z" transform="translate(28.5 23.2456)"/>
<path d="M0.749999 0C0.335812 0 -9.38416e-07 0.335752 -9.38416e-07 0.749864C-9.38416e-07 1.16398 0.335812 1.49973 0.749999 1.49973H2.25C2.66419 1.49973 3 1.16398 3 0.749864C3 0.335752 2.66419 0 2.25 0H0.749999Z" transform="translate(33 23.2456)"/>
<path d="M0.749999 1.49973H2.25C2.66419 1.49973 3 1.16398 3 0.749864C3 0.335752 2.66419 0 2.25 0H0.749999C0.335812 0 -9.38416e-07 0.335752 -9.38416e-07 0.749864C-9.38416e-07 1.16398 0.335812 1.49973 0.749999 1.49973Z" transform="translate(36.75 14.9973)"/>
<path d="M-4.43459e-08 2.24959C-4.43459e-08 2.66371 0.335812 2.99946 0.75 2.99946C1.16419 2.99946 1.5 2.66371 1.5 2.24959V0.749864C1.5 0.335752 1.16419 0 0.75 0C0.335812 0 -4.43459e-08 0.335752 -4.43459e-08 0.749864V2.24959Z" transform="translate(0.75 29.9944)"/>
<path d="M1.5 0.749864C1.5 0.335752 1.16419 0 0.75 0C0.335812 0 -2.2316e-07 0.335752 -2.2316e-07 0.749864V1.49973C-2.2316e-07 1.91384 0.335812 2.24959 0.75 2.24959H1.5C1.91419 2.24959 2.25 1.91384 2.25 1.49973C2.25 1.08562 1.91428 0.749864 1.5 0.749864Z" transform="translate(8.25 41.9922)"/>
<path d="M2.25 0H0.750001C0.335813 0 4.92096e-07 0.335752 4.92096e-07 0.749864C4.92096e-07 1.16398 0.335813 1.49973 0.750001 1.49973H2.25C2.66419 1.49973 3 1.16398 3 0.749864C3 0.335752 2.66428 0 2.25 0Z" transform="translate(12 42.7422)"/>
<path d="M2.25 0H0.750001C0.335813 0 4.92096e-07 0.335752 4.92096e-07 0.749864C4.92096e-07 1.16398 0.335813 1.49973 0.750001 1.49973H2.25C2.66419 1.49973 3 1.16398 3 0.749864C3 0.335752 2.66428 0 2.25 0Z" transform="translate(12.75 38.9929)"/>
<path d="M2.25 0H0.75C0.335812 0 -2.2316e-07 0.335752 -2.2316e-07 0.749864C-2.2316e-07 1.16398 0.335812 1.49973 0.75 1.49973H2.25C2.66419 1.49973 3 1.16398 3 0.749864C3 0.335752 2.66428 0 2.25 0Z" transform="translate(8.25 38.9929)"/>
<path d="M0.750001 0C0.335813 0 4.92096e-07 0.335752 4.92096e-07 0.749864V2.24959C4.92096e-07 2.66371 0.335813 2.99946 0.750001 2.99946C1.16419 2.99946 1.5 2.66371 1.5 2.24959V0.749864C1.5 0.335752 1.16428 0 0.750001 0Z" transform="translate(14.25 34.4939)"/>
<path d="M1.5 0.749864C1.5 0.335752 1.16419 0 0.750001 0C0.335813 0 4.92096e-07 0.335752 4.92096e-07 0.749864V2.24959C4.92096e-07 2.66371 0.335813 2.99946 0.750001 2.99946C1.16419 2.99946 1.5 2.66371 1.5 2.24959V0.749864Z" transform="translate(18.75 25.4954)"/>
<path d="M2.25 0H0.750001C0.335813 0 4.92096e-07 0.335752 4.92096e-07 0.749864C4.92096e-07 1.16398 0.335813 1.49973 0.750001 1.49973H2.25C2.66419 1.49973 3 1.16398 3 0.749864C3 0.335752 2.66428 0 2.25 0Z" transform="translate(16.5 42.7422)"/>
<path d="M3 0.749864C3 0.335752 2.66419 0 2.25 0H0.750001C0.335813 0 4.92096e-07 0.335752 4.92096e-07 0.749864C4.92096e-07 1.16398 0.335813 1.49973 0.750001 1.49973H2.25C2.66428 1.49973 3 1.16398 3 0.749864Z" transform="translate(15 27.7451)"/>
<path d="M2.25 0H0.75C0.335812 0 1.34468e-07 0.335752 1.34468e-07 0.749864C1.34468e-07 1.16398 0.335812 1.49973 0.75 1.49973H2.25C2.66419 1.49973 3 1.16398 3 0.749864C3 0.335752 2.66428 0 2.25 0Z" transform="translate(5.25 34.4939)"/>
<path d="M3 0.749864C3 0.335752 2.66419 0 2.25 0H0.75C0.335812 0 -2.2316e-07 0.335752 -2.2316e-07 0.749864C-2.2316e-07 1.16398 0.335812 1.49973 0.75 1.49973H2.25C2.66428 1.49973 3 1.16398 3 0.749864Z" transform="translate(10.5 27.7451)"/>
<path d="M0.75 1.49973H2.25C2.66419 1.49973 3 1.16398 3 0.749864C3 0.335752 2.66419 0 2.25 0H0.75C0.335812 0 -2.2316e-07 0.335752 -2.2316e-07 0.749864C-2.2316e-07 1.16398 0.335812 1.49973 0.75 1.49973Z" transform="translate(9.75 34.4939)"/>
<path d="M-2.2316e-07 0.749864C-2.2316e-07 1.16398 0.335812 1.49973 0.75 1.49973H2.25C2.66419 1.49973 3 1.16398 3 0.749864C3 0.335752 2.66419 0 2.25 0H0.75C0.335812 0 -2.2316e-07 0.335752 -2.2316e-07 0.749864Z" transform="translate(6 27.7451)"/>
<path d="M3 0.749864C3 0.335752 2.66419 0 2.25 0H0.75C0.335812 0 -2.2316e-07 0.335752 -2.2316e-07 0.749864C-2.2316e-07 1.16398 0.335812 1.49973 0.75 1.49973H2.25C2.66428 1.49973 3 1.16398 3 0.749864Z" transform="translate(9 23.2456)"/>
<path d="M1.5 2.24959V0.749864C1.5 0.335752 1.16419 0 0.75 0C0.335812 0 -2.2316e-07 0.335752 -2.2316e-07 0.749864V2.24959C-2.2316e-07 2.66371 0.335812 2.99946 0.75 2.99946C1.16419 2.99946 1.5 2.66371 1.5 2.24959Z" transform="translate(6.75 20.9963)"/>
<path d="M2.25 0H0.75C0.335812 0 -4.43459e-08 0.335752 -4.43459e-08 0.749864C-4.43459e-08 1.16398 0.335812 1.49973 0.75 1.49973H2.25C2.66419 1.49973 3 1.16398 3 0.749864C3 0.335752 2.66428 0 2.25 0Z" transform="translate(1.5 27.7451)"/>
<path d="M2.25 0H0.75C0.335812 0 -4.43459e-08 0.335752 -4.43459e-08 0.749864C-4.43459e-08 1.16398 0.335812 1.49973 0.75 1.49973H2.25C2.66419 1.49973 3 1.16398 3 0.749864C3 0.335752 2.66428 0 2.25 0Z" transform="translate(0.75 34.4939)"/>
</svg>
