<svg width="24" height="27" viewBox="0 0 24 27" xmlns="http://www.w3.org/2000/svg">
<path d="M24 23.4089V25C24 25 16.6863 27 12 27C7.31371 27 -2.31329e-08 25 -2.31329e-08 25V23.4081C-2.31329e-08 21.7124 1.43349 19.6248 3.18466 18.7765L7.08138 16.8884L9.78638 22.6373L11.1714 18.8076C11.4444 18.8603 11.7152 18.9305 12 18.9305C12.2848 18.9305 12.5548 18.8603 12.8286 18.8076L14.1432 22.4489L16.795 16.8245L20.8177 18.7757C22.5665 19.624 24 21.7116 24 23.4089ZM3.53991 10.8227V8.22912C3.53991 7.78941 3.76448 7.40397 4.10329 7.18212C4.5579 3.14577 7.9241 0 12.0016 0C16.079 0 19.446 3.14577 19.9014 7.18212C20.2394 7.40397 20.464 7.78941 20.464 8.22912V10.8227C20.464 11.5114 19.9171 12.07 19.241 12.07C18.5649 12.07 18.018 11.5114 18.018 10.8227V10.2776C17.356 13.6732 14.9186 16.8253 12.0023 16.8253C9.08607 16.8253 6.64867 13.6732 5.9867 10.2776V10.8227C5.9867 11.3813 5.62285 11.8489 5.12598 12.0077C5.61268 13.6971 6.69249 15.1567 8.18388 16.1143C8.45931 16.0217 8.80673 16.0393 9.14397 16.218C9.68545 16.5053 9.96166 17.0639 9.75665 17.4629C9.55243 17.8619 8.94836 17.9513 8.40376 17.6632C8.00626 17.4518 7.7543 17.0966 7.7277 16.7647C6.01956 15.6506 4.80829 13.9453 4.30829 11.9782C3.85916 11.7946 3.53991 11.3478 3.53991 10.8227ZM4.93662 6.89085C4.9734 6.89324 5.00861 6.89404 5.04382 6.90761C5.13224 6.94112 5.1964 7.00576 5.241 7.08157C5.50626 7.19649 5.71753 7.40637 5.84742 7.66652C6.20814 4.2183 8.8216 2.39404 12 2.39404C15.1784 2.39404 17.7919 4.2183 18.1526 7.66652C18.3318 7.30821 18.6721 7.05205 19.0798 6.99858C18.5509 3.49291 15.5822 0.797216 12 0.797216C8.45462 0.798014 5.50939 3.43864 4.93662 6.89085Z"/>
</svg>
