<svg width="22" height="27" viewBox="0 0 22 27" xmlns="http://www.w3.org/2000/svg">
<path d="M19.8475 2.3597C17.0942 1.63148 14.8605 -8.54745e-08 14.8605 -8.54745e-08L13.1127 5.7277L12.782 6.80602L12.7752 6.79201L12.4918 7.70228L11.574 4.99248C13.8347 1.71551 11.1152 1.75052 10.9667 1.75752C10.8115 1.75052 8.0919 1.72251 10.3593 4.99248L9.44157 7.70228L9.15814 6.79201L9.15139 6.80602L8.82072 5.7277L7.07291 -8.54745e-08C7.07291 -8.54745e-08 4.83921 1.63148 2.08589 2.3597C0.0343992 2.89886 -0.0668257 5.35659 0.0209025 6.57495C0.0141542 6.57495 0.135624 8.22744 0.257094 8.94865C0.257094 8.94865 4.25885 11.6515 10.9667 11.6515C17.6745 11.6515 21.6763 8.94865 21.6763 8.94865C21.7978 8.22044 21.9125 6.57495 21.9125 6.57495C21.9935 5.35659 21.899 2.89886 19.8475 2.3597Z" transform="translate(0 15.3409)"/>
<path d="M10.9016 7.63865C10.9893 7.38657 11.05 7.1345 11.0973 6.88242C11.8598 2.12101 9.59913 1.95296 9.59913 1.95296C9.59913 1.95296 9.22122 1.20374 8.23597 0.636571C7.57463 0.230451 6.65686 -0.0846426 5.44216 0.0203885C5.05076 0.0413947 4.6796 0.118418 4.32868 0.237453C3.88329 0.391499 3.47165 0.622567 3.10049 0.888646C2.64835 1.18973 2.21646 1.55384 1.83855 1.96697C1.23795 2.60415 0.704831 3.4234 0.475388 4.4457C0.279686 5.20893 0.326925 6.00716 0.488885 6.86842C0.536123 7.12049 0.596858 7.37257 0.684586 7.62464C0.232448 7.58263 -0.30067 7.85571 0.205455 9.69025C0.563116 11.0487 0.900533 11.4268 1.16372 11.4478C1.39991 13.0512 2.58762 15.0818 4.54463 15.7961C5.34768 16.0901 6.22497 16.0901 7.02802 15.7891C8.95129 15.0678 10.1795 13.0442 10.4157 11.4478C10.6721 11.4268 11.0163 11.0487 11.3807 9.70426C11.8801 7.86271 11.3469 7.58963 10.9016 7.63865Z" transform="translate(5.17969)"/>
</svg>
