<svg width="25" height="27" viewBox="0 0 25 27" xmlns="http://www.w3.org/2000/svg">
<path d="M15.083 14.2911C13.5735 12.6595 12.8398 11.274 12.8398 10.0557V9.98434L12.8496 9.91364C12.8584 9.85084 12.9464 9.22149 13.0641 8.40692L11.6088 7.99599L11.4968 6.63963C13.62 5.35335 14.6727 2.6249 14.4131 0C13.0563 1.15322 10.9733 1.61272 9.16562 1.61272C7.35799 1.61272 5.27346 1.152 3.91813 0C3.64792 2.73108 4.78822 5.39998 6.83442 6.63963L6.7224 7.99599L1.18737 9.559C0.403241 9.78041 -0.0956137 10.5282 0.0154132 11.3158L0.561529 15.19C0.663717 15.9152 1.30012 16.4556 2.05187 16.4556H16.2794C16.5822 16.4556 16.8655 16.3667 17.1036 16.2146C16.4755 15.6766 15.7474 15.0093 15.083 14.2911V14.2911Z" transform="translate(0 10.4981)"/>
<path d="M0.343808 7.04467C0.849337 7.37577 1.15365 7.57505 1.65611 7.90412C1.395 9.62259 3.89757 11.0571 7.00317 11.0571C10.1124 11.0571 12.6108 9.62083 12.3502 7.90412C12.8516 7.57575 13.158 7.37516 13.6625 7.04467C13.9373 6.86472 14.065 6.53503 13.9806 6.22325L13.223 3.4234C13.1259 3.0642 12.8761 2.76235 12.5365 2.59328L7.6135 0.143066C7.23019 -0.0476887 6.77607 -0.0476887 6.39275 0.143066L1.46977 2.59328C1.13011 2.76235 0.880453 3.0642 0.783226 3.4234L0.025699 6.22325C-0.058631 6.53512 0.0689915 6.86472 0.343808 7.04467V7.04467ZM5.41281 3.0656C5.4359 2.91253 5.57073 2.79923 5.72956 2.79923H8.29752C8.45816 2.79923 8.5939 2.91507 8.615 3.07008L8.80359 4.45736C8.80359 5.15109 7.67276 6.10829 7.20349 6.47566C7.08642 6.56726 6.91947 6.567 6.8024 6.47539C6.33295 6.10785 5.20266 5.15091 5.20266 4.45736L5.41281 3.0656V3.0656Z" transform="translate(2.16211)"/>
<path d="M10.3049 1.16368C10.1316 0.240376 8.1755 0.00526947 5.5389 0C2.9023 0.0053573 0.946209 0.240376 0.772949 1.16368C0.535021 2.43177 0 6.2647 0 6.2647C0 8.4294 3.57902 11.4279 4.98314 12.5211C5.14575 12.6476 5.34219 12.7109 5.53863 12.7109C5.73561 12.7109 5.9325 12.6474 6.09557 12.5204C7.50032 11.4268 11.0779 8.42905 11.0779 6.26479C11.0778 6.2647 10.5428 2.43177 10.3049 1.16368V1.16368ZM8.4753 4.76325C8.40901 4.76325 8.34651 4.74832 8.29041 4.72233L7.28223 5.81987L7.43538 7.28514C7.64463 7.31421 7.80562 7.48889 7.80562 7.70064C7.80562 7.93267 7.61243 8.12079 7.37414 8.12079C7.13585 8.12079 6.94266 7.93267 6.94266 7.70064C6.94266 7.68606 6.94347 7.67165 6.94491 7.65751L5.5389 7.05337L4.15102 7.64978C4.15309 7.66647 4.15445 7.68342 4.15445 7.70072C4.15445 7.93275 3.96125 8.12088 3.72297 8.12088C3.48468 8.12088 3.29149 7.93275 3.29149 7.70072C3.29149 7.49565 3.44247 7.3251 3.64215 7.28821L3.79557 5.82005L2.7874 4.7225C2.7313 4.7485 2.6688 4.76343 2.6025 4.76343C2.36422 4.76343 2.17102 4.57531 2.17102 4.34319C2.17102 4.11116 2.36422 3.92304 2.6025 3.92304C2.7635 3.92304 2.90366 4.00902 2.97779 4.13636L4.46137 3.82423L5.21899 2.55622C5.1499 2.48175 5.10742 2.3833 5.10742 2.27492C5.10742 2.04289 5.30061 1.85477 5.5389 1.85477C5.77719 1.85477 5.97047 2.04289 5.97047 2.27492C5.97047 2.3833 5.92799 2.48166 5.8589 2.55622L6.61652 3.82423L8.10019 4.13636C8.17433 4.0091 8.31449 3.92304 8.47548 3.92304C8.71377 3.92304 8.90696 4.11116 8.90696 4.34319C8.90687 4.57513 8.71368 4.76325 8.4753 4.76325V4.76325Z" transform="translate(13.9219 14.289)"/>
</svg>
