<svg width="43" height="48" viewBox="0 0 43 48" xmlns="http://www.w3.org/2000/svg">
<path d="M34.4672 39.2516C34.6429 39.1113 34.7556 38.8964 34.7556 38.6553C34.7556 38.6486 34.7556 3.82979 34.7556 3.82979C34.7556 3.40667 34.4096 3.06383 33.9827 3.06383H11.6212C11.0698 1.29161 9.40183 0 7.43502 0C5.49985 0 3.80655 1.27803 3.24954 3.06383H0.772914C0.345956 3.06383 5.66099e-08 3.40667 5.66099e-08 3.82979V47.234C5.66099e-08 47.6572 0.345956 48 0.772914 48H25.3193C25.5692 48 25.7859 47.8885 25.9276 47.7147L34.4672 39.2516ZM26.0989 45.3782V39.4213H32.1098L26.0989 45.3782ZM7.43502 1.53191C8.5339 1.53191 9.48809 2.1554 9.95802 3.06383H4.91182C5.38628 2.14999 6.35201 1.53191 7.43502 1.53191ZM1.54583 4.59574H10.269V9.95745C10.269 10.6614 9.69121 11.234 8.98085 11.234C8.27049 11.234 7.69266 10.6614 7.69266 9.95745V6.89362C7.69266 6.4705 7.3467 6.12766 6.91975 6.12766C6.49279 6.12766 6.14683 6.4705 6.14683 6.89362V9.95745C6.14683 11.506 7.41822 12.766 8.98085 12.766C10.5435 12.766 11.8149 11.506 11.8149 9.95745V4.59574H33.2098V37.8894H25.326C24.8991 37.8894 24.5531 38.2322 24.5531 38.6553V46.4681H1.54583V4.59574Z"/>
<path d="M21.616 1.53191C22.043 1.53191 22.389 1.18907 22.389 0.765957C22.389 0.342843 22.043 0 21.616 0H0.772914C0.345956 0 5.66099e-08 0.342843 5.66099e-08 0.765957C5.66099e-08 1.18907 0.345956 1.53191 0.772914 1.53191H21.616Z" transform="translate(6.18335 33.7532)" fill="#F28E19"/>
<path d="M0.772914 1.53191H21.616C22.043 1.53191 22.389 1.18907 22.389 0.765957C22.389 0.342843 22.043 0 21.616 0H0.772914C0.345956 0 5.66099e-08 0.342843 5.66099e-08 0.765957C5.66099e-08 1.18907 0.345956 1.53191 0.772914 1.53191Z" transform="translate(6.18335 29.1573)" fill="#F28E19"/>
<path d="M0.772914 1.53191H21.616C22.043 1.53191 22.389 1.18907 22.389 0.765957C22.389 0.342843 22.043 0 21.616 0H0.772914C0.345956 0 5.66099e-08 0.342843 5.66099e-08 0.765957C5.66099e-08 1.18907 0.345956 1.53191 0.772914 1.53191Z" transform="translate(6.18335 24.5617)" fill="#F28E19"/>
<path d="M0.772914 1.53191H21.616C22.043 1.53191 22.389 1.18907 22.389 0.765957C22.389 0.342843 22.043 0 21.616 0H0.772914C0.345956 0 5.66099e-08 0.342843 5.66099e-08 0.765957C5.66099e-08 1.18907 0.345956 1.53191 0.772914 1.53191Z" transform="translate(6.18335 19.9661)" fill="#F28E19"/>
<path d="M0.772914 1.53191H21.616C22.043 1.53191 22.389 1.18907 22.389 0.765957C22.389 0.342843 22.043 0 21.616 0H0.772914C0.345956 0 5.66099e-08 0.342843 5.66099e-08 0.765957C5.66099e-08 1.18907 0.345956 1.53191 0.772914 1.53191Z" transform="translate(6.18335 15.3702)" fill="#F28E19"/>
<path d="M9.79767 0H8.76711C8.34016 0 7.9942 0.342843 7.9942 0.765957C7.9942 1.18907 8.34016 1.53191 8.76711 1.53191H9.02475V43.4043H0.772913C0.345955 43.4043 -1.48444e-06 43.7471 -1.48444e-06 44.1702C-1.48444e-06 44.5933 0.345955 44.9362 0.772913 44.9362H9.79767C10.2246 44.9362 10.5706 44.5933 10.5706 44.1702V0.765957C10.5706 0.342843 10.2246 0 9.79767 0Z" transform="translate(28.3071 3.06393)"/>
<path d="M1.80347 0H0.772915C0.345957 0 7.29639e-07 0.342843 7.29639e-07 0.765957C7.29639e-07 1.18907 0.345957 1.53191 0.772915 1.53191H1.03055V43.4043H0.772915C0.345957 43.4043 7.29639e-07 43.7471 7.29639e-07 44.1702C7.29639e-07 44.5933 0.345957 44.9362 0.772915 44.9362H1.80347C2.23043 44.9362 2.57638 44.5933 2.57638 44.1702V0.765957C2.57638 0.342843 2.23043 0 1.80347 0Z" transform="translate(40.4236 3.06393)"/>
</svg>
