<svg width="218" height="219" viewBox="0 0 218 219" xmlns="http://www.w3.org/2000/svg">
<path fill-rule="evenodd" clip-rule="evenodd" d="M218 0V4.94317H216V0H218ZM218 14.8295V24.7159H216V14.8295H218ZM218 34.6023V44.4886H216V34.6023H218ZM218 54.375V64.2614H216V54.375H218ZM218 74.1477V84.0341H216V74.1477H218ZM218 93.9204V103.807H216V93.9204H218ZM218 113.693V123.58H216V113.693H218ZM218 133.466V143.352H216V133.466H218ZM218 153.239V163.125H216V153.239H218ZM218 173.011V182.898H216V173.011H218ZM218 192.784V202.67H216V192.784H218ZM218 212.557V218.5H212.068V216.5H216V212.557H218ZM4.93182 218.5H0V216.5H4.93182V218.5ZM24.6591 218.5H14.7955V216.5H24.6591V218.5ZM44.3864 218.5H34.5227V216.5H44.3864V218.5ZM64.1136 218.5H54.25V216.5H64.1136V218.5ZM83.8409 218.5H73.9773V216.5H83.8409V218.5ZM103.568 218.5H93.7045V216.5H103.568V218.5ZM123.295 218.5H113.432V216.5H123.295V218.5ZM143.023 218.5H133.159V216.5H143.023V218.5ZM162.75 218.5H152.886V216.5H162.75V218.5ZM182.477 218.5H172.614V216.5H182.477V218.5ZM202.205 218.5H192.341V216.5H202.205V218.5Z"/>
</svg>
