<svg width="50" height="48" viewBox="0 0 50 48" xmlns="http://www.w3.org/2000/svg">
<path d="M46.0938 35.071V26.3226C46.0938 25.895 45.7439 25.5484 45.3125 25.5484H35.9375C35.5061 25.5484 35.1562 25.895 35.1562 26.3226V34.8387H34.375V26.3226C34.375 25.895 34.0252 25.5484 33.5938 25.5484H24.2188C23.7873 25.5484 23.4375 25.895 23.4375 26.3226V34.8387H22.6562V8.51613H39.8438V12.3871H35.9375C35.5061 12.3871 35.1562 12.7337 35.1562 13.1613V17.8065C35.1562 18.234 35.5061 18.5806 35.9375 18.5806C36.3689 18.5806 36.7188 18.234 36.7188 17.8065V13.9355H44.5312V17.8065C44.5312 18.234 44.8811 18.5806 45.3125 18.5806C45.7439 18.5806 46.0938 18.234 46.0938 17.8065V13.1613C46.0938 12.7337 45.7439 12.3871 45.3125 12.3871H41.4062V8.51613H42.9688C43.4002 8.51613 43.75 8.16948 43.75 7.74194V4.64516C43.75 4.21761 43.4002 3.87097 42.9688 3.87097H22.6562V0.774194C22.6562 0.346645 22.3064 0 21.875 0H3.90625C1.75 0.00251613 0.00253906 1.73419 0 3.87097V47.2258C0 47.6534 0.349805 48 0.78125 48H44.5312C47.5499 47.9961 49.9961 45.572 50 42.5806V40.2581C49.9946 37.8646 48.4076 35.7573 46.0938 35.071ZM22.6562 5.41935H42.1875V6.96774H22.6562V5.41935ZM21.0938 46.4516H1.5625V3.87097C1.5625 2.58823 2.61182 1.54839 3.90625 1.54839H21.0938V46.4516ZM36.7188 27.0968H44.5312V34.8387H36.7188V27.0968ZM25 27.0968H32.8125V34.8387H25V27.0968ZM48.4375 42.5806C48.435 44.7174 46.6875 46.4491 44.5312 46.4516H22.6562V36.3871H44.5312C46.6875 36.3896 48.435 38.1213 48.4375 40.2581V42.5806Z"/>
<path d="M4.29688 0C1.92373 0 0 1.90635 0 4.25806C0 6.60977 1.92373 8.51613 4.29688 8.51613C6.67002 8.51613 8.59375 6.60977 8.59375 4.25806C8.59072 1.90761 6.66875 0.003 4.29688 0ZM4.29688 6.96774C2.78672 6.96774 1.5625 5.75458 1.5625 4.25806C1.5625 2.76155 2.78672 1.54839 4.29688 1.54839C5.80703 1.54839 7.03125 2.76155 7.03125 4.25806C7.03125 5.75458 5.80703 6.96774 4.29688 6.96774Z" transform="translate(35.9375 37.1613)" fill="#F28E19"/>
<path d="M4.29688 0C1.92373 0 0 1.90635 0 4.25806C0 6.60977 1.92373 8.51613 4.29688 8.51613C6.67002 8.51613 8.59375 6.60977 8.59375 4.25806C8.59072 1.90761 6.66875 0.003 4.29688 0ZM4.29688 6.96774C2.78672 6.96774 1.5625 5.75458 1.5625 4.25806C1.5625 2.76155 2.78672 1.54839 4.29688 1.54839C5.80703 1.54839 7.03125 2.76155 7.03125 4.25806C7.03125 5.75458 5.80703 6.96774 4.29688 6.96774Z" transform="translate(25 37.1613)" fill="#F28E19"/>
<path d="M0 0.774194V17.0323C0 17.4598 0.349805 17.8065 0.78125 17.8065H17.1875C17.6189 17.8065 17.9688 17.4598 17.9688 17.0323V0.774194C17.9688 0.346645 17.6189 0 17.1875 0H0.78125C0.349805 0 0 0.346645 0 0.774194ZM1.5625 1.54839H16.4062V16.2581H1.5625V1.54839Z" transform="translate(2.34375 9.29027)"/>
<path d="M12.5 0H0.78125C0.349805 0 0 0.346645 0 0.774194C0 1.20174 0.349805 1.54839 0.78125 1.54839H12.5C12.9314 1.54839 13.2812 1.20174 13.2812 0.774194C13.2812 0.346645 12.9314 0 12.5 0Z" transform="translate(4.6875 12.3872)"/>
<path d="M12.5 0H0.78125C0.349805 0 0 0.346645 0 0.774194C0 1.20174 0.349805 1.54839 0.78125 1.54839H12.5C12.9314 1.54839 13.2812 1.20174 13.2812 0.774194C13.2812 0.346645 12.9314 0 12.5 0Z" transform="translate(4.6875 22.4516)"/>
<path d="M2.34375 0C1.04932 0 0 1.03984 0 2.32258C0 3.60532 1.04932 4.64516 2.34375 4.64516C3.63818 4.64516 4.6875 3.60532 4.6875 2.32258C4.6875 1.03984 3.63818 0 2.34375 0ZM2.34375 3.09677C1.9123 3.09677 1.5625 2.75013 1.5625 2.32258C1.5625 1.89503 1.9123 1.54839 2.34375 1.54839C2.7752 1.54839 3.125 1.89503 3.125 2.32258C3.125 2.75013 2.7752 3.09677 2.34375 3.09677Z" transform="translate(5.46875 28.6451)" fill="#F28E19"/>
<path d="M2.34375 0C1.04932 0 0 1.03984 0 2.32258C0 3.60532 1.04932 4.64516 2.34375 4.64516C3.63818 4.64516 4.6875 3.60532 4.6875 2.32258C4.6875 1.03984 3.63818 0 2.34375 0ZM2.34375 3.09677C1.9123 3.09677 1.5625 2.75013 1.5625 2.32258C1.5625 1.89503 1.9123 1.54839 2.34375 1.54839C2.7752 1.54839 3.125 1.89503 3.125 2.32258C3.125 2.75013 2.7752 3.09677 2.34375 3.09677Z" transform="translate(11.7188 28.6451)" fill="#F28E19"/>
</svg>
