<svg width="20" height="23" viewBox="0 0 20 23" xmlns="http://www.w3.org/2000/svg">
<path d="M14.0139 10.4263L14.2941 6.2241H15.3302V1.84778H10.4649V0H4.86532V1.84778H0V6.2241H1.03608L2.02512 21.055H8.97668C10.1427 22.2529 11.7839 23 13.5994 23C17.1287 23 20 20.1767 20 16.7064C20 13.373 17.3507 10.6371 14.0139 10.4263ZM6.34889 1.45877H8.98133V1.84778H6.34889V1.45877ZM1.48357 3.30655H13.8466V4.76533H1.48357V3.30655ZM3.41463 19.5962L2.52286 6.2241H12.8074L12.5221 10.5024C9.50394 11.0076 7.19877 13.5971 7.19877 16.7064C7.19877 17.7475 7.45746 18.7303 7.9146 19.5962H3.41463V19.5962ZM13.5994 21.5412C10.8881 21.5412 8.68234 19.3723 8.68234 16.7064C8.68234 14.0404 10.8881 11.8715 13.5994 11.8715C16.3107 11.8715 18.5164 14.0405 18.5164 16.7064C18.5164 19.3723 16.3107 21.5412 13.5994 21.5412Z"/>
<path d="M4.30923 0L2.67913 1.60285L1.04903 0L0 1.0315L1.6301 2.63435L0 4.23715L1.04903 5.26865L2.67913 3.6658L4.30923 5.26865L5.35826 4.23715L3.72816 2.63435L5.35826 1.0315L4.30923 0Z" transform="translate(10.9199 14.0721)"/>
</svg>