<svg width="48" height="48" viewBox="0 0 48 48" xmlns="http://www.w3.org/2000/svg">
<path d="M31.534 8.87947H22.5243V0.727862C22.5243 0.291126 22.2336 -4.12298e-07 21.7976 -4.12298e-07C21.3616 -4.12298e-07 21.071 0.291126 21.071 0.727862V13.4648L20.9256 13.392L16.2028 4.73091C15.6216 3.34809 14.3137 2.47471 12.8605 2.47471H3.19696C2.76096 2.47471 2.47033 2.76584 2.47033 3.20257V9.89856C1.01717 10.1896 1.11654e-10 11.4997 1.11654e-10 13.0281C1.11654e-10 16.6673 1.11654e-10 19.5057 1.11654e-10 23.3632C1.11654e-10 23.8 0.290632 24.0911 0.726628 24.0911H2.5431C2.68847 26.0562 4.35958 27.6574 6.46669 27.6574C8.50112 27.6574 10.1723 26.0562 10.3903 24.0911H12.9333C13.1512 26.129 14.8224 27.6574 16.8569 27.6574C18.8913 27.6574 20.5625 26.0562 20.7805 24.0911H21.7977C22.2337 24.0911 22.5243 23.7272 22.5243 23.3632C22.5243 16.085 22.5243 17.6862 22.5243 10.3352H31.534C31.97 10.3352 32.2607 10.0441 32.2607 9.60734C32.2607 9.1706 31.9699 8.87947 31.534 8.87947ZM3.92359 3.85753H12.8606V4.00314C13.7325 4.00314 14.5317 4.51259 14.895 5.38597C14.895 5.38597 14.895 5.45877 14.9677 5.45877L18.6007 12.1548L18.528 12.082C18.1647 11.9363 17.7288 11.9363 17.4381 12.1548C17.0748 12.3731 16.9296 12.737 16.9296 13.1009V14.7749H11.1895V11.2086C11.1895 10.408 10.5355 9.75295 9.73633 9.75295H3.92359V3.85753ZM6.4666 26.2017C5.08611 26.2017 3.99617 25.11 3.99617 23.7271C3.99617 22.3443 5.08602 21.2525 6.4666 21.2525C7.84717 21.2525 8.93702 22.3442 8.93702 23.7271C8.93702 25.1099 7.77449 26.2017 6.4666 26.2017ZM16.8569 26.2017C15.4764 26.2017 14.3864 25.11 14.3864 23.7271C14.3864 22.3443 15.4763 21.2525 16.8569 21.2525C18.2374 21.2525 19.3273 22.3442 19.3273 23.7271C19.3272 25.1099 18.2374 26.2017 16.8569 26.2017ZM21.0711 22.6354H20.5625C20.0539 20.9614 18.6008 19.7968 16.7843 19.7968C14.9678 19.7968 13.442 21.0341 13.0061 22.6354H10.1723C9.66374 20.9614 8.21058 19.7968 6.3941 19.7968C4.57762 19.7968 3.05178 21.0341 2.61588 22.6354H1.45316V18.8506H21.0711V22.6354ZM21.1437 17.395H1.45316V13.1008C1.45316 12.0819 2.25238 11.2813 3.19696 11.2813H9.66355V15.5755C9.66355 16.0122 9.95418 16.3033 10.3902 16.3033H17.5834C18.0194 16.3033 18.31 16.0122 18.31 15.5755V13.6831L21.1438 15.2115V17.395H21.1437Z" transform="translate(0.0261955 20.3425)"/>
<path d="M47.6904 15.9758L24.4395 0.109207C24.2216 -0.0364024 23.8583 -0.0364024 23.6403 0.109207L0.316848 15.9758C0.026216 16.1214 -0.0464655 16.4852 0.026216 16.7764C0.0988975 17.0675 0.38953 17.2858 0.752844 17.2858H1.18884V21.4344C1.18884 21.8711 1.47947 22.1622 1.91547 22.1622C2.35146 22.1622 2.6421 21.8711 2.6421 21.4344V17.2858H45.3655V46.5443H22.6957C22.2597 46.5443 21.9691 46.8354 21.9691 47.2721C21.9691 47.7089 22.2597 48 22.6957 48H46.0919C46.5279 48 46.8185 47.7089 46.8185 47.2721V17.2858H47.2545C47.5451 17.2858 47.8358 17.0675 47.9811 16.7764C48.0537 16.4852 47.9084 16.1213 47.6904 15.9758ZM3.0779 15.8302L24.0036 1.56493L44.9294 15.8303H3.0779V15.8302Z"/>
<path d="M8.28317 1.14527e-07H0.726627C0.290631 1.14527e-07 -6.85999e-07 0.291125 -6.85999e-07 0.727861V8.29722C-6.85999e-07 8.73396 0.290631 9.02509 0.726627 9.02509H8.28317C8.71907 9.02509 9.00979 8.73396 9.00979 8.29722V0.727861C9.00979 0.291125 8.64648 1.14527e-07 8.28317 1.14527e-07ZM7.55654 7.56927H1.45316V1.45554H7.55654V7.56927Z" transform="translate(24.0762 35.7725)" fill="#F28E19"/>
<path d="M8.28316 1.14527e-07H0.726629C0.290633 1.14527e-07 8.91799e-07 0.291125 8.91799e-07 0.727861V8.29722C8.91799e-07 8.73396 0.290633 9.02509 0.726629 9.02509H8.28316C8.71916 9.02509 9.00979 8.73396 9.00979 8.29722V0.727861C9.0097 0.291125 8.71907 1.14527e-07 8.28316 1.14527e-07ZM7.55654 7.56927H1.45316V1.45554H7.55654V7.56927Z" transform="translate(34.6844 35.7725)" fill="#F28E19"/>
<path d="M8.28316 1.39723e-06H0.726629C0.290633 1.39723e-06 8.91799e-07 0.291127 8.91799e-07 0.727862V8.29722C8.91799e-07 8.66115 0.290633 9.02508 0.726629 9.02508H8.28316C8.71916 9.02508 9.00979 8.73396 9.00979 8.29722V0.727862C9.0097 0.291127 8.71907 1.39723e-06 8.28316 1.39723e-06ZM7.55654 7.56936H1.45316V1.45563H7.55654V7.56936Z" transform="translate(34.6844 25.1464)" fill="#F28E19"/>
<path d="M8.28317 1.03075e-07H0.726627C0.290631 1.03075e-07 -6.85999e-07 0.291125 -6.85999e-07 0.727861V8.29722C-6.85999e-07 8.73396 0.290631 9.02508 0.726627 9.02508H8.28317C8.71907 9.02508 9.00979 8.73396 9.00979 8.29722V0.727768C9.00979 0.291126 8.71907 1.03075e-07 8.28317 1.03075e-07ZM7.55654 7.49656H1.45316V1.38282H7.55654V7.49656Z" transform="translate(24.0762 19.251)" fill="#F28E19"/>
<path d="M4.50485 9.16218e-08C2.03443 9.16218e-08 -6.05966e-07 2.03788 -6.05966e-07 4.5125C-6.05966e-07 6.98711 2.03443 9.02499 4.50485 9.02499C6.97527 9.02499 9.0097 6.98711 9.0097 4.5125C9.0097 2.03797 6.97527 9.16218e-08 4.50485 9.16218e-08ZM4.50485 7.56936C2.83374 7.56936 1.45316 6.18654 1.45316 4.5125C1.45316 2.83855 2.83364 1.45563 4.50485 1.45563C6.17606 1.45563 7.55654 2.83845 7.55654 4.5125C7.55654 6.18654 6.17606 7.56936 4.50485 7.56936Z" transform="translate(19.6441 5.20398)"/>
</svg>
