<svg width="19" height="24" viewBox="0 0 19 24" xmlns="http://www.w3.org/2000/svg">
<path d="M16.9037 22.0016H2.10138V11.4416H16.8986V22.0016H16.9037V22.0016ZM4.85171 6.42612C4.85171 3.98694 6.93764 2.00327 9.50255 2.00327C12.0675 2.00327 14.1534 3.98694 14.1534 6.42612V9.44327H4.85171V6.42612V6.42612ZM17.9544 9.44327H16.2599V6.42612C16.2599 2.88 13.2263 0 9.50255 0C5.77879 0 2.74518 2.88 2.74518 6.42612V9.44327H1.05069C0.46869 9.44327 0 9.88898 0 10.4424V23.0008C0 23.5543 0.46869 24 1.05069 24H17.9493C18.5313 24 19 23.5543 19 23.0008V10.4424C19.0051 9.88898 18.5313 9.44327 17.9544 9.44327V9.44327Z" transform="translate(19) scale(-1 1)"/>
<path d="M1.05069 3.79592C1.63269 3.79592 2.10138 3.3502 2.10138 2.79673V0.999183C2.10138 0.445714 1.63269 0 1.05069 0C0.468689 0 0 0.445714 0 0.999183V2.79673C0 3.34531 0.468689 3.79592 1.05069 3.79592V3.79592Z" transform="translate(10.5469 16.2367) scale(-1 1)"/>
</svg>
