<svg width="231" height="40" viewBox="0 0 231 40" fill="none" xmlns="http://www.w3.org/2000/svg">
<mask id="mask0" mask-type="alpha" maskUnits="userSpaceOnUse" x="0" y="0" width="35" height="40">
<rect width="34.4474" height="39.9375" fill="#6E7A9C"/>
</mask>
<g mask="url(#mask0)">
<rect width="34.4474" height="39.9375" fill="#6E7A9C"/>
<path d="M0 18.9965C0 2.61184 20.7697 -0.460272 30.9013 0.0517476V1.58781C22.4583 1.41714 5.57237 2.61185 5.57237 18.9965C5.57237 28.7248 22.4583 35.5517 30.9013 36.4051C20.7697 37.0878 0 31.2849 0 18.9965Z" transform="translate(3.5459 1.48431)" fill="#F2F2F2"/>
<path fill-rule="evenodd" clip-rule="evenodd" d="M0.692139 12.82C0.692139 12.82 2.39893 15.7487 2.89209 16.3208C4.84448 18.5849 7.90918 19.1299 7.90918 19.1299C7.74438 20.2984 7.7312 23.076 8.99683 24.8388C9.49121 25.7402 9.39233 28.5446 8.99683 29.0454C8.68042 29.446 9.85352 30.6813 10.4797 31.2488L11.2708 30.748L11.666 29.9468L13.248 32.0501L14.5332 32.5509C13.8411 31.5827 12.4768 29.5862 12.5559 29.3458C12.5854 29.2563 12.6763 29.2024 12.792 29.1337C13.0647 28.9718 13.4753 28.7279 13.5447 27.7433C13.5955 27.0245 13.9578 26.9637 14.3391 26.8998C14.7014 26.839 15.0808 26.7754 15.2253 26.1408C15.418 25.295 15.6941 24.8718 15.9453 24.4869C16.0806 24.2793 16.2087 24.0829 16.3127 23.8372C16.55 23.2764 15.489 21.8007 14.9287 21.133C15.4561 21.3333 16.6885 21.7339 17.4004 21.7339C17.2026 22.6354 17.7959 31.1487 18.7844 33.6526C19.1008 34.2135 19.3777 33.8863 19.4766 33.6526C18.8174 31.6161 17.8157 26.4814 19.0811 22.2347C19.793 22.395 21.0254 22.3015 21.5527 22.2347C21.6846 23.0026 21.8691 24.6986 21.5527 25.3396C21.5049 25.4366 21.457 25.5307 21.4104 25.622C21.073 26.2849 20.8096 26.8024 21.1572 27.2426C21.3525 27.49 21.2583 27.8596 21.1606 28.2428C21.0608 28.6352 20.957 29.0418 21.1572 29.3458C21.5527 29.9468 22.2446 30.5477 23.2334 29.9468C23.3857 29.8542 23.5359 29.7687 23.6816 29.6856C24.4822 29.2295 25.1575 28.8447 25.4084 27.7433C25.6458 26.7017 26.2324 26.9755 26.4958 27.2426V17.3271C26.0676 16.7595 24.9734 15.6244 24.0244 15.6244C23.5779 15.6244 23.5793 15.4967 23.5811 15.3535C23.584 15.1162 23.5874 14.8361 21.5527 15.0235C20.7617 15.0235 20.1685 13.421 20.8606 13.6213C20.929 13.6411 20.999 13.6628 21.071 13.685C21.7273 13.888 22.5205 14.1333 23.2334 13.3208C24.0244 12.4194 25.5073 12.4194 26.0017 14.0219C26.0017 14.3424 26.3313 14.8232 26.4958 15.0235V9.51486C26.1335 10.1826 25.4084 11.2376 25.4084 10.1158C25.4084 8.99405 25.804 8.37976 26.0017 8.21283L26.4958 7.51175V5.80908C26.1006 5.90924 25.27 6.28983 25.1118 7.01096C25.0117 7.46765 24.5308 7.64154 24.1836 7.76709C23.8455 7.88934 23.6343 7.96576 24.0244 8.21283C24.1768 8.30927 24.3362 8.39825 24.4878 8.4827C25.1226 8.83676 25.6135 9.1105 24.8152 9.51486C24.3508 9.75009 23.9082 9.76434 23.5593 9.77557C23.1653 9.78827 22.8904 9.79712 22.8379 10.1158C22.7588 10.5966 22.146 11.3177 21.8494 11.6181C22.5742 9.68179 24.0244 5.54868 24.0244 4.50705C24.0244 3.94617 25.6721 3.53885 26.4958 3.40533C26.0017 3.07147 25.2107 2.34366 26.0017 2.10327C26.3972 2.02316 26.4958 1.66928 26.4958 1.50235L26.0017 0L20.0698 0.47171L20.1685 1.80283C20.3992 1.8696 20.7222 2.14334 20.1685 2.70422C19.4766 3.40533 19.8721 5.40845 20.1685 6.20972C20.4058 6.85071 19.5425 9.88211 19.0811 11.3177C17.7629 11.0172 15.0078 10.236 14.5332 9.51486C14.0586 8.79373 15.1924 9.21439 15.8186 9.51486V8.91394C16.3457 9.14761 17.4004 9.47481 17.4004 8.91394C17.4004 8.21283 17.697 6.20972 18.3889 6.20972C19.0811 6.20972 19.3777 5.30829 19.0811 4.90765C18.8438 4.58716 18.1252 4.03964 17.7959 3.80594C17.7959 3.80594 18.9602 2.83475 19.4055 2.1698C19.8074 1.56949 19.9653 0.56604 19.9653 0.56604L19.8228 0.493958C19.8127 0.46051 19.7786 0.47171 19.7786 0.47171L19.8228 0.493958C19.842 0.558929 19.77 0.792206 19.1799 1.60251C18.6501 2.33017 17.5605 2.89896 16.7444 3.32498C16.1836 3.61774 15.752 3.84308 15.7197 4.00626C15.6892 4.16101 15.6492 4.07663 15.5588 3.88614C15.3569 3.46024 14.9036 2.50391 13.7422 2.50391C12.3977 2.50391 12.5229 2.23682 12.7537 2.10327L6.12964 4.10641C6.1626 4.74075 6.30762 6.02942 6.62402 6.10956C6.94043 6.18967 6.42627 6.61032 6.12964 6.81064C5.4375 7.01096 4.21167 7.95242 4.84448 10.1158V12.5196C4.94336 12.1189 5.18066 11.3778 5.33862 11.6181C5.43677 11.7671 5.41333 12.0638 5.38867 12.3739C5.36401 12.6893 5.33789 13.0186 5.4375 13.2207C5.5957 13.5412 6.95361 15.0902 7.61255 15.8247C5.73413 14.4225 2.01685 10.9972 2.17505 8.51331C2.33325 6.02942 0.791016 8.94733 0 10.7168L0.692139 12.82ZM17.4993 19.6307C16.2139 19.1967 13.5444 18.3487 13.1492 18.4288C12.6548 18.5289 11.4683 16.8263 11.5671 16.5258C11.5947 16.442 11.6838 16.0697 11.8113 15.5372L11.8254 15.4777L11.8262 15.4741C12.157 14.0877 12.7278 11.6964 13.1492 10.4163C14.5002 10.9504 17.5386 12.0388 18.8833 12.1189C18.7844 12.82 18.0923 17.1268 17.8945 17.3271C17.8398 17.3824 17.7551 17.4301 17.6653 17.4807C17.4297 17.6133 17.1584 17.7658 17.3015 18.1283C17.4597 18.5289 17.4993 19.2968 17.4993 19.6307ZM7.21704 13.421C7.18408 12.82 7.4939 11.6382 8.99683 11.7183C10.4995 11.7984 9.49097 14.8899 8.79907 16.4257C8.73315 16.0584 8.64087 15.2839 8.79907 15.1236C8.99683 14.9233 8.7002 14.723 8.50244 14.723C8.30469 14.723 8.40356 14.1221 8.79907 13.9218C9.19434 13.7214 9.09546 12.5196 7.21704 13.421Z" transform="translate(8.02344 2.64151)" fill="#F2F2F2"/>
</g>
<path d="M9.45325 3.40428V26.3074H6.61444V3.40428H0V0.196058H16.3658V3.40428H9.45325Z" transform="translate(38.5 4.09616)" fill="#101D2D"/>
<path d="M31.3547 17.0927H20.3969C20.3969 19.3266 20.8842 21.0436 21.8589 22.2437C22.72 23.2893 23.8271 23.8121 25.1803 23.8121C26.7227 23.8121 28.0096 23.2477 29.0411 22.1189L30.1766 24.5607C29.7602 25.0835 29.1215 25.5351 28.2604 25.9153C27.1816 26.4144 25.9799 26.6639 24.6551 26.6639C22.7436 26.6639 21.1208 25.8499 19.7865 24.2221C18.3009 22.4278 17.5581 20.0157 17.5581 16.9858C17.5581 13.8369 18.3198 11.312 19.8433 9.41078C21.2059 7.71161 22.8193 6.86203 24.6835 6.86203C26.8505 6.86203 28.549 7.62844 29.7792 9.16125C30.9715 10.6347 31.5676 12.5893 31.5676 15.0252C31.5676 15.7738 31.4966 16.4629 31.3547 17.0927ZM24.8112 9.71378C23.6095 9.71378 22.6017 10.201 21.7879 11.1753C21.012 12.1021 20.5719 13.2547 20.4679 14.6331H28.8849C28.8849 13.2666 28.5443 12.1259 27.863 11.211C27.1154 10.2128 26.0982 9.71378 24.8112 9.71378Z" transform="translate(38.5 4.09616)" fill="#101D2D"/>
<path d="M42.6816 10.4802C42.0949 9.96925 41.5035 9.71378 40.9073 9.71378C39.9516 9.71378 39.1141 10.2663 38.395 11.3714C37.6853 12.4764 37.3304 13.8072 37.3304 15.3638V26.3074H34.6335V7.2185H37.3304V10.2663C38.3145 7.99679 39.7765 6.86203 41.7164 6.86203C42.199 6.86203 42.8945 6.96897 43.8029 7.18285L42.6816 10.4802Z" transform="translate(38.5 4.09616)" fill="#101D2D"/>
<path d="M53.9801 10.4802C53.3934 9.96925 52.8019 9.71378 52.2058 9.71378C51.2501 9.71378 50.4126 10.2663 49.6934 11.3714C48.9837 12.4764 48.6289 13.8072 48.6289 15.3638V26.3074H45.932V7.2185H48.6289V10.2663C49.613 7.99679 51.075 6.86203 53.0149 6.86203C53.4975 6.86203 54.193 6.96897 55.1014 7.18285L53.9801 10.4802Z" transform="translate(38.5 4.09616)" fill="#101D2D"/>
<path d="M65.605 24.1151C64.5263 25.8143 62.875 26.6639 60.6513 26.6639C59.459 26.6639 58.4228 26.1232 57.5428 25.042C56.6722 23.9488 56.2369 22.5942 56.2369 20.9782C56.2369 19.0414 56.9088 17.4076 58.2525 16.0768C59.6056 14.7341 61.3279 14.0627 63.4191 14.0627C63.9869 14.0627 64.6303 14.2172 65.3495 14.5261C65.3495 11.4367 64.2518 9.89202 62.0565 9.89202C60.3721 9.89202 59.0757 10.4624 58.1673 11.6031L57.0318 8.76914C57.5428 8.24632 58.2477 7.80073 59.1467 7.43238C60.0551 7.05215 60.921 6.86203 61.7442 6.86203C63.949 6.86203 65.5482 7.49179 66.5418 8.75132C67.5449 10.0108 68.0464 12.013 68.0464 14.7578V21.602C68.0464 23.2774 68.4438 24.3944 69.2387 24.9528V26.6461C68.141 26.6461 67.3177 26.45 66.7689 26.0579C66.2295 25.6658 65.8416 25.0182 65.605 24.1151ZM65.3495 16.9323C64.4979 16.6946 63.9017 16.5758 63.5611 16.5758C62.1984 16.5758 61.0866 17.0155 60.2254 17.8947C59.3643 18.774 58.9338 19.8137 58.9338 21.0139C58.9338 22.9982 59.8659 23.9904 61.73 23.9904C63.0926 23.9904 64.2991 23.1764 65.3495 21.5486V16.9323Z" transform="translate(38.5 4.09616)" fill="#101D2D"/>
<path d="M81.2753 26.3074V0.196058H84.1141V23.0992H93.5105V26.3074H81.2753Z" transform="translate(38.5 4.09616)" fill="#101D2D"/>
<path d="M94.8022 16.7184C94.8022 13.7716 95.4315 11.3951 96.69 9.58902C97.958 7.77103 99.6235 6.86203 101.686 6.86203C103.863 6.86203 105.552 7.73538 106.754 9.48208C107.955 11.2169 108.556 13.629 108.556 16.7184C108.556 19.7959 107.941 22.2258 106.711 24.0082C105.481 25.7787 103.806 26.6639 101.686 26.6639C99.5194 26.6639 97.8303 25.7668 96.619 23.9725C95.4078 22.1783 94.8022 19.7603 94.8022 16.7184ZM97.641 16.7184C97.641 21.507 98.9895 23.9013 101.686 23.9013C102.945 23.9013 103.929 23.2596 104.639 21.9763C105.358 20.693 105.717 18.9404 105.717 16.7184C105.717 11.9892 104.374 9.62466 101.686 9.62466C100.456 9.62466 99.4721 10.2544 98.734 11.514C98.0053 12.7735 97.641 14.5083 97.641 16.7184Z" transform="translate(38.5 4.09616)" fill="#101D2D"/>
<path d="M110.856 31.5297L112.318 28.8205C113.888 30.1395 115.336 30.7989 116.661 30.7989C117.882 30.7989 118.842 30.5316 119.542 29.9969C120.252 29.4741 120.607 28.8205 120.607 28.0363C120.607 26.4916 119.718 25.7192 117.939 25.7192C117.636 25.7192 117.087 25.8143 116.292 26.0044C115.497 26.1945 114.877 26.2896 114.433 26.2896C112.275 26.2896 111.196 25.2677 111.196 23.224C111.196 22.5942 111.447 22.0238 111.949 21.5129C112.46 21.002 113.089 20.6336 113.836 20.4079C111.698 19.1483 110.629 16.962 110.629 13.8488C110.629 11.8526 111.182 10.1891 112.289 8.85826C113.396 7.52744 114.764 6.86203 116.391 6.86203C117.886 6.86203 119.055 7.2482 119.897 8.02055L121.246 5.98868L123.006 8.07402L121.388 9.60684C122.078 10.7357 122.424 12.2091 122.424 14.0271C122.424 15.952 121.946 17.568 120.99 18.875C120.035 20.1821 118.781 20.9307 117.229 21.1208L115 21.406C114.735 21.4416 114.381 21.5723 113.936 21.7981C113.491 22.012 113.269 22.2971 113.269 22.6536C113.269 23.1408 113.732 23.3844 114.66 23.3844C115.067 23.3844 115.701 23.2953 116.562 23.117C117.423 22.9269 118.062 22.8318 118.478 22.8318C119.973 22.8318 121.137 23.2834 121.97 24.1864C122.812 25.0776 123.233 26.3193 123.233 27.9115C123.233 29.6701 122.604 31.09 121.345 32.1713C120.096 33.2526 118.511 33.7933 116.59 33.7933C115.606 33.7933 114.57 33.5734 113.482 33.1338C112.393 32.6942 111.518 32.1595 110.856 31.5297ZM116.576 9.58902C115.639 9.58902 114.873 10.0049 114.276 10.8367C113.69 11.6684 113.396 12.6784 113.396 13.8666C113.396 15.1975 113.68 16.3025 114.248 17.1818C114.825 18.0492 115.601 18.4829 116.576 18.4829C117.532 18.4829 118.279 18.0611 118.819 17.2175C119.358 16.3619 119.628 15.245 119.628 13.8666C119.628 12.6784 119.334 11.6684 118.748 10.8367C118.17 10.0049 117.446 9.58902 116.576 9.58902Z" transform="translate(38.5 4.09616)" fill="#101D2D"/>
<path d="M128.783 0C129.246 0 129.639 0.20794 129.961 0.623821C130.292 1.02782 130.458 1.51499 130.458 2.08534C130.458 2.66758 130.292 3.16663 129.961 3.58251C129.639 3.98651 129.246 4.18851 128.783 4.18851C128.329 4.18851 127.936 3.98651 127.605 3.58251C127.283 3.16663 127.122 2.66758 127.122 2.08534C127.122 1.50311 127.283 1.01 127.605 0.605997C127.926 0.201999 128.319 0 128.783 0ZM127.307 26.3074V10.0703H125.22V7.2185H130.004V26.3074H127.307Z" transform="translate(38.5 4.09616)" fill="#101D2D"/>
<path d="M133.297 25.1667L134.248 21.9585C135.752 23.1943 136.963 23.8121 137.881 23.8121C139.547 23.8121 140.379 22.9328 140.379 21.1743C140.379 19.9147 139.575 18.8334 137.966 17.9304C136.727 17.2175 135.889 16.6768 135.454 16.3085C135.028 15.9401 134.654 15.5242 134.333 15.0608C134.02 14.5855 133.784 14.0865 133.623 13.5636C133.472 13.0289 133.396 12.4586 133.396 11.8526C133.396 10.2841 133.85 9.06026 134.759 8.18096C135.667 7.30167 136.855 6.86203 138.321 6.86203C139.428 6.86203 140.824 7.30167 142.508 8.18096L141.742 11.3179C140.673 10.2485 139.599 9.71378 138.52 9.71378C137.876 9.71378 137.332 9.9039 136.888 10.2841C136.452 10.6644 136.235 11.1456 136.235 11.7278C136.235 12.9517 136.788 13.8785 137.895 14.5083L139.826 15.6133C141.009 16.2906 141.87 17.063 142.409 17.9304C142.949 18.7978 143.218 19.885 143.218 21.1921C143.218 22.9031 142.74 24.2458 141.785 25.2202C140.829 26.1827 139.504 26.6639 137.81 26.6639C136.211 26.6639 134.706 26.1648 133.297 25.1667Z" transform="translate(38.5 4.09616)" fill="#101D2D"/>
<path d="M147.036 9.89202H145.276V7.2185H147.036V3.22604L149.733 1.92493V7.2185H153.906V9.89202H149.733V19.3741C149.733 20.9782 149.946 22.1189 150.372 22.7962C150.807 23.4735 151.503 23.8121 152.459 23.8121C153.149 23.8121 153.864 23.5923 154.602 23.1527L154.999 26.1292C153.883 26.4857 152.657 26.6639 151.323 26.6639C150.121 26.6639 149.104 26.1054 148.271 24.9885C147.448 23.8597 147.036 22.4397 147.036 20.7287V9.89202Z" transform="translate(38.5 4.09616)" fill="#101D2D"/>
<path d="M160.379 0C160.842 0 161.235 0.20794 161.557 0.623821C161.888 1.02782 162.054 1.51499 162.054 2.08534C162.054 2.66758 161.888 3.16663 161.557 3.58251C161.235 3.98651 160.842 4.18851 160.379 4.18851C159.925 4.18851 159.532 3.98651 159.201 3.58251C158.879 3.16663 158.718 2.66758 158.718 2.08534C158.718 1.50311 158.879 1.01 159.201 0.605997C159.522 0.201999 159.915 0 160.379 0ZM158.903 26.3074V10.0703H156.816V7.2185H161.6V26.3074H158.903Z" transform="translate(38.5 4.09616)" fill="#101D2D"/>
<path d="M177.355 8.76914L176.021 11.1575C175.746 10.8129 175.259 10.4861 174.559 10.1772C173.868 9.86825 173.187 9.71378 172.515 9.71378C171.048 9.71378 169.884 10.3614 169.023 11.6565C168.162 12.9398 167.731 14.7043 167.731 16.9501C167.731 19.184 168.171 20.8891 169.051 22.0654C169.931 23.2299 171.152 23.8121 172.713 23.8121C173.925 23.8121 175.145 23.224 176.376 22.0476L177.44 24.8994C175.992 26.0757 174.199 26.6639 172.061 26.6639C169.988 26.6639 168.275 25.7905 166.922 24.0438C165.569 22.2971 164.893 19.9326 164.893 16.9501C164.893 13.9082 165.593 11.4664 166.993 9.62466C168.403 7.78291 170.329 6.86203 172.77 6.86203C173.556 6.86203 174.407 7.06997 175.325 7.48585C176.243 7.90173 176.92 8.32949 177.355 8.76914Z" transform="translate(38.5 4.09616)" fill="#101D2D"/>
<path d="M188.866 24.1151C187.788 25.8143 186.136 26.6639 183.913 26.6639C182.72 26.6639 181.684 26.1232 180.804 25.042C179.934 23.9488 179.498 22.5942 179.498 20.9782C179.498 19.0414 180.17 17.4076 181.514 16.0768C182.867 14.7341 184.589 14.0627 186.68 14.0627C187.248 14.0627 187.892 14.2172 188.611 14.5261C188.611 11.4367 187.513 9.89202 185.318 9.89202C183.633 9.89202 182.337 10.4624 181.429 11.6031L180.293 8.76914C180.804 8.24632 181.509 7.80073 182.408 7.43238C183.316 7.05215 184.182 6.86203 185.006 6.86203C187.21 6.86203 188.81 7.49179 189.803 8.75132C190.806 10.0108 191.308 12.013 191.308 14.7578V21.602C191.308 23.2774 191.705 24.3944 192.5 24.9528V26.6461C191.402 26.6461 190.579 26.45 190.03 26.0579C189.491 25.6658 189.103 25.0182 188.866 24.1151ZM188.611 16.9323C187.759 16.6946 187.163 16.5758 186.822 16.5758C185.46 16.5758 184.348 17.0155 183.487 17.8947C182.626 18.774 182.195 19.8137 182.195 21.0139C182.195 22.9982 183.127 23.9904 184.991 23.9904C186.354 23.9904 187.56 23.1764 188.611 21.5486V16.9323Z" transform="translate(38.5 4.09616)" fill="#101D2D"/>
<path d="M2.95834 3.72764H2.46116V0.507519H1.65974C1.60862 0.987537 1.54266 1.43172 1.46186 1.84007C1.3827 2.24842 1.28046 2.59176 1.15514 2.87011C1.02981 3.14679 0.912732 3.34429 0.803897 3.46263C0.696711 3.58097 0.582104 3.66097 0.460077 3.70264C0.339698 3.74264 0.186339 3.76264 0 3.76264V3.29262C0.113782 3.29262 0.211075 3.27262 0.291876 3.23262C0.374328 3.19095 0.460077 3.10762 0.549124 2.98261C0.63982 2.85594 0.737936 2.63927 0.843474 2.33259C0.95066 2.02591 1.03723 1.68506 1.10319 1.31005C1.16916 0.933368 1.22852 0.519186 1.28129 0.0675025H2.95834V3.72764Z" transform="translate(43.6426 36.2099)" fill="#6E7A9C"/>
<path d="M5.04452 1.86507C5.04452 1.33338 5.17561 0.890033 5.43781 0.53502C5.70165 0.17834 6.05701 0 6.5039 0C7.01015 0 7.39602 0.16584 7.66151 0.497519C7.92865 0.829198 8.06222 1.28505 8.06222 1.86507C8.06222 2.46176 7.92783 2.93178 7.65904 3.27512C7.3919 3.61847 7.00685 3.79014 6.5039 3.79014C6.04217 3.79014 5.68351 3.61014 5.42791 3.25012C5.17232 2.89011 5.04452 2.42842 5.04452 1.86507ZM5.56643 1.86507C5.56643 2.28842 5.64723 2.6401 5.80884 2.92011C5.97209 3.19845 6.20378 3.33763 6.5039 3.33763C6.8436 3.33763 7.10167 3.21012 7.27811 2.95511C7.45456 2.69843 7.54278 2.33509 7.54278 1.86507C7.54278 0.921701 7.19649 0.450017 6.5039 0.450017C6.20378 0.450017 5.97209 0.574188 5.80884 0.822531C5.64723 1.06921 5.56643 1.41672 5.56643 1.86507Z" transform="translate(43.6426 36.2099)" fill="#6E7A9C"/>
<path d="M12.2633 0.517519H10.6505V3.72764H10.1509V0.0675025H12.2633V0.517519Z" transform="translate(43.6426 36.2099)" fill="#6E7A9C"/>
<path d="M16.9714 3.72764H16.4742V1.10004L14.4385 3.77764H14.3074V0.0675025H14.8021V2.6926L16.8403 0.0150006H16.9714V3.72764Z" transform="translate(43.6426 36.2099)" fill="#6E7A9C"/>
<path d="M21.5435 0.200008L21.3777 0.630024C21.2211 0.510019 20.9729 0.450017 20.6332 0.450017C20.3017 0.450017 20.0428 0.593356 19.8565 0.880033C19.6718 1.16504 19.5795 1.51672 19.5795 1.93507C19.5795 2.33175 19.6735 2.6651 19.8615 2.93511C20.0494 3.20345 20.3083 3.33763 20.6381 3.33763C20.9745 3.33763 21.2343 3.21679 21.4173 2.97511L21.6919 3.36013C21.4033 3.6468 21.0331 3.79014 20.5813 3.79014C20.103 3.79014 19.7295 3.61597 19.4607 3.26762C19.192 2.91928 19.0576 2.46676 19.0576 1.91007C19.0576 1.37672 19.1994 0.925035 19.483 0.555021C19.7683 0.185007 20.1467 0 20.6184 0C21.0059 0 21.3142 0.0666692 21.5435 0.200008Z" transform="translate(43.6426 36.2099)" fill="#6E7A9C"/>
<path d="M25.1509 0.517519V3.72764H24.6537V0.517519H23.5035V0.0675025H26.3555V0.517519H25.1509Z" transform="translate(43.6426 36.2099)" fill="#6E7A9C"/>
<path d="M31.0537 3.72764H30.5565V1.10004L28.5208 3.77764H28.3897V0.0675025H28.8844V2.6926L30.9226 0.0150006H31.0537V3.72764Z" transform="translate(43.6426 36.2099)" fill="#6E7A9C"/>
<path d="M35.5961 3.72764H35.1038V2.25258C34.8697 2.30759 34.6487 2.33509 34.4409 2.33509C34.06 2.33509 33.764 2.23425 33.5529 2.03258C33.3419 1.82924 33.2363 1.54089 33.2363 1.16754V0.0675025H33.7384V1.11004C33.7384 1.37672 33.8011 1.57839 33.9264 1.71506C34.0534 1.85174 34.2373 1.92007 34.478 1.92007C34.6842 1.92007 34.8928 1.89257 35.1038 1.83757V0.0675025H35.5961V3.72764Z" transform="translate(43.6426 36.2099)" fill="#6E7A9C"/>
<path d="M38.355 0.517519V1.53006H39.5522V1.95507H38.355V3.27762H39.9975V3.72764H37.8603V0.0675025H40.0222V0.517519H38.355Z" transform="translate(43.6426 36.2099)" fill="#6E7A9C"/>
<path d="M44.4434 0.200008L44.2777 0.630024C44.121 0.510019 43.8728 0.450017 43.5331 0.450017C43.2017 0.450017 42.9428 0.593356 42.7564 0.880033C42.5718 1.16504 42.4794 1.51672 42.4794 1.93507C42.4794 2.33175 42.5734 2.6651 42.7614 2.93511C42.9494 3.20345 43.2083 3.33763 43.5381 3.33763C43.8745 3.33763 44.1342 3.21679 44.3172 2.97511L44.5918 3.36013C44.3032 3.6468 43.933 3.79014 43.4812 3.79014C43.003 3.79014 42.6295 3.61597 42.3607 3.26762C42.0919 2.91928 41.9575 2.46676 41.9575 1.91007C41.9575 1.37672 42.0993 0.925035 42.3829 0.555021C42.6682 0.185007 43.0467 0 43.5183 0C43.9058 0 44.2142 0.0666692 44.4434 0.200008Z" transform="translate(43.6426 36.2099)" fill="#6E7A9C"/>
<path d="M49.1342 3.74264C49.1095 3.74931 49.0484 3.75264 48.9512 3.75264C48.745 3.75264 48.5941 3.69931 48.4985 3.59264C48.4029 3.4843 48.3328 3.29929 48.2882 3.03761C48.2289 2.67927 48.1069 2.41842 47.9222 2.25508C47.7375 2.09008 47.4794 2.00758 47.1479 2.00758H47.1282V3.72764H46.6335V0.0675025H47.1282V1.58256H47.1752C47.4835 1.58256 47.7309 1.51089 47.9172 1.36755C48.1052 1.22255 48.2223 1.01254 48.2685 0.737528C48.3097 0.492519 48.3765 0.315845 48.4688 0.207508C48.5628 0.0991704 48.7087 0.0450017 48.9066 0.0450017C48.9709 0.0450017 49.0287 0.0491685 49.0798 0.0575022V0.487518C49.0682 0.484185 49.0344 0.482518 48.9784 0.482518C48.9157 0.482518 48.8671 0.504186 48.8324 0.547521C48.7994 0.589189 48.7681 0.683359 48.7384 0.830031C48.6923 1.06504 48.5941 1.26838 48.4441 1.44005C48.294 1.61006 48.1052 1.72756 47.8776 1.79257C48.3756 1.96757 48.6782 2.34259 48.7854 2.91761C48.8168 3.08428 48.8506 3.19095 48.8868 3.23762C48.9248 3.28429 48.9718 3.30762 49.0278 3.30762C49.0625 3.30762 49.0979 3.30429 49.1342 3.29762V3.74264Z" transform="translate(43.6426 36.2099)" fill="#6E7A9C"/>
<path d="M53.3204 3.72764L53.073 2.95511H51.725L51.4554 3.72764H50.9038L52.373 0.0150006H52.5041L53.872 3.72764H53.3204ZM52.42 0.972537L51.8561 2.5851H52.9296L52.42 0.972537Z" transform="translate(43.6426 36.2099)" fill="#6E7A9C"/>
<path d="M58.0755 3.72764H57.5858V2.14008L57.373 2.13508C57.0713 2.13508 56.8387 2.20758 56.6755 2.35259C56.5122 2.49759 56.4001 2.7426 56.3391 3.08762C56.2929 3.34763 56.2253 3.52347 56.1363 3.61514C56.0472 3.70681 55.9054 3.75264 55.7108 3.75264C55.6366 3.75264 55.5871 3.74931 55.5624 3.74264V3.29762C55.597 3.30429 55.6242 3.30762 55.644 3.30762C55.6984 3.30762 55.7421 3.28679 55.7751 3.24512C55.8081 3.20345 55.8386 3.11012 55.8666 2.96511C55.9623 2.46843 56.2072 2.14591 56.6013 1.99758C56.2847 1.91257 56.0687 1.79507 55.9532 1.64506C55.8378 1.49506 55.7801 1.31505 55.7801 1.10504C55.7801 0.781696 55.8955 0.520853 56.1264 0.322512C56.3572 0.124171 56.7052 0.0250009 57.1702 0.0250009C57.411 0.0250009 57.7127 0.0408349 58.0755 0.0725027V3.72764ZM57.5858 1.73507V0.492519C57.411 0.470851 57.2353 0.460017 57.0589 0.460017C56.7736 0.460017 56.5733 0.52002 56.4578 0.640024C56.344 0.760029 56.2871 0.900034 56.2871 1.06004C56.2871 1.50006 56.5897 1.7234 57.1949 1.73007L57.5858 1.73507Z" transform="translate(43.6426 36.2099)" fill="#6E7A9C"/>
<path d="M65.8889 3.74264C65.8642 3.74931 65.8031 3.75264 65.7059 3.75264C65.4997 3.75264 65.3488 3.69931 65.2532 3.59264C65.1576 3.4843 65.0875 3.29929 65.0429 3.03761C64.9836 2.67927 64.8616 2.41842 64.6769 2.25508C64.4922 2.09008 64.2341 2.00758 63.9026 2.00758H63.8829V3.72764H63.3882V0.0675025H63.8829V1.58256H63.9299C64.2382 1.58256 64.4856 1.51089 64.6719 1.36755C64.8599 1.22255 64.977 1.01254 65.0232 0.737528C65.0644 0.492519 65.1312 0.315845 65.2235 0.207508C65.3175 0.0991704 65.4634 0.0450017 65.6613 0.0450017C65.7256 0.0450017 65.7834 0.0491685 65.8345 0.0575022V0.487518C65.8229 0.484185 65.7891 0.482518 65.7331 0.482518C65.6704 0.482518 65.6217 0.504186 65.5871 0.547521C65.5541 0.589189 65.5228 0.683359 65.4931 0.830031C65.447 1.06504 65.3488 1.26838 65.1988 1.44005C65.0487 1.61006 64.8599 1.72756 64.6323 1.79257C65.1303 1.96757 65.4329 2.34259 65.5401 2.91761C65.5715 3.08428 65.6053 3.19095 65.6415 3.23762C65.6795 3.28429 65.7265 3.30762 65.7825 3.30762C65.8172 3.30762 65.8526 3.30429 65.8889 3.29762V3.74264Z" transform="translate(43.6426 36.2099)" fill="#6E7A9C"/>
<path d="M67.8366 1.86507C67.8366 1.33338 67.9677 0.890033 68.2298 0.53502C68.4937 0.17834 68.8491 0 69.2959 0C69.8022 0 70.1881 0.16584 70.4535 0.497519C70.7207 0.829198 70.8543 1.28505 70.8543 1.86507C70.8543 2.46176 70.7199 2.93178 70.4511 3.27512C70.1839 3.61847 69.7989 3.79014 69.2959 3.79014C68.8342 3.79014 68.4755 3.61014 68.2199 3.25012C67.9643 2.89011 67.8366 2.42842 67.8366 1.86507ZM68.3585 1.86507C68.3585 2.28842 68.4393 2.6401 68.6009 2.92011C68.7641 3.19845 68.9958 3.33763 69.2959 3.33763C69.6356 3.33763 69.8937 3.21012 70.0702 2.95511C70.2466 2.69843 70.3348 2.33509 70.3348 1.86507C70.3348 0.921701 69.9885 0.450017 69.2959 0.450017C68.9958 0.450017 68.7641 0.574188 68.6009 0.822531C68.4393 1.06921 68.3585 1.41672 68.3585 1.86507Z" transform="translate(43.6426 36.2099)" fill="#6E7A9C"/>
<path d="M75.7429 3.72764L75.3076 1.36255L74.5062 3.77764H74.38L73.591 1.36255L73.1655 3.72764H72.6931L73.398 0.0675025H73.6157L74.4567 2.7351L75.2928 0.0675025H75.5055L76.2154 3.72764H75.7429Z" transform="translate(43.6426 36.2099)" fill="#6E7A9C"/>
<path d="M80.7034 3.72764H80.2062V0.517519H78.7221V3.72764H78.2274V0.0675025H80.7034V3.72764Z" transform="translate(43.6426 36.2099)" fill="#6E7A9C"/>
<path d="M85.0281 3.72764L84.7807 2.95511H83.4326L83.163 3.72764H82.6114L84.0807 0.0150006H84.2118L85.5797 3.72764H85.0281ZM84.1277 0.972537L83.5638 2.5851H84.6373L84.1277 0.972537Z" transform="translate(43.6426 36.2099)" fill="#6E7A9C"/>
<path d="M89.5705 3.72764V1.95507H87.9899V3.72764H87.4952V0.0675025H87.9899V1.53006H89.5705V0.0675025H90.0676V3.72764H89.5705Z" transform="translate(43.6426 36.2099)" fill="#6E7A9C"/>
<path d="M94.9934 3.72764H94.4963V1.10004L92.4605 3.77764H92.3294V0.0675025H92.8242V2.6926L94.8623 0.0150006H94.9934V3.72764Z" transform="translate(43.6426 36.2099)" fill="#6E7A9C"/>
<path d="M99.5408 3.72764H99.051V2.14008L98.8383 2.13508C98.5365 2.13508 98.304 2.20758 98.1408 2.35259C97.9775 2.49759 97.8654 2.7426 97.8044 3.08762C97.7582 3.34763 97.6906 3.52347 97.6015 3.61514C97.5125 3.70681 97.3707 3.75264 97.1761 3.75264C97.1019 3.75264 97.0524 3.74931 97.0277 3.74264V3.29762C97.0623 3.30429 97.0895 3.30762 97.1093 3.30762C97.1637 3.30762 97.2074 3.28679 97.2404 3.24512C97.2734 3.20345 97.3039 3.11012 97.3319 2.96511C97.4276 2.46843 97.6724 2.14591 98.0666 1.99758C97.7499 1.91257 97.5339 1.79507 97.4185 1.64506C97.3031 1.49506 97.2453 1.31505 97.2453 1.10504C97.2453 0.781696 97.3608 0.520853 97.5916 0.322512C97.8225 0.124171 98.1704 0.0250009 98.6355 0.0250009C98.8762 0.0250009 99.178 0.0408349 99.5408 0.0725027V3.72764ZM99.051 1.73507V0.492519C98.8762 0.470851 98.7006 0.460017 98.5241 0.460017C98.2389 0.460017 98.0385 0.52002 97.9231 0.640024C97.8093 0.760029 97.7524 0.900034 97.7524 1.06004C97.7524 1.50006 98.055 1.7234 98.6602 1.73007L99.051 1.73507Z" transform="translate(43.6426 36.2099)" fill="#6E7A9C"/>
</svg>
