<svg width="12" height="12" viewBox="0 0 12 12" xmlns="http://www.w3.org/2000/svg">
<path d="M11.5798 2.44925C12.1401 1.88893 12.1401 0.980557 11.5798 0.420239C11.0195 -0.14008 10.1111 -0.14008 9.55079 0.420239L5.99998 3.97107L2.44922 0.420301C1.88894 -0.140018 0.980515 -0.140018 0.420227 0.420301C-0.140076 0.980557 -0.140076 1.88899 0.420227 2.44931L3.97097 6.00002L0.420274 9.55073C-0.140014 10.111 -0.140014 11.0195 0.420274 11.5798C0.980577 12.1401 1.88898 12.1401 2.44928 11.5798L5.99998 8.02903L9.55075 11.5798C10.111 12.1401 11.0195 12.1401 11.5798 11.5798C12.1401 11.0195 12.1401 10.1111 11.5798 9.55079L8.02899 6.00002L11.5798 2.44925Z"/>
</svg>
