<svg width="42" height="14" viewBox="0 0 42 14" xmlns="http://www.w3.org/2000/svg">
<path fill-rule="evenodd" clip-rule="evenodd" d="M0 7C0 7.55228 0.447715 8 1 8H3.83333C4.38562 8 4.83333 7.55228 4.83333 7C4.83333 6.44772 4.38562 6 3.83333 6H1C0.447715 6 0 6.44772 0 7ZM8.5 7C8.5 7.55228 8.94771 8 9.5 8H15.1667C15.719 8 16.1667 7.55228 16.1667 7C16.1667 6.44772 15.719 6 15.1667 6H9.5C8.94771 6 8.5 6.44772 8.5 7ZM19.8333 7C19.8333 7.55228 20.281 8 20.8333 8H26.5C27.0523 8 27.5 7.55228 27.5 7C27.5 6.44772 27.0523 6 26.5 6H20.8333C20.281 6 19.8333 6.44772 19.8333 7ZM31.1667 7C31.1667 7.55228 31.6144 8 32.1667 8H35C35.5523 8 36 7.55228 36 7C36 6.44772 35.5523 6 35 6H32.1667C31.6144 6 31.1667 6.44772 31.1667 7Z"/>
<path fill-rule="evenodd" clip-rule="evenodd" d="M34.2929 0.292893C33.9024 0.683417 33.9024 1.31658 34.2929 1.70711L39.5858 7L34.2929 12.2929C33.9024 12.6834 33.9024 13.3166 34.2929 13.7071C34.6834 14.0976 35.3166 14.0976 35.7071 13.7071L41.7071 7.70711C42.0976 7.31658 42.0976 6.68342 41.7071 6.29289L35.7071 0.292893C35.3166 -0.0976311 34.6834 -0.0976311 34.2929 0.292893Z"/>
</svg>
