<svg width="42" height="14" viewBox="0 0 42 14" xmlns="http://www.w3.org/2000/svg">
<path fill-rule="evenodd" clip-rule="evenodd" d="M42 7C42 7.55228 41.5523 8 41 8H38.1667C37.6144 8 37.1667 7.55228 37.1667 7C37.1667 6.44772 37.6144 6 38.1667 6H41C41.5523 6 42 6.44772 42 7ZM33.5 7C33.5 7.55228 33.0523 8 32.5 8H26.8333C26.281 8 25.8333 7.55228 25.8333 7C25.8333 6.44772 26.281 6 26.8333 6H32.5C33.0523 6 33.5 6.44772 33.5 7ZM22.1667 7C22.1667 7.55228 21.719 8 21.1667 8H15.5C14.9477 8 14.5 7.55228 14.5 7C14.5 6.44772 14.9477 6 15.5 6H21.1667C21.719 6 22.1667 6.44772 22.1667 7ZM10.8333 7C10.8333 7.55228 10.3856 8 9.83334 8H7C6.44772 8 6 7.55228 6 7C6 6.44772 6.44772 6 7 6H9.83334C10.3856 6 10.8333 6.44772 10.8333 7Z"/>
<path fill-rule="evenodd" clip-rule="evenodd" d="M7.70711 0.292893C8.09763 0.683417 8.09763 1.31658 7.70711 1.70711L2.41421 7L7.70711 12.2929C8.09763 12.6834 8.09763 13.3166 7.70711 13.7071C7.31658 14.0976 6.68342 14.0976 6.29289 13.7071L0.292893 7.70711C-0.0976311 7.31658 -0.0976311 6.68342 0.292893 6.29289L6.29289 0.292893C6.68342 -0.0976311 7.31658 -0.0976311 7.70711 0.292893Z"/>
</svg>
