<svg width="60" height="50" viewBox="0 0 60 50" xmlns="http://www.w3.org/2000/svg">
<path d="M7.875 0C3.5325 0 0 3.14 0 7C0 7.552 0.504 8 1.125 8C1.746 8 2.25 7.552 2.25 7C2.25 4.243 4.77338 2 7.875 2C8.496 2 9 1.552 9 1C9 0.448 8.49712 0 7.875 0Z" transform="translate(21 17)" fill="#F28E19"/>
<path d="M50.8886 9.20289C39.04 -3.06763 19.7627 -3.06763 7.91404 9.20289L0 17.3977L8.11037 25.7968C14.0342 31.9316 21.8157 35 29.5982 35C37.3807 35 45.1611 31.9326 51.086 25.7968L59 17.601L50.8886 9.20289ZM49.6758 24.3375C38.6045 35.8019 20.5909 35.8019 9.51957 24.3375L2.8184 17.3977L9.32324 10.6612C20.3945 -0.803225 38.4082 -0.803225 49.4794 10.6612L56.1806 17.601L49.6758 24.3375Z" transform="translate(0 8)" fill="#216EB4"/>
<path d="M29.5 4C22.0563 4 16 10.0563 16 17.5C16 24.9437 22.0563 31 29.5 31C36.9437 31 43 24.9437 43 17.5C43 10.0563 36.9447 4 29.5 4ZM29.5 28.9231C23.2017 28.9231 18.0769 23.7983 18.0769 17.5C18.0769 11.2017 23.2017 6.07692 29.5 6.07692C35.7983 6.07692 40.9231 11.2017 40.9231 17.5C40.9231 23.7983 35.7993 28.9231 29.5 28.9231Z" transform="translate(0 8)" fill="#216EB4"/>
</svg>