<svg width="60" height="50" viewBox="0 0 60 50" xmlns="http://www.w3.org/2000/svg">
<path d="M11.285 28.6192C11.469 28.7652 11.689 28.8372 11.908 28.8372C12.202 28.8372 12.493 28.7082 12.691 28.4602C13.035 28.0282 12.964 27.3992 12.532 27.0552C11.731 26.4172 10.955 25.7242 10.227 24.9952L2.829 17.5972L10.458 9.96817C17.792 2.63517 28.461 0.132165 38.297 3.43417C38.82 3.60717 39.387 3.32717 39.564 2.80417C39.739 2.28117 39.458 1.71316 38.934 1.53716C28.372 -2.00784 16.918 0.680164 9.044 8.55316L0 17.5972L8.812 26.4092C9.593 27.1912 10.426 27.9342 11.285 28.6192Z" transform="translate(0 8.49707)" fill="#216EB4"/>
<path d="M50.2372 8.55434C48.8892 7.20634 47.4111 5.99034 45.8431 4.93834C45.3851 4.63134 44.7622 4.75334 44.4552 5.21134C44.1472 5.66934 44.2701 6.29134 44.7281 6.59934C46.1881 7.57834 47.5662 8.71234 48.8222 9.96834L56.2201 17.3663L48.5911 24.9953C41.2061 32.3803 30.0782 34.8773 20.2392 31.3513C19.7192 31.1643 19.1461 31.4353 18.9601 31.9553C18.7741 32.4753 19.0441 33.0473 19.5641 33.2343C22.7461 34.3743 26.0541 34.9273 29.3401 34.9273C36.9611 34.9273 44.4641 31.9503 50.0051 26.4093L59.0481 17.3663L50.2372 8.55434Z" transform="translate(0 8.49707)" fill="#216EB4"/>
<path d="M30.539 29.0031C28.386 29.0031 26.288 28.4051 24.469 27.2731C24.002 26.9831 23.385 27.1251 23.092 27.5941C22.8 28.0631 22.944 28.6791 23.413 28.9711C25.548 30.3011 28.013 31.0031 30.539 31.0031C37.983 31.0031 44.039 24.9471 44.039 17.5031C44.039 14.8181 43.252 12.2241 41.764 10.0011C41.456 9.54206 40.834 9.41906 40.377 9.72606C39.918 10.0341 39.7951 10.6551 40.1021 11.1131C41.3691 13.0061 42.039 15.2151 42.039 17.5031C42.039 23.8451 36.88 29.0031 30.539 29.0031Z" transform="translate(0 8.49707)" fill="#216EB4"/>
<path d="M30.5391 6.00342C32.6041 6.00342 34.6281 6.55642 36.3941 7.60342C36.8681 7.88442 37.4821 7.72842 37.7641 7.25242C38.0451 6.77742 37.8891 6.16442 37.4131 5.88242C35.3391 4.65342 32.9621 4.00342 30.5381 4.00342C23.0941 4.00342 17.0381 10.0594 17.0381 17.5034C17.0381 19.5874 17.5001 21.5864 18.4121 23.4444C18.5861 23.7984 18.9411 24.0044 19.3111 24.0044C19.4581 24.0044 19.6091 23.9714 19.7501 23.9024C20.2461 23.6584 20.4511 23.0594 20.2081 22.5644C19.4321 20.9824 19.0381 19.2804 19.0381 17.5044C19.0391 11.1624 24.1981 6.00342 30.5391 6.00342Z" transform="translate(0 8.49707)" fill="#216EB4"/>
<path d="M48.2072 0.29325C47.8162 -0.09775 47.1843 -0.09775 46.7933 0.29325L0.29325 46.7933C-0.09775 47.1843 -0.09775 47.8162 0.29325 48.2072C0.48825 48.4022 0.74425 48.5002 1.00025 48.5002C1.25625 48.5002 1.51225 48.4022 1.70725 48.2072L48.2072 1.70725C48.5982 1.31725 48.5982 0.68425 48.2072 0.29325Z" transform="translate(6.41357 1)" fill="#F28E19"/>
</svg>