<svg width="27" height="27" viewBox="0 0 27 27" xmlns="http://www.w3.org/2000/svg">
<path d="M8.50363 0.0431815L0.540742 3.20687C0.217869 3.31429 0 3.61635 0 3.95696V23.0448C0 23.3853 0.217869 23.6874 0.540742 23.7947L8.50363 26.9584C9.00487 27.1287 9.54493 26.7558 9.54493 26.2084V0.793168C9.54493 0.242359 8.99733 -0.131 8.50363 0.0431815ZM7.17189 14.2918C6.73505 14.2918 6.3809 13.9377 6.3809 13.5009C6.3809 13.064 6.7351 12.71 7.17189 12.71C7.60874 12.71 7.96289 13.064 7.96289 13.5009C7.96289 13.9377 7.60874 14.2918 7.17189 14.2918Z" />
<path d="M26.209 11.919H19.8281V9.54763C19.8281 8.89088 19.074 8.52026 18.5539 8.92141L13.9372 12.7933C13.3542 13.0848 13.3543 13.9168 13.9373 14.2082L18.554 18.0802C19.074 18.4813 19.8281 18.1107 19.8281 17.454V15.0827H26.209C26.6458 15.0827 27 14.7286 27 14.2918V12.7099C27 12.273 26.6458 11.919 26.209 11.919Z" />
<path d="M13.0264 11.4926L17.5377 7.70947C18.0081 7.34492 18.5079 7.17343 19.034 7.17343L19.0371 7.17369V3.95695C19.0371 3.51979 18.6833 3.16605 18.2461 3.16605H11.127V23.8357H18.2461C18.6833 23.8357 19.0371 23.482 19.0371 23.0448V19.8281L19.034 19.8283C18.5079 19.8283 18.0081 19.6568 17.5879 19.3332L13.0264 15.5091C12.3374 15.0774 11.9179 14.3274 11.9179 13.5009C11.9179 12.6744 12.3374 11.9244 13.0264 11.4926Z" />
</svg>
