<svg width="40" height="40" viewBox="0 0 40 40" xmlns="http://www.w3.org/2000/svg">
<path fill-rule="evenodd" clip-rule="evenodd" d="M0 1.66667V0H1.66667V1.29032H1.29032V1.66667H0ZM8.33333 0H5V1.29032H8.33333V0ZM11.6667 0V1.29032H15V0H11.6667ZM18.3333 0V1.29032H21.6667V0H18.3333ZM25 0V1.29032H28.3333V0H25ZM31.6667 0V1.29032H35V0H31.6667ZM38.3333 0V1.29032H38.7097V1.66667H40V0H38.3333ZM40 5H38.7097V8.33333H40V5ZM40 11.6667H38.7097V15H40V11.6667ZM40 18.3333H38.7097V21.6667H40V18.3333ZM40 25H38.7097V28.3333H40V25ZM40 31.6667H38.7097V35H40V31.6667ZM40 38.3333H38.7097V38.7097H38.3333V40H40V38.3333ZM35 40V38.7097H31.6667V40H35ZM28.3333 40V38.7097H25V40H28.3333ZM21.6667 40V38.7097H18.3333V40H21.6667ZM15 40V38.7097H11.6667V40H15ZM8.33333 40V38.7097H5V40H8.33333ZM1.66667 40V38.7097H1.29032V38.3333H0V40H1.66667ZM0 35H1.29032V31.6667H0V35ZM0 28.3333H1.29032V25H0V28.3333ZM0 21.6667H1.29032V18.3333H0V21.6667ZM0 15H1.29032V11.6667H0V15ZM0 8.33333H1.29032V5H0V8.33333Z"/>
<path fill-rule="evenodd" clip-rule="evenodd" d="M27.8262 0H0V27.8262H27.8262V0ZM14.7827 14.7827H20C20.4805 14.7827 20.8696 14.3931 20.8696 13.9131C20.8696 13.6021 20.7065 13.3291 20.4609 13.1753C20.3271 13.0918 20.1694 13.0435 20 13.0435H14.7827V7.82617C14.7827 7.3457 14.3936 6.95654 13.9131 6.95654C13.4326 6.95654 13.0435 7.3457 13.0435 7.82617V13.0435H7.82617C7.3457 13.0435 6.95654 13.4326 6.95654 13.9131C6.95654 14.3936 7.3457 14.7827 7.82617 14.7827H13.0435V20C13.0435 20.4805 13.4326 20.8696 13.9131 20.8696C14.3936 20.8696 14.7827 20.4805 14.7827 20V14.7827Z" transform="translate(6.08691 6.08691)"/>
</svg>
